{"glyphs":{"0":{"ha":967,"x_min":0,"x_max":0,"o":"m 483 -22 b 904 492 750 -22 904 182 b 483 1008 904 803 750 1008 b 64 492 217 1008 64 803 b 483 -22 64 182 217 -22 z m 281 492 b 483 831 281 711 353 831 b 686 492 614 831 686 711 b 483 156 686 274 614 156 b 281 492 353 156 281 274 z "},"1":{"ha":624,"x_min":0,"x_max":0,"o":"m 129 803 l 53 803 l 53 649 l 267 649 l 267 0 l 478 0 l 478 986 l 313 986 b 129 803 311 861 253 803 z "},"2":{"ha":907,"x_min":0,"x_max":0,"o":"m 88 672 l 304 660 b 469 831 322 769 381 831 b 608 711 551 831 608 781 b 444 535 608 647 544 596 b 81 0 243 421 81 289 l 828 0 l 828 178 l 338 178 b 569 392 343 258 515 361 b 825 708 704 469 825 557 b 469 1008 825 882 676 1008 b 88 672 251 1008 104 867 z "},"3":{"ha":907,"x_min":0,"x_max":0,"o":"m 442 593 l 357 594 l 357 447 l 442 449 b 625 304 536 451 625 403 b 449 156 625 203 539 156 b 279 297 371 156 289 201 l 64 289 b 446 -22 72 101 226 -22 b 843 271 690 -22 843 92 b 603 533 843 404 757 499 b 810 751 738 564 810 639 b 446 1008 810 908 669 1008 b 86 740 250 1008 106 901 l 300 731 b 442 831 308 790 363 831 b 592 722 535 831 592 788 b 442 593 592 631 517 592 z "},"4":{"ha":944,"x_min":0,"x_max":0,"o":"m 774 986 l 521 986 l 64 356 l 64 179 l 563 179 l 563 0 l 774 0 l 774 179 l 881 179 l 881 356 l 774 356 z m 294 356 l 563 719 l 563 356 z "},"5":{"ha":932,"x_min":0,"x_max":0,"o":"m 786 986 l 165 986 l 89 410 l 300 410 b 461 503 322 465 386 503 b 638 331 568 503 638 433 b 468 156 638 229 568 156 b 290 282 383 156 308 204 l 78 272 b 474 -22 93 97 256 -22 b 854 335 704 -22 854 121 b 542 657 854 522 725 657 b 308 556 447 657 353 618 l 343 808 l 786 808 z "},"6":{"ha":918,"x_min":0,"x_max":0,"o":"m 640 739 l 835 750 b 490 1008 796 914 656 1008 b 78 442 197 1008 78 746 b 178 106 78 300 111 182 b 457 -22 251 19 350 -22 b 839 322 678 -22 839 103 b 511 650 839 517 707 650 b 269 513 408 650 322 603 b 486 835 278 708 351 835 b 640 739 561 835 614 801 z m 290 322 b 467 500 292 425 363 500 b 629 322 564 500 629 425 b 461 142 629 218 561 142 b 290 322 358 142 288 218 z "},"7":{"ha":828,"x_min":0,"x_max":0,"o":"m 50 986 l 50 808 l 583 808 b 276 0 393 585 276 297 l 492 0 b 778 828 481 336 597 615 l 778 986 z "},"8":{"ha":928,"x_min":0,"x_max":0,"o":"m 464 -22 b 878 271 717 -22 878 90 b 660 535 878 396 797 493 b 831 738 768 569 831 639 b 464 1008 831 899 688 1008 b 97 738 242 1008 97 899 b 268 535 97 639 158 568 b 50 271 129 494 50 397 b 464 -22 50 90 213 -22 z m 267 301 b 464 450 267 390 346 450 b 660 301 582 450 660 390 b 464 156 660 214 582 156 b 267 301 346 156 267 214 z m 313 715 b 464 831 313 786 371 831 b 614 715 557 831 614 786 b 464 600 614 646 557 600 b 313 715 371 600 313 646 z "},"9":{"ha":924,"x_min":0,"x_max":0,"o":"m 78 653 b 408 319 78 453 218 319 b 656 453 536 319 613 378 b 439 151 647 268 578 151 b 294 235 374 151 321 182 l 97 222 b 444 -22 146 67 271 -22 b 846 528 739 -22 846 226 b 747 874 846 675 813 796 b 460 1008 672 965 569 1008 b 78 653 243 1008 78 876 z m 288 656 b 457 844 288 761 354 844 b 628 656 561 844 629 763 b 451 469 626 550 557 469 b 288 656 351 469 288 550 z "}," ":{"ha":317,"x_min":0,"x_max":0,"o":""},"A":{"ha":1031,"x_min":0,"x_max":0,"o":"m 35 0 l 253 0 l 325 210 l 704 210 l 776 0 l 996 0 l 640 986 l 390 986 z m 385 383 l 515 764 l 646 383 z "},"Á":{"ha":1031,"x_min":0,"x_max":0,"o":"m 35 0 l 253 0 l 325 210 l 704 210 l 776 0 l 996 0 l 640 986 l 390 986 z m 385 383 l 515 764 l 646 383 z m 449 1096 l 576 1096 l 703 1276 l 536 1276 z "},"Ă":{"ha":1031,"x_min":0,"x_max":0,"o":"m 35 0 l 253 0 l 325 210 l 704 210 l 776 0 l 996 0 l 640 986 l 390 986 z m 297 1282 b 515 1090 297 1174 393 1090 b 733 1282 638 1090 733 1174 l 606 1282 b 515 1197 606 1233 567 1197 b 425 1282 464 1197 425 1233 z m 385 383 l 515 764 l 646 383 z "},"Ǎ":{"ha":1031,"x_min":0,"x_max":0,"o":"m 35 0 l 253 0 l 325 210 l 704 210 l 776 0 l 996 0 l 640 986 l 390 986 z m 285 1264 l 404 1097 l 631 1097 l 751 1264 l 603 1264 l 518 1146 l 433 1264 z m 385 383 l 515 764 l 646 383 z "},"Â":{"ha":1031,"x_min":0,"x_max":0,"o":"m 35 0 l 253 0 l 325 210 l 704 210 l 776 0 l 996 0 l 640 986 l 390 986 z m 281 1096 l 429 1096 l 514 1214 l 599 1096 l 747 1096 l 626 1263 l 400 1263 z m 385 383 l 515 764 l 646 383 z "},"Ä":{"ha":1031,"x_min":0,"x_max":0,"o":"m 35 0 l 253 0 l 325 210 l 704 210 l 776 0 l 996 0 l 640 986 l 390 986 z m 263 1082 l 478 1082 l 478 1236 l 263 1236 z m 385 383 l 515 764 l 646 383 z m 553 1082 l 768 1082 l 768 1236 l 553 1236 z "},"À":{"ha":1031,"x_min":0,"x_max":0,"o":"m 35 0 l 253 0 l 325 210 l 704 210 l 776 0 l 996 0 l 640 986 l 390 986 z m 325 1276 l 451 1096 l 583 1096 l 496 1276 z m 385 383 l 515 764 l 646 383 z "},"Ā":{"ha":1031,"x_min":0,"x_max":0,"o":"m 35 0 l 253 0 l 325 210 l 704 210 l 776 0 l 996 0 l 640 986 l 390 986 z m 314 1107 l 717 1107 l 717 1243 l 314 1243 z m 385 383 l 515 764 l 646 383 z "},"Ą":{"ha":1074,"x_min":0,"x_max":0,"o":"m 35 0 l 253 0 l 325 210 l 704 210 l 776 0 l 882 0 l 839 -44 b 778 -181 794 -86 778 -129 b 903 -304 778 -247 835 -300 b 1039 -264 947 -307 999 -296 l 1039 -153 b 956 -185 1011 -169 982 -185 b 910 -137 928 -185 910 -164 b 956 -47 910 -110 932 -75 l 990 0 l 996 0 l 640 986 l 390 986 z m 385 383 l 515 764 l 646 383 z "},"Å":{"ha":1031,"x_min":0,"x_max":0,"o":"m 35 0 l 253 0 l 325 210 l 704 210 l 776 0 l 996 0 l 640 986 l 390 986 z m 372 1199 b 514 1058 372 1119 436 1058 b 656 1199 592 1058 656 1119 b 514 1342 656 1276 592 1342 b 372 1199 436 1342 372 1276 z m 385 383 l 515 764 l 646 383 z m 465 1200 b 514 1247 465 1225 486 1247 b 563 1200 540 1247 563 1225 b 514 1151 563 1175 540 1151 b 465 1200 486 1151 465 1175 z "},"Ã":{"ha":1031,"x_min":0,"x_max":0,"o":"m 35 0 l 253 0 l 325 210 l 704 210 l 776 0 l 996 0 l 640 986 l 390 986 z m 271 1090 l 392 1090 b 436 1172 392 1146 406 1172 b 497 1133 461 1172 474 1156 b 604 1089 524 1106 557 1089 b 757 1294 699 1089 757 1167 l 636 1294 b 593 1213 636 1239 624 1213 b 526 1256 565 1213 551 1231 b 425 1294 499 1283 467 1294 b 271 1090 329 1294 271 1218 z m 385 383 l 515 764 l 646 383 z "},"Æ":{"ha":1457,"x_min":0,"x_max":0,"o":"m 563 986 l 35 0 l 257 0 l 374 228 l 736 228 l 736 0 l 1393 0 l 1393 178 l 947 178 l 947 407 l 1365 407 l 1365 582 l 947 582 l 947 808 l 1382 808 l 1382 986 z m 471 415 l 676 811 l 736 811 l 736 415 z "},"B":{"ha":976,"x_min":0,"x_max":0,"o":"m 103 0 l 517 0 b 906 279 772 0 906 97 b 665 510 906 415 821 494 b 864 713 792 525 864 596 b 461 986 864 901 731 986 l 103 986 z m 314 172 l 314 425 l 524 425 b 693 297 625 425 693 382 b 524 172 693 214 625 172 z m 314 578 l 314 814 l 481 814 b 651 694 588 814 651 776 b 481 578 651 617 585 578 z "},"C":{"ha":1010,"x_min":0,"x_max":0,"o":"m 961 356 l 740 364 b 528 156 718 231 643 156 b 274 492 356 156 274 300 b 528 831 274 685 354 831 b 738 638 636 831 713 761 l 957 647 b 532 1008 914 875 758 1008 b 57 492 240 1008 57 785 b 532 -22 57 199 240 -22 b 961 356 768 -22 921 117 z "},"Ć":{"ha":1011,"x_min":0,"x_max":0,"o":"m 961 356 l 740 364 b 528 156 718 231 643 156 b 274 492 356 156 274 300 b 528 831 274 685 354 831 b 738 638 636 831 713 761 l 957 647 b 532 1008 914 875 758 1008 b 57 492 240 1008 57 785 b 532 -22 57 199 240 -22 b 961 356 768 -22 921 117 z m 465 1096 l 593 1096 l 719 1276 l 553 1276 z "},"Č":{"ha":1011,"x_min":0,"x_max":0,"o":"m 961 356 l 740 364 b 528 156 718 231 643 156 b 274 492 356 156 274 300 b 528 831 274 685 354 831 b 738 638 636 831 713 761 l 957 647 b 532 1008 914 875 758 1008 b 57 492 240 1008 57 785 b 532 -22 57 199 240 -22 b 961 356 768 -22 921 117 z m 303 1264 l 422 1097 l 649 1097 l 769 1264 l 621 1264 l 536 1146 l 451 1264 z "},"Ç":{"ha":1011,"x_min":0,"x_max":0,"o":"m 961 356 l 740 364 b 528 156 718 231 643 156 b 274 492 356 156 274 300 b 528 831 274 685 354 831 b 738 638 636 831 713 761 l 957 647 b 532 1008 914 875 758 1008 b 57 492 240 1008 57 785 b 471 -19 57 219 215 10 l 432 -61 l 478 -124 b 569 -164 524 -108 569 -124 b 517 -214 569 -193 549 -214 b 419 -146 469 -214 440 -171 l 338 -222 b 525 -326 396 -290 453 -326 b 679 -182 606 -326 679 -264 b 544 -44 679 -104 618 -44 l 567 -21 b 961 356 783 -8 922 128 z "},"Ĉ":{"ha":1011,"x_min":0,"x_max":0,"o":"m 961 356 l 740 364 b 528 156 718 231 643 156 b 274 492 356 156 274 300 b 528 831 274 685 354 831 b 738 638 636 831 713 761 l 957 647 b 532 1008 914 875 758 1008 b 57 492 240 1008 57 785 b 532 -22 57 199 240 -22 b 961 356 768 -22 921 117 z m 299 1096 l 447 1096 l 532 1214 l 617 1096 l 765 1096 l 644 1263 l 418 1263 z "},"Ċ":{"ha":1011,"x_min":0,"x_max":0,"o":"m 961 356 l 740 364 b 528 156 718 231 643 156 b 274 492 356 156 274 300 b 528 831 274 685 354 831 b 738 638 636 831 713 761 l 957 647 b 532 1008 914 875 758 1008 b 57 492 240 1008 57 785 b 532 -22 57 199 240 -22 b 961 356 768 -22 921 117 z m 424 1082 l 639 1082 l 639 1236 l 424 1236 z "},"D":{"ha":997,"x_min":0,"x_max":0,"o":"m 443 986 l 103 986 l 103 0 l 451 0 b 942 492 765 0 942 176 b 443 986 942 808 763 986 z m 314 178 l 314 808 l 443 808 b 726 493 635 808 726 707 b 443 178 726 279 635 178 z "},"Ð":{"ha":1103,"x_min":0,"x_max":0,"o":"m 57 551 l 57 435 l 208 435 l 208 0 l 557 0 b 1047 492 871 0 1047 176 b 549 986 1047 808 868 986 l 208 986 l 208 551 z m 419 178 l 419 435 l 583 435 l 583 551 l 419 551 l 419 808 l 549 808 b 832 493 740 808 832 707 b 549 178 832 279 740 178 z "},"Ď":{"ha":997,"x_min":0,"x_max":0,"o":"m 443 986 l 103 986 l 103 0 l 451 0 b 942 492 765 0 942 176 b 443 986 942 808 763 986 z m 222 1264 l 342 1097 l 568 1097 l 689 1264 l 540 1264 l 456 1146 l 371 1264 z m 314 178 l 314 808 l 443 808 b 726 493 635 808 726 707 b 443 178 726 279 635 178 z "},"Đ":{"ha":1103,"x_min":0,"x_max":0,"o":"m 57 551 l 57 435 l 208 435 l 208 0 l 557 0 b 1047 492 871 0 1047 176 b 549 986 1047 808 868 986 l 208 986 l 208 551 z m 419 178 l 419 435 l 583 435 l 583 551 l 419 551 l 419 808 l 549 808 b 832 493 740 808 832 707 b 549 178 832 279 740 178 z "},"E":{"ha":864,"x_min":0,"x_max":0,"o":"m 103 986 l 103 0 l 800 0 l 800 178 l 314 178 l 314 407 l 772 407 l 772 582 l 314 582 l 314 808 l 789 808 l 789 986 z "},"É":{"ha":864,"x_min":0,"x_max":0,"o":"m 103 986 l 103 0 l 800 0 l 800 178 l 314 178 l 314 407 l 772 407 l 772 582 l 314 582 l 314 808 l 789 808 l 789 986 z m 379 1097 l 507 1097 l 633 1278 l 467 1278 z "},"Ě":{"ha":864,"x_min":0,"x_max":0,"o":"m 103 986 l 103 0 l 800 0 l 800 178 l 314 178 l 314 407 l 772 407 l 772 582 l 314 582 l 314 808 l 789 808 l 789 986 z m 217 1265 l 336 1099 l 563 1099 l 683 1265 l 535 1265 l 450 1147 l 365 1265 z "},"Ê":{"ha":864,"x_min":0,"x_max":0,"o":"m 103 986 l 103 0 l 800 0 l 800 178 l 314 178 l 314 407 l 772 407 l 772 582 l 314 582 l 314 808 l 789 808 l 789 986 z m 214 1097 l 363 1097 l 447 1215 l 532 1097 l 681 1097 l 560 1264 l 333 1264 z "},"Ë":{"ha":864,"x_min":0,"x_max":0,"o":"m 103 986 l 103 0 l 800 0 l 800 178 l 314 178 l 314 407 l 772 407 l 772 582 l 314 582 l 314 808 l 789 808 l 789 986 z m 194 1083 l 410 1083 l 410 1238 l 194 1238 z m 485 1083 l 700 1083 l 700 1238 l 485 1238 z "},"Ė":{"ha":864,"x_min":0,"x_max":0,"o":"m 103 986 l 103 0 l 800 0 l 800 178 l 314 178 l 314 407 l 772 407 l 772 582 l 314 582 l 314 808 l 789 808 l 789 986 z m 339 1083 l 554 1083 l 554 1238 l 339 1238 z "},"È":{"ha":864,"x_min":0,"x_max":0,"o":"m 103 986 l 103 0 l 800 0 l 800 178 l 314 178 l 314 407 l 772 407 l 772 582 l 314 582 l 314 808 l 789 808 l 789 986 z m 256 1278 l 382 1097 l 514 1097 l 426 1278 z "},"Ē":{"ha":864,"x_min":0,"x_max":0,"o":"m 103 986 l 103 0 l 800 0 l 800 178 l 314 178 l 314 407 l 772 407 l 772 582 l 314 582 l 314 808 l 789 808 l 789 986 z m 246 1108 l 649 1108 l 649 1244 l 246 1244 z "},"Ę":{"ha":864,"x_min":0,"x_max":0,"o":"m 103 986 l 103 0 l 693 0 l 650 -44 b 589 -181 606 -86 589 -129 b 714 -304 589 -247 646 -300 b 850 -264 758 -307 810 -296 l 850 -153 b 767 -185 822 -169 793 -185 b 721 -137 739 -185 721 -164 b 767 -47 721 -110 743 -75 l 801 0 l 800 0 l 800 178 l 314 178 l 314 407 l 772 407 l 772 582 l 314 582 l 314 808 l 789 808 l 789 986 z "},"Ẽ":{"ha":864,"x_min":0,"x_max":0,"o":"m 103 986 l 103 0 l 800 0 l 800 178 l 314 178 l 314 407 l 772 407 l 772 582 l 314 582 l 314 808 l 789 808 l 789 986 z m 203 1092 l 324 1092 b 368 1174 324 1147 338 1174 b 429 1135 393 1174 406 1157 b 536 1090 456 1107 489 1090 b 689 1296 631 1090 689 1168 l 568 1296 b 525 1214 568 1240 556 1214 b 458 1257 497 1214 483 1232 b 357 1296 431 1285 399 1296 b 203 1092 261 1296 203 1219 z "},"Ə":{"ha":1049,"x_min":0,"x_max":0,"o":"m 774 560 l 57 560 l 58 483 b 515 -22 69 157 274 -22 b 992 493 776 -22 992 190 b 515 1008 992 807 785 1008 b 83 696 311 1008 144 888 l 307 683 b 518 831 347 779 426 831 b 774 560 658 831 764 719 z m 285 382 l 765 382 b 518 156 736 240 647 156 b 285 382 396 156 311 240 z "},"Ʒ":{"ha":893,"x_min":0,"x_max":0,"o":"m 64 338 l 64 121 b 429 -22 150 33 292 -22 b 829 294 671 -22 829 106 b 578 567 829 443 726 554 l 814 801 l 814 986 l 71 986 l 71 808 l 560 808 l 340 590 l 340 436 l 431 438 b 613 294 539 439 613 382 b 429 156 613 213 538 156 b 64 338 315 156 183 221 z "},"Ǯ":{"ha":893,"x_min":0,"x_max":0,"o":"m 64 338 l 64 121 b 429 -22 150 33 292 -22 b 829 294 671 -22 829 106 b 578 567 829 443 726 554 l 814 801 l 814 986 l 71 986 l 71 808 l 560 808 l 340 590 l 340 436 l 431 438 b 613 294 539 439 613 382 b 429 156 613 213 538 156 b 64 338 315 156 183 221 z m 213 1264 l 332 1097 l 558 1097 l 679 1264 l 531 1264 l 446 1146 l 361 1264 z "},"F":{"ha":839,"x_min":0,"x_max":0,"o":"m 103 986 l 103 0 l 314 0 l 314 394 l 758 394 l 758 569 l 314 569 l 314 808 l 783 808 l 783 986 z "},"G":{"ha":1022,"x_min":0,"x_max":0,"o":"m 958 0 l 958 514 l 526 514 l 526 358 l 744 358 b 528 156 728 238 656 156 b 274 492 356 156 274 300 b 528 831 274 685 354 831 b 736 653 639 831 710 765 l 956 663 b 532 1008 908 876 756 1008 b 57 492 240 1008 57 785 b 519 -22 57 199 240 -22 b 818 142 656 -22 768 42 l 829 0 z "},"Ğ":{"ha":1022,"x_min":0,"x_max":0,"o":"m 958 0 l 958 514 l 526 514 l 526 358 l 744 358 b 528 156 728 238 656 156 b 274 492 356 156 274 300 b 528 831 274 685 354 831 b 736 653 639 831 710 765 l 956 663 b 532 1008 908 876 756 1008 b 57 492 240 1008 57 785 b 519 -22 57 199 240 -22 b 818 142 656 -22 768 42 l 829 0 z m 314 1282 b 532 1090 314 1174 410 1090 b 750 1282 654 1090 750 1174 l 622 1282 b 532 1197 622 1233 583 1197 b 442 1282 481 1197 442 1233 z "},"Ǧ":{"ha":1022,"x_min":0,"x_max":0,"o":"m 958 0 l 958 514 l 526 514 l 526 358 l 744 358 b 528 156 728 238 656 156 b 274 492 356 156 274 300 b 528 831 274 685 354 831 b 736 653 639 831 710 765 l 956 663 b 532 1008 908 876 756 1008 b 57 492 240 1008 57 785 b 519 -22 57 199 240 -22 b 818 142 656 -22 768 42 l 829 0 z m 303 1264 l 422 1097 l 649 1097 l 769 1264 l 621 1264 l 536 1146 l 451 1264 z "},"Ĝ":{"ha":1022,"x_min":0,"x_max":0,"o":"m 958 0 l 958 514 l 526 514 l 526 358 l 744 358 b 528 156 728 238 656 156 b 274 492 356 156 274 300 b 528 831 274 685 354 831 b 736 653 639 831 710 765 l 956 663 b 532 1008 908 876 756 1008 b 57 492 240 1008 57 785 b 519 -22 57 199 240 -22 b 818 142 656 -22 768 42 l 829 0 z m 299 1096 l 447 1096 l 532 1214 l 617 1096 l 765 1096 l 644 1263 l 418 1263 z "},"Ģ":{"ha":1022,"x_min":0,"x_max":0,"o":"m 958 0 l 958 514 l 526 514 l 526 358 l 744 358 b 528 156 728 238 656 156 b 274 492 356 156 274 300 b 528 831 274 685 354 831 b 736 653 639 831 710 765 l 956 663 b 532 1008 908 876 756 1008 b 57 492 240 1008 57 785 b 519 -22 57 199 240 -22 b 818 142 656 -22 768 42 l 829 0 z m 381 -264 l 508 -264 l 635 -83 l 468 -83 z "},"Ġ":{"ha":1022,"x_min":0,"x_max":0,"o":"m 958 0 l 958 514 l 526 514 l 526 358 l 744 358 b 528 156 728 238 656 156 b 274 492 356 156 274 300 b 528 831 274 685 354 831 b 736 653 639 831 710 765 l 956 663 b 532 1008 908 876 756 1008 b 57 492 240 1008 57 785 b 519 -22 57 199 240 -22 b 818 142 656 -22 768 42 l 829 0 z m 424 1082 l 639 1082 l 639 1236 l 424 1236 z "},"Ḡ":{"ha":1022,"x_min":0,"x_max":0,"o":"m 958 0 l 958 514 l 526 514 l 526 358 l 744 358 b 528 156 728 238 656 156 b 274 492 356 156 274 300 b 528 831 274 685 354 831 b 736 653 639 831 710 765 l 956 663 b 532 1008 908 876 756 1008 b 57 492 240 1008 57 785 b 519 -22 57 199 240 -22 b 818 142 656 -22 768 42 l 829 0 z m 332 1107 l 735 1107 l 735 1243 l 332 1243 z "},"Ǥ":{"ha":1078,"x_min":0,"x_max":0,"o":"m 526 514 l 526 393 l 744 393 b 739 336 744 374 742 354 l 526 336 l 526 233 l 697 233 b 528 156 661 183 604 156 b 274 492 356 156 274 300 b 528 831 274 685 354 831 b 736 665 639 831 710 765 l 956 676 b 532 1008 907 879 756 1008 b 57 492 240 1008 57 785 b 532 -22 57 199 240 -22 b 925 233 700 -22 857 51 l 1029 233 l 1029 336 l 951 336 b 960 454 957 372 960 411 l 960 514 z "},"H":{"ha":996,"x_min":0,"x_max":0,"o":"m 103 0 l 314 0 l 314 407 l 682 407 l 682 0 l 893 0 l 893 986 l 682 986 l 682 585 l 314 585 l 314 986 l 103 986 z "},"Ħ":{"ha":1219,"x_min":0,"x_max":0,"o":"m 189 986 l 189 853 l 103 853 l 103 674 l 189 674 l 189 0 l 400 0 l 400 347 l 819 347 l 819 0 l 1032 0 l 1032 674 l 1117 674 l 1117 853 l 1032 853 l 1032 986 l 819 986 l 819 853 l 400 853 l 400 986 z m 400 526 l 400 674 l 819 674 l 819 526 z "},"Ĥ":{"ha":996,"x_min":0,"x_max":0,"o":"m 103 0 l 314 0 l 314 407 l 682 407 l 682 0 l 893 0 l 893 986 l 682 986 l 682 585 l 314 585 l 314 986 l 103 986 z m 264 1096 l 413 1096 l 497 1214 l 582 1096 l 731 1096 l 610 1263 l 383 1263 z "},"I":{"ha":417,"x_min":0,"x_max":0,"o":"m 103 986 l 103 0 l 314 0 l 314 986 z "},"Ĳ":{"ha":1208,"x_min":0,"x_max":0,"o":"m 103 986 l 103 0 l 314 0 l 314 986 z m 406 350 b 760 -22 407 131 553 -22 b 1126 354 979 -22 1126 128 l 1126 986 l 914 986 l 914 354 b 765 156 914 225 863 156 b 618 361 671 156 619 226 z "},"Í":{"ha":417,"x_min":0,"x_max":0,"o":"m 103 986 l 103 0 l 314 0 l 314 986 z m 142 1096 l 269 1096 l 396 1276 l 229 1276 z "},"Î":{"ha":417,"x_min":0,"x_max":0,"o":"m 103 986 l 103 0 l 314 0 l 314 986 z m -25 1096 l 124 1096 l 208 1214 l 293 1096 l 442 1096 l 321 1263 l 94 1263 z "},"Ï":{"ha":417,"x_min":0,"x_max":0,"o":"m 103 986 l 103 0 l 314 0 l 314 986 z m -44 1082 l 171 1082 l 171 1236 l -44 1236 z m 246 1082 l 461 1082 l 461 1236 l 246 1236 z "},"İ":{"ha":417,"x_min":0,"x_max":0,"o":"m 103 986 l 103 0 l 314 0 l 314 986 z m 101 1082 l 317 1082 l 317 1236 l 101 1236 z "},"Ì":{"ha":417,"x_min":0,"x_max":0,"o":"m 103 986 l 103 0 l 314 0 l 314 986 z m 18 1276 l 144 1096 l 276 1096 l 189 1276 z "},"Ī":{"ha":417,"x_min":0,"x_max":0,"o":"m 103 986 l 103 0 l 314 0 l 314 986 z m 7 1107 l 410 1107 l 410 1243 l 7 1243 z "},"Į":{"ha":417,"x_min":0,"x_max":0,"o":"m 103 986 l 103 0 l 207 0 l 164 -44 b 103 -181 119 -86 103 -129 b 228 -304 103 -247 160 -300 b 364 -264 272 -307 324 -296 l 364 -153 b 281 -185 336 -169 307 -185 b 235 -137 253 -185 235 -164 b 281 -47 235 -110 257 -75 l 315 0 l 314 0 l 314 986 z "},"Ĩ":{"ha":417,"x_min":0,"x_max":0,"o":"m 103 986 l 103 0 l 314 0 l 314 986 z m -35 1090 l 86 1090 b 131 1172 86 1146 100 1172 b 192 1133 156 1172 168 1156 b 299 1089 218 1106 251 1089 b 451 1294 393 1089 451 1167 l 331 1294 b 288 1213 331 1239 318 1213 b 221 1256 260 1213 246 1231 b 119 1294 193 1283 161 1294 b -35 1090 24 1294 -35 1218 z "},"J":{"ha":871,"x_min":0,"x_max":0,"o":"m 281 361 l 68 350 b 422 -22 69 131 215 -22 b 789 354 642 -22 789 128 l 789 986 l 576 986 l 576 354 b 428 156 576 225 525 156 b 281 361 333 156 282 226 z "},"Ĵ":{"ha":871,"x_min":0,"x_max":0,"o":"m 281 361 l 68 350 b 422 -22 69 131 215 -22 b 789 354 642 -22 789 128 l 789 986 l 576 986 l 576 354 b 428 156 576 225 525 156 b 281 361 333 156 282 226 z m 450 1096 l 599 1096 l 683 1214 l 768 1096 l 917 1096 l 796 1263 l 569 1263 z "},"K":{"ha":979,"x_min":0,"x_max":0,"o":"m 103 986 l 103 0 l 314 0 l 314 290 l 417 410 l 700 0 l 940 0 l 556 551 l 918 986 l 672 986 l 314 556 l 314 986 z "},"Ǩ":{"ha":979,"x_min":0,"x_max":0,"o":"m 103 986 l 103 0 l 314 0 l 314 290 l 417 410 l 700 0 l 940 0 l 556 551 l 918 986 l 672 986 l 314 556 l 314 986 z m 250 1264 l 369 1097 l 596 1097 l 717 1264 l 568 1264 l 483 1146 l 399 1264 z "},"Ķ":{"ha":979,"x_min":0,"x_max":0,"o":"m 103 986 l 103 0 l 314 0 l 314 290 l 417 410 l 700 0 l 940 0 l 556 551 l 918 986 l 672 986 l 314 556 l 314 986 z m 344 -264 l 472 -264 l 599 -83 l 432 -83 z "},"L":{"ha":818,"x_min":0,"x_max":0,"o":"m 103 0 l 768 0 l 768 178 l 314 178 l 314 986 l 103 986 z "},"Ĺ":{"ha":818,"x_min":0,"x_max":0,"o":"m 103 0 l 768 0 l 768 178 l 314 178 l 314 986 l 103 986 z m 142 1096 l 269 1096 l 396 1276 l 229 1276 z "},"Ľ":{"ha":818,"x_min":0,"x_max":0,"o":"m 103 0 l 768 0 l 768 178 l 314 178 l 314 986 l 103 986 z m 413 781 l 490 781 l 428 561 l 540 561 l 635 781 l 635 986 l 413 986 z "},"Ļ":{"ha":818,"x_min":0,"x_max":0,"o":"m 103 0 l 768 0 l 768 178 l 314 178 l 314 986 l 103 986 z m 283 -264 l 411 -264 l 538 -83 l 371 -83 z "},"Ł":{"ha":875,"x_min":0,"x_max":0,"o":"m 6 504 l 64 378 l 161 422 l 161 0 l 826 0 l 826 178 l 372 178 l 372 521 l 561 608 l 501 735 l 372 675 l 372 986 l 161 986 l 161 576 z "},"M":{"ha":1271,"x_min":0,"x_max":0,"o":"m 103 986 l 103 0 l 314 0 l 314 644 l 544 3 l 725 3 l 956 644 l 956 0 l 1168 0 l 1168 986 l 885 986 l 636 268 l 385 986 z "},"N":{"ha":1039,"x_min":0,"x_max":0,"o":"m 103 986 l 103 0 l 314 0 l 314 653 l 696 0 l 936 0 l 936 986 l 725 986 l 725 311 l 335 986 z "},"Ń":{"ha":1039,"x_min":0,"x_max":0,"o":"m 103 986 l 103 0 l 314 0 l 314 653 l 696 0 l 936 0 l 936 986 l 725 986 l 725 311 l 335 986 z m 453 1096 l 581 1096 l 707 1276 l 540 1276 z "},"Ň":{"ha":1039,"x_min":0,"x_max":0,"o":"m 103 986 l 103 0 l 314 0 l 314 653 l 696 0 l 936 0 l 936 986 l 725 986 l 725 311 l 335 986 z m 290 1264 l 410 1097 l 636 1097 l 757 1264 l 608 1264 l 524 1146 l 439 1264 z "},"Ņ":{"ha":1039,"x_min":0,"x_max":0,"o":"m 103 986 l 103 0 l 314 0 l 314 653 l 696 0 l 936 0 l 936 986 l 725 986 l 725 311 l 335 986 z m 365 -264 l 493 -264 l 619 -83 l 453 -83 z "},"Ñ":{"ha":1039,"x_min":0,"x_max":0,"o":"m 103 986 l 103 0 l 314 0 l 314 653 l 696 0 l 936 0 l 936 986 l 725 986 l 725 311 l 335 986 z m 276 1090 l 397 1090 b 442 1172 397 1146 411 1172 b 503 1133 467 1172 479 1156 b 610 1089 529 1106 563 1089 b 763 1294 704 1089 763 1167 l 642 1294 b 599 1213 642 1239 629 1213 b 532 1256 571 1213 557 1231 b 431 1294 504 1283 472 1294 b 276 1090 335 1294 276 1218 z "},"Ŋ":{"ha":1039,"x_min":0,"x_max":0,"o":"m 103 986 l 103 0 l 314 0 l 314 653 l 726 0 l 726 -7 b 644 -78 726 -53 699 -78 l 532 -78 l 532 -226 l 701 -226 b 936 -6 844 -226 936 -140 l 936 986 l 725 986 l 725 356 l 333 986 z "},"O":{"ha":1072,"x_min":0,"x_max":0,"o":"m 536 -22 b 1017 492 836 -22 1017 175 b 536 1008 1017 811 836 1008 b 57 492 236 1008 57 811 b 536 -22 57 175 236 -22 z m 275 492 b 536 831 275 704 372 831 b 799 492 703 831 799 704 b 536 156 799 281 703 156 b 275 492 372 156 275 281 z "},"Ó":{"ha":1072,"x_min":0,"x_max":0,"o":"m 536 -22 b 1017 492 836 -22 1017 175 b 536 1008 1017 811 836 1008 b 57 492 236 1008 57 811 b 536 -22 57 175 236 -22 z m 275 492 b 536 831 275 704 372 831 b 799 492 703 831 799 704 b 536 156 799 281 703 156 b 275 492 372 156 275 281 z m 469 1096 l 597 1096 l 724 1276 l 557 1276 z "},"Ô":{"ha":1072,"x_min":0,"x_max":0,"o":"m 536 -22 b 1017 492 836 -22 1017 175 b 536 1008 1017 811 836 1008 b 57 492 236 1008 57 811 b 536 -22 57 175 236 -22 z m 275 492 b 536 831 275 704 372 831 b 799 492 703 831 799 704 b 536 156 799 281 703 156 b 275 492 372 156 275 281 z m 303 1096 l 451 1096 l 536 1214 l 621 1096 l 769 1096 l 649 1263 l 422 1263 z "},"Ö":{"ha":1072,"x_min":0,"x_max":0,"o":"m 536 -22 b 1017 492 836 -22 1017 175 b 536 1008 1017 811 836 1008 b 57 492 236 1008 57 811 b 536 -22 57 175 236 -22 z m 275 492 b 536 831 275 704 372 831 b 799 492 703 831 799 704 b 536 156 799 281 703 156 b 275 492 372 156 275 281 z m 283 1082 l 499 1082 l 499 1236 l 283 1236 z m 575 1082 l 790 1082 l 790 1236 l 575 1236 z "},"Ò":{"ha":1072,"x_min":0,"x_max":0,"o":"m 536 -22 b 1017 492 836 -22 1017 175 b 536 1008 1017 811 836 1008 b 57 492 236 1008 57 811 b 536 -22 57 175 236 -22 z m 275 492 b 536 831 275 704 372 831 b 799 492 703 831 799 704 b 536 156 799 281 703 156 b 275 492 372 156 275 281 z m 346 1276 l 472 1096 l 604 1096 l 517 1276 z "},"Ő":{"ha":1072,"x_min":0,"x_max":0,"o":"m 536 -22 b 1017 492 836 -22 1017 175 b 536 1008 1017 811 836 1008 b 57 492 236 1008 57 811 b 536 -22 57 175 236 -22 z m 275 492 b 536 831 275 704 372 831 b 799 492 703 831 799 704 b 536 156 799 281 703 156 b 275 492 372 156 275 281 z m 379 1096 l 507 1096 l 633 1276 l 467 1276 z m 586 1096 l 714 1096 l 840 1276 l 674 1276 z "},"Ō":{"ha":1072,"x_min":0,"x_max":0,"o":"m 536 -22 b 1017 492 836 -22 1017 175 b 536 1008 1017 811 836 1008 b 57 492 236 1008 57 811 b 536 -22 57 175 236 -22 z m 275 492 b 536 831 275 704 372 831 b 799 492 703 831 799 704 b 536 156 799 281 703 156 b 275 492 372 156 275 281 z m 336 1107 l 739 1107 l 739 1243 l 336 1243 z "},"Ø":{"ha":1075,"x_min":0,"x_max":0,"o":"m 539 -22 b 1019 492 839 -22 1019 175 b 890 872 1019 653 974 782 l 992 1008 l 838 1008 l 792 949 b 539 1008 722 988 636 1008 b 60 492 239 1008 60 811 b 178 126 60 339 101 214 l 67 -22 l 222 -22 l 272 46 b 539 -22 346 1 435 -22 z m 278 492 b 539 831 278 704 375 831 b 676 793 592 831 639 818 l 311 306 b 278 492 289 356 278 418 z m 390 201 l 760 697 b 801 492 788 643 801 574 b 539 156 801 281 706 156 b 390 201 481 156 431 172 z "},"Õ":{"ha":1072,"x_min":0,"x_max":0,"o":"m 536 -22 b 1017 492 836 -22 1017 175 b 536 1008 1017 811 836 1008 b 57 492 236 1008 57 811 b 536 -22 57 175 236 -22 z m 275 492 b 536 831 275 704 372 831 b 799 492 703 831 799 704 b 536 156 799 281 703 156 b 275 492 372 156 275 281 z m 293 1090 l 414 1090 b 458 1172 414 1146 428 1172 b 519 1133 483 1172 496 1156 b 626 1089 546 1106 579 1089 b 779 1294 721 1089 779 1167 l 658 1294 b 615 1213 658 1239 646 1213 b 549 1256 588 1213 574 1231 b 447 1294 521 1283 489 1294 b 293 1090 351 1294 293 1218 z "},"Œ":{"ha":1546,"x_min":0,"x_max":0,"o":"m 532 -22 b 824 89 653 -22 753 19 l 824 0 l 1482 0 l 1482 178 l 1036 178 l 1036 407 l 1454 407 l 1454 582 l 1036 582 l 1036 808 l 1471 808 l 1471 986 l 824 986 l 824 897 b 532 1008 753 967 653 1008 b 57 492 240 1008 57 785 b 532 -22 57 199 240 -22 z m 274 492 b 532 831 274 672 353 831 b 790 492 711 831 790 672 b 532 156 790 313 711 156 b 274 492 354 156 274 313 z "},"P":{"ha":932,"x_min":0,"x_max":0,"o":"m 497 986 l 103 986 l 103 0 l 314 0 l 314 340 l 497 340 b 876 664 733 340 876 464 b 497 986 876 864 733 986 z m 314 518 l 314 808 l 485 808 b 660 664 596 808 660 760 b 485 518 660 568 596 518 z "},"Þ":{"ha":890,"x_min":0,"x_max":0,"o":"m 314 0 l 314 206 l 467 206 b 833 510 700 206 833 318 b 467 810 833 700 700 810 l 314 810 l 314 986 l 103 986 l 103 0 z m 314 385 l 314 631 l 461 631 b 617 510 565 631 617 590 b 461 385 617 426 565 385 z "},"Q":{"ha":1064,"x_min":0,"x_max":0,"o":"m 532 -22 b 717 11 600 -22 663 -10 l 794 -86 l 958 -86 l 829 76 b 1008 492 943 168 1008 318 b 532 1008 1008 785 824 1008 b 57 492 240 1008 57 785 b 532 -22 57 199 240 -22 z m 274 492 b 532 831 274 672 353 831 b 790 492 711 831 790 672 b 701 233 790 388 761 293 l 622 333 l 460 333 l 594 164 b 532 156 575 158 554 156 b 274 492 354 156 274 313 z "},"R":{"ha":968,"x_min":0,"x_max":0,"o":"m 535 986 l 103 986 l 103 0 l 314 0 l 314 361 l 499 361 b 667 247 614 361 660 333 l 686 0 l 899 0 l 874 283 b 710 453 865 390 815 440 b 889 690 817 481 889 565 b 535 986 889 881 739 986 z m 314 538 l 314 808 l 504 808 b 672 672 614 808 672 760 b 504 538 672 586 613 538 z "},"Ŕ":{"ha":968,"x_min":0,"x_max":0,"o":"m 535 986 l 103 986 l 103 0 l 314 0 l 314 361 l 499 361 b 667 247 614 361 660 333 l 686 0 l 899 0 l 874 283 b 710 453 865 390 815 440 b 889 690 817 481 889 565 b 535 986 889 881 739 986 z m 314 538 l 314 808 l 504 808 b 672 672 614 808 672 760 b 504 538 672 586 613 538 z m 411 1096 l 539 1096 l 665 1276 l 499 1276 z "},"Ř":{"ha":968,"x_min":0,"x_max":0,"o":"m 535 986 l 103 986 l 103 0 l 314 0 l 314 361 l 499 361 b 667 247 614 361 660 333 l 686 0 l 899 0 l 874 283 b 710 453 865 390 815 440 b 889 690 817 481 889 565 b 535 986 889 881 739 986 z m 249 1264 l 368 1097 l 594 1097 l 715 1264 l 567 1264 l 482 1146 l 397 1264 z m 314 538 l 314 808 l 504 808 b 672 672 614 808 672 760 b 504 538 672 586 613 538 z "},"Ŗ":{"ha":968,"x_min":0,"x_max":0,"o":"m 535 986 l 103 986 l 103 0 l 314 0 l 314 361 l 499 361 b 667 247 614 361 660 333 l 686 0 l 899 0 l 874 283 b 710 453 865 390 815 440 b 889 690 817 481 889 565 b 535 986 889 881 739 986 z m 314 538 l 314 808 l 504 808 b 672 672 614 808 672 760 b 504 538 672 586 613 538 z m 349 -264 l 476 -264 l 603 -83 l 436 -83 z "},"S":{"ha":943,"x_min":0,"x_max":0,"o":"m 283 335 l 71 325 b 494 -17 85 117 254 -17 b 872 276 707 -17 872 89 b 511 576 872 433 732 528 b 306 714 406 603 308 631 b 458 833 301 786 367 833 b 646 664 563 833 635 768 l 857 675 b 464 1008 833 874 683 1008 b 89 717 239 1008 89 896 b 440 421 89 558 226 472 b 657 269 594 383 656 342 b 500 160 658 197 594 160 b 283 335 376 160 301 229 z "},"Ś":{"ha":943,"x_min":0,"x_max":0,"o":"m 283 335 l 71 325 b 494 -17 85 117 254 -17 b 872 276 707 -17 872 89 b 511 576 872 433 732 528 b 306 714 406 603 308 631 b 458 833 301 786 367 833 b 646 664 563 833 635 768 l 857 675 b 464 1008 833 874 683 1008 b 89 717 239 1008 89 896 b 440 421 89 558 226 472 b 657 269 594 383 656 342 b 500 160 658 197 594 160 b 283 335 376 160 301 229 z m 415 1096 l 543 1096 l 669 1276 l 503 1276 z "},"Ꞌ":{"ha":271,"x_min":0,"x_max":0,"o":"m 57 986 l 57 786 l 76 507 l 196 507 l 214 786 l 214 986 z "},"Š":{"ha":943,"x_min":0,"x_max":0,"o":"m 283 335 l 71 325 b 494 -17 85 117 254 -17 b 872 276 707 -17 872 89 b 511 576 872 433 732 528 b 306 714 406 603 308 631 b 458 833 301 786 367 833 b 646 664 563 833 635 768 l 857 675 b 464 1008 833 874 683 1008 b 89 717 239 1008 89 896 b 440 421 89 558 226 472 b 657 269 594 383 656 342 b 500 160 658 197 594 160 b 283 335 376 160 301 229 z m 253 1264 l 372 1097 l 599 1097 l 719 1264 l 571 1264 l 486 1146 l 401 1264 z "},"Ş":{"ha":943,"x_min":0,"x_max":0,"o":"m 283 335 l 71 325 b 426 -12 83 138 222 10 l 382 -61 l 428 -124 b 519 -164 474 -108 519 -124 b 467 -214 519 -193 499 -214 b 369 -146 419 -214 390 -171 l 288 -222 b 475 -326 346 -290 403 -326 b 629 -182 556 -326 629 -264 b 494 -44 629 -104 568 -44 l 521 -17 b 872 276 721 -8 872 97 b 511 576 872 433 732 528 b 306 714 406 603 308 631 b 458 833 301 786 367 833 b 646 664 563 833 635 768 l 857 675 b 464 1008 833 874 683 1008 b 89 717 239 1008 89 896 b 440 421 89 558 226 472 b 657 269 594 383 656 342 b 500 160 658 197 594 160 b 283 335 376 160 301 229 z "},"Ŝ":{"ha":943,"x_min":0,"x_max":0,"o":"m 283 335 l 71 325 b 494 -17 85 117 254 -17 b 872 276 707 -17 872 89 b 511 576 872 433 732 528 b 306 714 406 603 308 631 b 458 833 301 786 367 833 b 646 664 563 833 635 768 l 857 675 b 464 1008 833 874 683 1008 b 89 717 239 1008 89 896 b 440 421 89 558 226 472 b 657 269 594 383 656 342 b 500 160 658 197 594 160 b 283 335 376 160 301 229 z m 250 1096 l 399 1096 l 483 1214 l 568 1096 l 717 1096 l 596 1263 l 369 1263 z "},"Ș":{"ha":943,"x_min":0,"x_max":0,"o":"m 283 335 l 71 325 b 494 -17 85 117 254 -17 b 872 276 707 -17 872 89 b 511 576 872 433 732 528 b 306 714 406 603 308 631 b 458 833 301 786 367 833 b 646 664 563 833 635 768 l 857 675 b 464 1008 833 874 683 1008 b 89 717 239 1008 89 896 b 440 421 89 558 226 472 b 657 269 594 383 656 342 b 500 160 658 197 594 160 b 283 335 376 160 301 229 z m 332 -264 l 460 -264 l 586 -83 l 419 -83 z "},"ẞ":{"ha":1029,"x_min":0,"x_max":0,"o":"m 575 178 l 407 178 l 407 0 l 575 0 b 960 307 822 0 960 115 b 661 585 960 454 843 560 l 911 807 l 911 986 l 465 986 b 103 649 232 986 103 865 l 103 0 l 314 0 l 314 649 b 465 808 314 754 367 808 l 647 808 l 421 607 l 421 440 l 557 442 b 744 308 675 443 744 394 b 575 178 744 228 682 178 z "},"T":{"ha":878,"x_min":0,"x_max":0,"o":"m 840 986 l 38 986 l 38 808 l 333 808 l 333 0 l 546 0 l 546 808 l 840 808 z "},"Ŧ":{"ha":878,"x_min":0,"x_max":0,"o":"m 840 986 l 38 986 l 38 808 l 333 808 l 333 511 l 163 511 l 163 396 l 333 396 l 333 0 l 546 0 l 546 396 l 717 396 l 717 511 l 546 511 l 546 808 l 840 808 z "},"Ť":{"ha":878,"x_min":0,"x_max":0,"o":"m 840 986 l 38 986 l 38 808 l 333 808 l 333 0 l 546 0 l 546 808 l 840 808 z m 208 1264 l 328 1097 l 554 1097 l 675 1264 l 526 1264 l 442 1146 l 357 1264 z "},"Ţ":{"ha":878,"x_min":0,"x_max":0,"o":"m 840 986 l 38 986 l 38 808 l 333 808 l 333 0 l 394 0 l 338 -61 l 383 -124 b 475 -164 429 -108 475 -124 b 422 -214 475 -193 454 -214 b 325 -146 375 -214 346 -171 l 243 -222 b 431 -326 301 -290 358 -326 b 585 -182 511 -326 585 -264 b 450 -44 585 -104 524 -44 l 492 0 l 546 0 l 546 808 l 840 808 z "},"Ț":{"ha":878,"x_min":0,"x_max":0,"o":"m 840 986 l 38 986 l 38 808 l 333 808 l 333 0 l 546 0 l 546 808 l 840 808 z m 288 -264 l 415 -264 l 542 -83 l 375 -83 z "},"U":{"ha":976,"x_min":0,"x_max":0,"o":"m 894 356 l 894 988 l 683 988 l 683 356 b 489 156 683 225 611 156 b 293 356 365 156 293 225 l 293 988 l 82 988 l 82 356 b 489 -22 82 125 239 -22 b 894 356 738 -22 894 125 z "},"Ú":{"ha":976,"x_min":0,"x_max":0,"o":"m 894 356 l 894 988 l 683 988 l 683 356 b 489 156 683 225 611 156 b 293 356 365 156 293 225 l 293 988 l 82 988 l 82 356 b 489 -22 82 125 239 -22 b 894 356 738 -22 894 125 z m 421 1096 l 549 1096 l 675 1276 l 508 1276 z "},"Ŭ":{"ha":976,"x_min":0,"x_max":0,"o":"m 894 356 l 894 988 l 683 988 l 683 356 b 489 156 683 225 611 156 b 293 356 365 156 293 225 l 293 988 l 82 988 l 82 356 b 489 -22 82 125 239 -22 b 894 356 738 -22 894 125 z m 269 1282 b 488 1090 269 1174 365 1090 b 706 1282 610 1090 706 1174 l 578 1282 b 488 1197 578 1233 539 1197 b 397 1282 436 1197 397 1233 z "},"Û":{"ha":976,"x_min":0,"x_max":0,"o":"m 894 356 l 894 988 l 683 988 l 683 356 b 489 156 683 225 611 156 b 293 356 365 156 293 225 l 293 988 l 82 988 l 82 356 b 489 -22 82 125 239 -22 b 894 356 738 -22 894 125 z m 254 1096 l 403 1096 l 488 1214 l 572 1096 l 721 1096 l 600 1263 l 374 1263 z "},"Ü":{"ha":976,"x_min":0,"x_max":0,"o":"m 894 356 l 894 988 l 683 988 l 683 356 b 489 156 683 225 611 156 b 293 356 365 156 293 225 l 293 988 l 82 988 l 82 356 b 489 -22 82 125 239 -22 b 894 356 738 -22 894 125 z m 236 1082 l 451 1082 l 451 1236 l 236 1236 z m 526 1082 l 742 1082 l 742 1236 l 526 1236 z "},"Ù":{"ha":976,"x_min":0,"x_max":0,"o":"m 894 356 l 894 988 l 683 988 l 683 356 b 489 156 683 225 611 156 b 293 356 365 156 293 225 l 293 988 l 82 988 l 82 356 b 489 -22 82 125 239 -22 b 894 356 738 -22 894 125 z m 297 1276 l 424 1096 l 556 1096 l 468 1276 z "},"Ű":{"ha":976,"x_min":0,"x_max":0,"o":"m 894 356 l 894 988 l 683 988 l 683 356 b 489 156 683 225 611 156 b 293 356 365 156 293 225 l 293 988 l 82 988 l 82 356 b 489 -22 82 125 239 -22 b 894 356 738 -22 894 125 z m 331 1096 l 458 1096 l 585 1276 l 418 1276 z m 538 1096 l 665 1096 l 792 1276 l 625 1276 z "},"Ū":{"ha":976,"x_min":0,"x_max":0,"o":"m 894 356 l 894 988 l 683 988 l 683 356 b 489 156 683 225 611 156 b 293 356 365 156 293 225 l 293 988 l 82 988 l 82 356 b 489 -22 82 125 239 -22 b 894 356 738 -22 894 125 z m 288 1107 l 690 1107 l 690 1243 l 288 1243 z "},"Ų":{"ha":976,"x_min":0,"x_max":0,"o":"m 894 356 l 894 988 l 683 988 l 683 356 b 489 156 683 225 611 156 b 293 356 365 156 293 225 l 293 988 l 82 988 l 82 356 b 489 -22 82 125 239 -22 l 504 -22 l 482 -44 b 421 -181 438 -86 421 -129 b 546 -304 421 -247 478 -300 b 682 -264 590 -307 642 -296 l 682 -153 b 599 -185 654 -169 625 -185 b 553 -137 571 -185 553 -164 b 599 -47 553 -110 575 -75 l 631 -4 b 894 356 796 42 894 172 z "},"Ů":{"ha":976,"x_min":0,"x_max":0,"o":"m 894 356 l 894 988 l 683 988 l 683 356 b 489 156 683 225 611 156 b 293 356 365 156 293 225 l 293 988 l 82 988 l 82 356 b 489 -22 82 125 239 -22 b 894 356 738 -22 894 125 z m 346 1199 b 488 1058 346 1119 410 1058 b 629 1199 565 1058 629 1119 b 488 1342 629 1276 565 1342 b 346 1199 410 1342 346 1276 z m 439 1200 b 488 1247 439 1225 460 1247 b 536 1200 514 1247 536 1225 b 488 1151 536 1175 514 1151 b 439 1200 460 1151 439 1175 z "},"Ũ":{"ha":976,"x_min":0,"x_max":0,"o":"m 894 356 l 894 988 l 683 988 l 683 356 b 489 156 683 225 611 156 b 293 356 365 156 293 225 l 293 988 l 82 988 l 82 356 b 489 -22 82 125 239 -22 b 894 356 738 -22 894 125 z m 244 1090 l 365 1090 b 410 1172 365 1146 379 1172 b 471 1133 435 1172 447 1156 b 578 1089 497 1106 531 1089 b 731 1294 672 1089 731 1167 l 610 1294 b 567 1213 610 1239 597 1213 b 500 1256 539 1213 525 1231 b 399 1294 472 1283 440 1294 b 244 1090 303 1294 244 1218 z "},"V":{"ha":1029,"x_min":0,"x_max":0,"o":"m 35 986 l 392 0 l 638 0 l 994 986 l 775 986 l 515 239 l 253 986 z "},"W":{"ha":1376,"x_min":0,"x_max":0,"o":"m 35 986 l 301 0 l 526 0 l 688 618 l 849 0 l 1075 0 l 1342 986 l 1121 986 l 951 292 l 781 986 l 594 986 l 424 292 l 254 986 z "},"Ẃ":{"ha":1376,"x_min":0,"x_max":0,"o":"m 35 986 l 301 0 l 526 0 l 688 618 l 849 0 l 1075 0 l 1342 986 l 1121 986 l 951 292 l 781 986 l 594 986 l 424 292 l 254 986 z m 621 1096 l 749 1096 l 875 1276 l 708 1276 z "},"Ŵ":{"ha":1376,"x_min":0,"x_max":0,"o":"m 35 986 l 301 0 l 526 0 l 688 618 l 849 0 l 1075 0 l 1342 986 l 1121 986 l 951 292 l 781 986 l 594 986 l 424 292 l 254 986 z m 454 1096 l 603 1096 l 688 1214 l 772 1096 l 921 1096 l 800 1263 l 574 1263 z "},"Ẅ":{"ha":1376,"x_min":0,"x_max":0,"o":"m 35 986 l 301 0 l 526 0 l 688 618 l 849 0 l 1075 0 l 1342 986 l 1121 986 l 951 292 l 781 986 l 594 986 l 424 292 l 254 986 z m 435 1082 l 650 1082 l 650 1236 l 435 1236 z m 726 1082 l 942 1082 l 942 1236 l 726 1236 z "},"Ẁ":{"ha":1376,"x_min":0,"x_max":0,"o":"m 35 986 l 301 0 l 526 0 l 688 618 l 849 0 l 1075 0 l 1342 986 l 1121 986 l 951 292 l 781 986 l 594 986 l 424 292 l 254 986 z m 497 1276 l 624 1096 l 756 1096 l 668 1276 z "},"X":{"ha":1000,"x_min":0,"x_max":0,"o":"m 715 986 l 501 656 l 285 986 l 42 986 l 376 496 l 39 0 l 282 0 l 500 338 l 717 0 l 960 0 l 622 496 l 957 986 z "},"Y":{"ha":965,"x_min":0,"x_max":0,"o":"m 35 986 l 376 383 l 376 0 l 589 0 l 589 383 l 931 986 l 699 986 l 483 585 l 267 986 z "},"Ý":{"ha":965,"x_min":0,"x_max":0,"o":"m 35 986 l 376 383 l 376 0 l 589 0 l 589 383 l 931 986 l 699 986 l 483 585 l 267 986 z m 417 1096 l 544 1096 l 671 1276 l 504 1276 z "},"Ŷ":{"ha":965,"x_min":0,"x_max":0,"o":"m 35 986 l 376 383 l 376 0 l 589 0 l 589 383 l 931 986 l 699 986 l 483 585 l 267 986 z m 250 1096 l 399 1096 l 483 1214 l 568 1096 l 717 1096 l 596 1263 l 369 1263 z "},"Ÿ":{"ha":965,"x_min":0,"x_max":0,"o":"m 35 986 l 376 383 l 376 0 l 589 0 l 589 383 l 931 986 l 699 986 l 483 585 l 267 986 z m 231 1082 l 446 1082 l 446 1236 l 231 1236 z m 522 1082 l 738 1082 l 738 1236 l 522 1236 z "},"Ỳ":{"ha":965,"x_min":0,"x_max":0,"o":"m 35 986 l 376 383 l 376 0 l 589 0 l 589 383 l 931 986 l 699 986 l 483 585 l 267 986 z m 293 1276 l 419 1096 l 551 1096 l 464 1276 z "},"Ỹ":{"ha":965,"x_min":0,"x_max":0,"o":"m 35 986 l 376 383 l 376 0 l 589 0 l 589 383 l 931 986 l 699 986 l 483 585 l 267 986 z m 240 1090 l 361 1090 b 406 1172 361 1146 375 1172 b 467 1133 431 1172 443 1156 b 574 1089 493 1106 526 1089 b 726 1294 668 1089 726 1167 l 606 1294 b 563 1213 606 1239 593 1213 b 496 1256 535 1213 521 1231 b 394 1294 468 1283 436 1294 b 240 1090 299 1294 240 1218 z "},"Z":{"ha":829,"x_min":0,"x_max":0,"o":"m 778 825 l 778 986 l 68 986 l 68 808 l 517 808 l 39 176 l 39 0 l 789 0 l 789 178 l 286 178 z "},"Ź":{"ha":829,"x_min":0,"x_max":0,"o":"m 778 825 l 778 986 l 68 986 l 68 808 l 517 808 l 39 176 l 39 0 l 789 0 l 789 178 l 286 178 z m 358 1096 l 486 1096 l 613 1276 l 446 1276 z "},"Ž":{"ha":829,"x_min":0,"x_max":0,"o":"m 778 825 l 778 986 l 68 986 l 68 808 l 517 808 l 39 176 l 39 0 l 789 0 l 789 178 l 286 178 z m 196 1264 l 315 1097 l 542 1097 l 663 1264 l 514 1264 l 429 1146 l 344 1264 z "},"Ż":{"ha":829,"x_min":0,"x_max":0,"o":"m 778 825 l 778 986 l 68 986 l 68 808 l 517 808 l 39 176 l 39 0 l 789 0 l 789 178 l 286 178 z m 318 1082 l 533 1082 l 533 1236 l 318 1236 z "},"a":{"ha":860,"x_min":0,"x_max":0,"o":"m 67 508 l 275 499 b 407 617 292 576 336 617 b 536 458 494 617 535 565 l 333 417 b 54 194 156 382 54 331 b 318 -17 54 64 168 -17 b 572 113 453 -17 535 36 b 783 -1 592 -17 735 -3 l 819 0 l 819 142 l 793 142 b 747 201 767 142 747 153 l 747 433 b 408 753 747 643 632 753 b 67 508 215 753 94 665 z m 268 201 b 418 307 268 276 331 290 l 539 329 l 539 319 b 383 118 539 186 474 119 b 268 201 307 118 268 154 z "},"á":{"ha":860,"x_min":0,"x_max":0,"o":"m 67 508 l 275 499 b 407 617 292 576 336 617 b 536 458 494 617 535 565 l 333 417 b 54 194 156 382 54 331 b 318 -17 54 64 168 -17 b 572 113 453 -17 535 36 b 783 -1 592 -17 735 -3 l 819 0 l 819 142 l 793 142 b 747 201 767 142 747 153 l 747 433 b 408 753 747 643 632 753 b 67 508 215 753 94 665 z m 268 201 b 418 307 268 276 331 290 l 539 329 l 539 319 b 383 118 539 186 474 119 b 268 201 307 118 268 154 z m 349 846 l 476 846 l 603 1026 l 436 1026 z "},"ă":{"ha":860,"x_min":0,"x_max":0,"o":"m 67 508 l 275 499 b 407 617 292 576 336 617 b 536 458 494 617 535 565 l 333 417 b 54 194 156 382 54 331 b 318 -17 54 64 168 -17 b 572 113 453 -17 535 36 b 783 -1 592 -17 735 -3 l 819 0 l 819 142 l 793 142 b 747 201 767 142 747 153 l 747 433 b 408 753 747 643 632 753 b 67 508 215 753 94 665 z m 197 1032 b 415 840 197 924 293 840 b 633 1032 538 840 633 924 l 506 1032 b 415 947 506 983 467 947 b 325 1032 364 947 325 983 z m 268 201 b 418 307 268 276 331 290 l 539 329 l 539 319 b 383 118 539 186 474 119 b 268 201 307 118 268 154 z "},"ǎ":{"ha":860,"x_min":0,"x_max":0,"o":"m 67 508 l 275 499 b 407 617 292 576 336 617 b 536 458 494 617 535 565 l 333 417 b 54 194 156 382 54 331 b 318 -17 54 64 168 -17 b 572 113 453 -17 535 36 b 783 -1 592 -17 735 -3 l 819 0 l 819 142 l 793 142 b 747 201 767 142 747 153 l 747 433 b 408 753 747 643 632 753 b 67 508 215 753 94 665 z m 186 1014 l 306 847 l 532 847 l 653 1014 l 504 1014 l 419 896 l 335 1014 z m 268 201 b 418 307 268 276 331 290 l 539 329 l 539 319 b 383 118 539 186 474 119 b 268 201 307 118 268 154 z "},"â":{"ha":860,"x_min":0,"x_max":0,"o":"m 67 508 l 275 499 b 407 617 292 576 336 617 b 536 458 494 617 535 565 l 333 417 b 54 194 156 382 54 331 b 318 -17 54 64 168 -17 b 572 113 453 -17 535 36 b 783 -1 592 -17 735 -3 l 819 0 l 819 142 l 793 142 b 747 201 767 142 747 153 l 747 433 b 408 753 747 643 632 753 b 67 508 215 753 94 665 z m 182 846 l 331 846 l 415 964 l 500 846 l 649 846 l 528 1013 l 301 1013 z m 268 201 b 418 307 268 276 331 290 l 539 329 l 539 319 b 383 118 539 186 474 119 b 268 201 307 118 268 154 z "},"ä":{"ha":860,"x_min":0,"x_max":0,"o":"m 67 508 l 275 499 b 407 617 292 576 336 617 b 536 458 494 617 535 565 l 333 417 b 54 194 156 382 54 331 b 318 -17 54 64 168 -17 b 572 113 453 -17 535 36 b 783 -1 592 -17 735 -3 l 819 0 l 819 142 l 793 142 b 747 201 767 142 747 153 l 747 433 b 408 753 747 643 632 753 b 67 508 215 753 94 665 z m 163 832 l 378 832 l 378 986 l 163 986 z m 268 201 b 418 307 268 276 331 290 l 539 329 l 539 319 b 383 118 539 186 474 119 b 268 201 307 118 268 154 z m 454 832 l 669 832 l 669 986 l 454 986 z "},"à":{"ha":860,"x_min":0,"x_max":0,"o":"m 67 508 l 275 499 b 407 617 292 576 336 617 b 536 458 494 617 535 565 l 333 417 b 54 194 156 382 54 331 b 318 -17 54 64 168 -17 b 572 113 453 -17 535 36 b 783 -1 592 -17 735 -3 l 819 0 l 819 142 l 793 142 b 747 201 767 142 747 153 l 747 433 b 408 753 747 643 632 753 b 67 508 215 753 94 665 z m 225 1026 l 351 846 l 483 846 l 396 1026 z m 268 201 b 418 307 268 276 331 290 l 539 329 l 539 319 b 383 118 539 186 474 119 b 268 201 307 118 268 154 z "},"ā":{"ha":860,"x_min":0,"x_max":0,"o":"m 67 508 l 275 499 b 407 617 292 576 336 617 b 536 458 494 617 535 565 l 333 417 b 54 194 156 382 54 331 b 318 -17 54 64 168 -17 b 572 113 453 -17 535 36 b 783 -1 592 -17 735 -3 l 819 0 l 819 142 l 793 142 b 747 201 767 142 747 153 l 747 433 b 408 753 747 643 632 753 b 67 508 215 753 94 665 z m 214 857 l 617 857 l 617 993 l 214 993 z m 268 201 b 418 307 268 276 331 290 l 539 329 l 539 319 b 383 118 539 186 474 119 b 268 201 307 118 268 154 z "},"ą":{"ha":860,"x_min":0,"x_max":0,"o":"m 67 508 l 275 499 b 407 617 292 576 336 617 b 536 458 494 617 535 565 l 333 417 b 54 194 156 382 54 331 b 318 -17 54 64 168 -17 b 572 113 453 -17 535 36 b 708 -1 585 28 651 4 l 669 -42 b 608 -178 625 -83 608 -126 b 733 -301 608 -244 665 -297 b 869 -261 778 -304 829 -293 l 869 -150 b 786 -182 842 -167 813 -182 b 740 -135 758 -182 740 -161 b 786 -44 740 -107 763 -72 l 819 0 l 819 1 l 821 3 l 819 3 l 819 142 l 793 142 b 747 201 767 142 747 153 l 747 433 b 408 753 747 643 632 753 b 67 508 215 753 94 665 z m 268 201 b 418 307 268 276 331 290 l 539 329 l 539 319 b 383 118 539 186 474 119 b 268 201 307 118 268 154 z "},"å":{"ha":860,"x_min":0,"x_max":0,"o":"m 67 508 l 275 499 b 407 617 292 576 336 617 b 536 458 494 617 535 565 l 333 417 b 54 194 156 382 54 331 b 318 -17 54 64 168 -17 b 572 113 453 -17 535 36 b 783 -1 592 -17 735 -3 l 819 0 l 819 142 l 793 142 b 747 201 767 142 747 153 l 747 433 b 408 753 747 643 632 753 b 67 508 215 753 94 665 z m 268 201 b 418 307 268 276 331 290 l 539 329 l 539 319 b 383 118 539 186 474 119 b 268 201 307 118 268 154 z m 272 949 b 414 808 272 869 336 808 b 556 949 492 808 556 869 b 414 1092 556 1026 492 1092 b 272 949 336 1092 272 1026 z m 365 950 b 414 997 365 975 386 997 b 463 950 440 997 463 975 b 414 901 463 925 440 901 b 365 950 386 901 365 925 z "},"ã":{"ha":860,"x_min":0,"x_max":0,"o":"m 67 508 l 275 499 b 407 617 292 576 336 617 b 536 458 494 617 535 565 l 333 417 b 54 194 156 382 54 331 b 318 -17 54 64 168 -17 b 572 113 453 -17 535 36 b 783 -1 592 -17 735 -3 l 819 0 l 819 142 l 793 142 b 747 201 767 142 747 153 l 747 433 b 408 753 747 643 632 753 b 67 508 215 753 94 665 z m 171 840 l 292 840 b 336 922 292 896 306 922 b 397 883 361 922 374 906 b 504 839 424 856 457 839 b 657 1044 599 839 657 917 l 536 1044 b 493 963 536 989 524 963 b 426 1006 465 963 451 981 b 325 1044 399 1033 367 1044 b 171 840 229 1044 171 968 z m 268 201 b 418 307 268 276 331 290 l 539 329 l 539 319 b 383 118 539 186 474 119 b 268 201 307 118 268 154 z "},"æ":{"ha":1342,"x_min":0,"x_max":0,"o":"m 67 508 l 278 499 b 407 617 290 572 338 617 b 536 457 489 617 535 569 l 315 414 b 54 194 154 382 54 332 b 325 -18 54 65 181 -17 b 613 139 467 -17 565 35 b 928 -17 678 40 788 -17 b 1278 215 1096 -17 1233 72 l 1067 229 b 928 138 1043 174 988 138 b 768 314 833 138 774 204 l 1288 314 l 1288 353 b 928 753 1289 611 1132 753 b 671 664 824 753 735 721 b 408 753 613 724 524 753 b 67 508 217 753 94 664 z m 268 197 b 417 304 268 278 331 288 l 540 328 l 540 282 b 386 108 539 172 472 111 b 268 197 306 106 268 151 z m 769 440 b 928 599 781 539 839 599 b 1076 440 1001 599 1065 551 z "},"b":{"ha":883,"x_min":0,"x_max":0,"o":"m 92 986 l 92 0 l 290 0 l 294 107 b 518 -17 336 29 419 -17 b 829 368 710 -17 829 132 b 518 753 829 604 710 753 b 300 633 425 753 343 708 l 300 986 z m 288 368 b 453 597 288 508 351 597 b 615 368 551 597 615 508 b 453 142 615 231 549 142 b 288 368 351 142 288 231 z "},"c":{"ha":835,"x_min":0,"x_max":0,"o":"m 576 454 l 790 464 b 432 753 771 643 622 753 b 54 368 203 753 54 600 b 432 -17 54 136 203 -17 b 796 281 628 -17 776 97 l 581 289 b 432 143 568 193 510 143 b 268 368 328 143 268 225 b 432 593 268 511 328 593 b 576 454 506 593 564 543 z "},"ć":{"ha":836,"x_min":0,"x_max":0,"o":"m 576 454 l 790 464 b 432 753 771 643 622 753 b 54 368 203 753 54 600 b 432 -17 54 136 203 -17 b 796 281 628 -17 776 97 l 581 289 b 432 143 568 193 510 143 b 268 368 328 143 268 225 b 432 593 268 511 328 593 b 576 454 506 593 564 543 z m 364 846 l 492 846 l 618 1026 l 451 1026 z "},"č":{"ha":836,"x_min":0,"x_max":0,"o":"m 576 454 l 790 464 b 432 753 771 643 622 753 b 54 368 203 753 54 600 b 432 -17 54 136 203 -17 b 796 281 628 -17 776 97 l 581 289 b 432 143 568 193 510 143 b 268 368 328 143 268 225 b 432 593 268 511 328 593 b 576 454 506 593 564 543 z m 201 1014 l 321 847 l 547 847 l 668 1014 l 519 1014 l 435 896 l 350 1014 z "},"ç":{"ha":836,"x_min":0,"x_max":0,"o":"m 576 454 l 790 464 b 432 753 771 643 622 753 b 54 368 203 753 54 600 b 375 -14 54 156 178 10 l 331 -61 l 376 -124 b 468 -164 422 -108 468 -124 b 415 -214 468 -193 447 -214 b 318 -146 368 -214 339 -171 l 236 -222 b 424 -326 294 -290 351 -326 b 578 -182 504 -326 578 -264 b 443 -44 578 -104 517 -44 l 471 -15 b 796 281 647 -1 778 110 l 581 289 b 432 143 568 193 510 143 b 268 368 328 143 268 225 b 432 593 268 511 328 593 b 576 454 506 593 564 543 z "},"ĉ":{"ha":836,"x_min":0,"x_max":0,"o":"m 576 454 l 790 464 b 432 753 771 643 622 753 b 54 368 203 753 54 600 b 432 -17 54 136 203 -17 b 796 281 628 -17 776 97 l 581 289 b 432 143 568 193 510 143 b 268 368 328 143 268 225 b 432 593 268 511 328 593 b 576 454 506 593 564 543 z m 199 846 l 347 846 l 432 964 l 517 846 l 665 846 l 544 1013 l 318 1013 z "},"ċ":{"ha":836,"x_min":0,"x_max":0,"o":"m 576 454 l 790 464 b 432 753 771 643 622 753 b 54 368 203 753 54 600 b 432 -17 54 136 203 -17 b 796 281 628 -17 776 97 l 581 289 b 432 143 568 193 510 143 b 268 368 328 143 268 225 b 432 593 268 511 328 593 b 576 454 506 593 564 543 z m 324 832 l 539 832 l 539 986 l 324 986 z "},"d":{"ha":883,"x_min":0,"x_max":0,"o":"m 792 986 l 583 986 l 583 633 b 365 753 540 708 458 753 b 54 368 174 753 54 604 b 365 -17 54 132 174 -17 b 589 107 464 -17 547 29 l 593 0 l 792 0 z m 268 368 b 431 597 268 508 332 597 b 596 368 532 597 596 508 b 431 142 596 231 532 142 b 268 368 335 142 268 231 z "},"ð":{"ha":858,"x_min":0,"x_max":0,"o":"m 436 658 b 56 346 225 676 74 553 b 394 -17 38 146 181 -7 b 657 75 504 -22 579 6 b 696 856 804 211 879 610 l 779 890 l 742 982 l 622 933 b 310 1053 546 996 444 1040 l 253 903 b 429 854 318 896 378 879 l 303 801 l 340 708 l 526 786 b 642 519 599 718 639 626 b 436 658 606 597 528 650 z m 269 336 b 435 500 278 440 346 507 b 582 361 511 493 572 443 b 400 140 575 225 499 132 b 269 336 313 150 260 222 z "},"ď":{"ha":1133,"x_min":0,"x_max":0,"o":"m 792 986 l 583 986 l 583 633 b 365 753 540 708 458 753 b 54 368 174 753 54 604 b 365 -17 54 132 174 -17 b 589 107 464 -17 547 29 l 593 0 l 792 0 z m 268 368 b 431 597 268 508 332 597 b 596 368 532 597 596 508 b 431 142 596 231 532 142 b 268 368 335 142 268 231 z m 858 781 l 936 781 l 874 561 l 986 561 l 1081 781 l 1081 986 l 858 986 z "},"đ":{"ha":960,"x_min":0,"x_max":0,"o":"m 792 986 l 583 986 l 583 915 l 436 915 l 436 799 l 583 799 l 583 633 b 365 753 540 708 458 753 b 54 368 174 753 54 604 b 365 -17 54 132 174 -17 b 589 107 464 -17 547 29 l 593 0 l 792 0 l 792 799 l 883 799 l 883 915 l 792 915 z m 268 368 b 431 597 268 508 332 597 b 596 368 532 597 596 508 b 431 142 596 231 532 142 b 268 368 335 142 268 231 z "},"e":{"ha":846,"x_min":0,"x_max":0,"o":"m 54 368 b 432 -17 54 136 203 -17 b 782 215 600 -17 738 72 l 571 229 b 432 138 547 174 492 138 b 272 314 338 138 278 204 l 792 314 l 792 353 b 432 753 793 611 636 753 b 54 368 203 753 54 600 z m 274 440 b 432 599 285 539 343 599 b 581 440 506 599 569 551 z "},"é":{"ha":847,"x_min":0,"x_max":0,"o":"m 54 368 b 432 -17 54 136 203 -17 b 782 215 600 -17 738 72 l 571 229 b 432 138 547 174 492 138 b 272 314 338 138 278 204 l 792 314 l 792 353 b 432 753 793 611 636 753 b 54 368 203 753 54 600 z m 274 440 b 432 599 285 539 343 599 b 581 440 506 599 569 551 z m 364 844 l 492 844 l 618 1025 l 451 1025 z "},"ě":{"ha":847,"x_min":0,"x_max":0,"o":"m 54 368 b 432 -17 54 136 203 -17 b 782 215 600 -17 738 72 l 571 229 b 432 138 547 174 492 138 b 272 314 338 138 278 204 l 792 314 l 792 353 b 432 753 793 611 636 753 b 54 368 203 753 54 600 z m 201 1013 l 321 846 l 547 846 l 668 1013 l 519 1013 l 435 894 l 350 1013 z m 274 440 b 432 599 285 539 343 599 b 581 440 506 599 569 551 z "},"ê":{"ha":847,"x_min":0,"x_max":0,"o":"m 54 368 b 432 -17 54 136 203 -17 b 782 215 600 -17 738 72 l 571 229 b 432 138 547 174 492 138 b 272 314 338 138 278 204 l 792 314 l 792 353 b 432 753 793 611 636 753 b 54 368 203 753 54 600 z m 199 844 l 347 844 l 432 963 l 517 844 l 665 844 l 544 1011 l 318 1011 z m 274 440 b 432 599 285 539 343 599 b 581 440 506 599 569 551 z "},"ë":{"ha":847,"x_min":0,"x_max":0,"o":"m 54 368 b 432 -17 54 136 203 -17 b 782 215 600 -17 738 72 l 571 229 b 432 138 547 174 492 138 b 272 314 338 138 278 204 l 792 314 l 792 353 b 432 753 793 611 636 753 b 54 368 203 753 54 600 z m 179 831 l 394 831 l 394 985 l 179 985 z m 274 440 b 432 599 285 539 343 599 b 581 440 506 599 569 551 z m 469 831 l 685 831 l 685 985 l 469 985 z "},"ė":{"ha":847,"x_min":0,"x_max":0,"o":"m 54 368 b 432 -17 54 136 203 -17 b 782 215 600 -17 738 72 l 571 229 b 432 138 547 174 492 138 b 272 314 338 138 278 204 l 792 314 l 792 353 b 432 753 793 611 636 753 b 54 368 203 753 54 600 z m 274 440 b 432 599 285 539 343 599 b 581 440 506 599 569 551 z m 324 831 l 539 831 l 539 985 l 324 985 z "},"è":{"ha":847,"x_min":0,"x_max":0,"o":"m 54 368 b 432 -17 54 136 203 -17 b 782 215 600 -17 738 72 l 571 229 b 432 138 547 174 492 138 b 272 314 338 138 278 204 l 792 314 l 792 353 b 432 753 793 611 636 753 b 54 368 203 753 54 600 z m 240 1025 l 367 844 l 499 844 l 411 1025 z m 274 440 b 432 599 285 539 343 599 b 581 440 506 599 569 551 z "},"ē":{"ha":847,"x_min":0,"x_max":0,"o":"m 54 368 b 432 -17 54 136 203 -17 b 782 215 600 -17 738 72 l 571 229 b 432 138 547 174 492 138 b 272 314 338 138 278 204 l 792 314 l 792 353 b 432 753 793 611 636 753 b 54 368 203 753 54 600 z m 231 856 l 633 856 l 633 992 l 231 992 z m 274 440 b 432 599 285 539 343 599 b 581 440 506 599 569 551 z "},"ę":{"ha":847,"x_min":0,"x_max":0,"o":"m 54 368 b 414 -17 54 143 194 -8 l 386 -44 b 325 -181 342 -86 325 -129 b 450 -304 325 -247 382 -300 b 586 -264 494 -307 546 -296 l 586 -153 b 503 -185 558 -169 529 -185 b 457 -137 475 -185 457 -164 b 503 -47 457 -110 479 -75 l 533 -6 b 782 215 654 24 747 103 l 571 229 b 432 138 547 174 492 138 b 272 314 338 138 278 204 l 792 314 l 792 353 b 432 753 793 611 636 753 b 54 368 203 753 54 600 z m 274 440 b 432 599 285 539 343 599 b 581 440 506 599 569 551 z "},"ẽ":{"ha":847,"x_min":0,"x_max":0,"o":"m 54 368 b 432 -17 54 136 203 -17 b 782 215 600 -17 738 72 l 571 229 b 432 138 547 174 492 138 b 272 314 338 138 278 204 l 792 314 l 792 353 b 432 753 793 611 636 753 b 54 368 203 753 54 600 z m 189 839 l 310 839 b 354 921 310 894 324 921 b 415 882 379 921 392 904 b 522 838 442 854 475 838 b 675 1043 617 838 675 915 l 554 1043 b 511 961 554 988 542 961 b 444 1004 483 961 469 979 b 343 1043 417 1032 385 1043 b 189 839 247 1043 189 967 z m 274 440 b 432 599 285 539 343 599 b 581 440 506 599 569 551 z "},"ə":{"ha":847,"x_min":0,"x_max":0,"o":"m 793 368 b 415 753 793 600 644 753 b 65 521 247 753 110 664 l 276 507 b 415 599 300 563 356 599 b 575 422 510 599 569 532 l 56 422 l 56 383 b 415 -17 54 125 211 -17 b 793 368 644 -17 793 136 z m 267 296 l 574 296 b 415 138 563 197 504 138 b 267 296 342 138 278 185 z "},"ʒ":{"ha":893,"x_min":0,"x_max":0,"o":"m 64 88 l 64 -129 b 429 -272 150 -217 292 -272 b 829 44 671 -272 829 -144 b 578 317 829 193 726 304 l 814 551 l 814 736 l 71 736 l 71 558 l 560 558 l 340 340 l 340 186 l 431 188 b 613 44 539 189 613 132 b 429 -94 613 -37 538 -94 b 64 88 315 -94 183 -29 z "},"ǯ":{"ha":893,"x_min":0,"x_max":0,"o":"m 64 88 l 64 -129 b 429 -272 150 -217 292 -272 b 829 44 671 -272 829 -144 b 578 317 829 193 726 304 l 814 551 l 814 736 l 71 736 l 71 558 l 560 558 l 340 340 l 340 186 l 431 188 b 613 44 539 189 613 132 b 429 -94 613 -37 538 -94 b 64 88 315 -94 183 -29 z m 213 1014 l 332 847 l 558 847 l 679 1014 l 531 1014 l 446 896 l 361 1014 z "},"f":{"ha":622,"x_min":0,"x_max":0,"o":"m 172 742 l 172 706 l 64 706 l 64 550 l 172 550 l 172 0 l 381 0 l 381 550 l 565 550 l 565 706 l 381 706 l 381 742 b 458 831 381 797 411 831 l 576 831 l 576 986 l 425 986 b 172 742 250 986 172 901 z "},"g":{"ha":882,"x_min":0,"x_max":0,"o":"m 372 33 b 582 147 464 33 546 79 l 582 68 b 426 -81 582 -32 525 -81 b 289 -1 358 -81 307 -50 l 76 -17 b 424 -224 118 -143 251 -224 b 792 89 640 -224 792 -107 l 792 736 l 586 736 l 586 622 b 372 753 547 704 467 753 b 54 385 181 753 54 604 b 372 33 54 175 182 33 z m 268 386 b 429 596 268 515 331 596 b 589 386 528 596 592 515 b 429 176 589 258 526 176 b 268 386 333 176 268 258 z "},"ğ":{"ha":882,"x_min":0,"x_max":0,"o":"m 372 33 b 582 147 464 33 546 79 l 582 68 b 426 -81 582 -32 525 -81 b 289 -1 358 -81 307 -50 l 76 -17 b 424 -224 118 -143 251 -224 b 792 89 640 -224 792 -107 l 792 736 l 586 736 l 586 622 b 372 753 547 704 467 753 b 54 385 181 753 54 604 b 372 33 54 175 182 33 z m 213 1032 b 431 840 213 924 308 840 b 649 1032 553 840 649 924 l 521 1032 b 431 947 521 983 482 947 b 340 1032 379 947 340 983 z m 268 386 b 429 596 268 515 331 596 b 589 386 528 596 592 515 b 429 176 589 258 526 176 b 268 386 333 176 268 258 z "},"ǧ":{"ha":882,"x_min":0,"x_max":0,"o":"m 372 33 b 582 147 464 33 546 79 l 582 68 b 426 -81 582 -32 525 -81 b 289 -1 358 -81 307 -50 l 76 -17 b 424 -224 118 -143 251 -224 b 792 89 640 -224 792 -107 l 792 736 l 586 736 l 586 622 b 372 753 547 704 467 753 b 54 385 181 753 54 604 b 372 33 54 175 182 33 z m 201 1014 l 321 847 l 547 847 l 668 1014 l 519 1014 l 435 896 l 350 1014 z m 268 386 b 429 596 268 515 331 596 b 589 386 528 596 592 515 b 429 176 589 258 526 176 b 268 386 333 176 268 258 z "},"ĝ":{"ha":882,"x_min":0,"x_max":0,"o":"m 372 33 b 582 147 464 33 546 79 l 582 68 b 426 -81 582 -32 525 -81 b 289 -1 358 -81 307 -50 l 76 -17 b 424 -224 118 -143 251 -224 b 792 89 640 -224 792 -107 l 792 736 l 586 736 l 586 622 b 372 753 547 704 467 753 b 54 385 181 753 54 604 b 372 33 54 175 182 33 z m 197 846 l 346 846 l 431 964 l 515 846 l 664 846 l 543 1013 l 317 1013 z m 268 386 b 429 596 268 515 331 596 b 589 386 528 596 592 515 b 429 176 589 258 526 176 b 268 386 333 176 268 258 z "},"ģ":{"ha":882,"x_min":0,"x_max":0,"o":"m 372 33 b 582 147 464 33 546 79 l 582 68 b 426 -81 582 -32 525 -81 b 289 -1 358 -81 307 -50 l 76 -17 b 424 -224 118 -143 251 -224 b 792 89 640 -224 792 -107 l 792 736 l 586 736 l 586 622 b 372 753 547 704 467 753 b 54 385 181 753 54 604 b 372 33 54 175 182 33 z m 268 386 b 429 596 268 515 331 596 b 589 386 528 596 592 515 b 429 176 589 258 526 176 b 268 386 333 176 268 258 z m 314 832 l 536 832 l 536 1038 l 458 1038 l 521 1257 l 408 1257 l 314 1038 z "},"ġ":{"ha":882,"x_min":0,"x_max":0,"o":"m 372 33 b 582 147 464 33 546 79 l 582 68 b 426 -81 582 -32 525 -81 b 289 -1 358 -81 307 -50 l 76 -17 b 424 -224 118 -143 251 -224 b 792 89 640 -224 792 -107 l 792 736 l 586 736 l 586 622 b 372 753 547 704 467 753 b 54 385 181 753 54 604 b 372 33 54 175 182 33 z m 268 386 b 429 596 268 515 331 596 b 589 386 528 596 592 515 b 429 176 589 258 526 176 b 268 386 333 176 268 258 z m 324 832 l 539 832 l 539 986 l 324 986 z "},"ḡ":{"ha":882,"x_min":0,"x_max":0,"o":"m 372 33 b 582 147 464 33 546 79 l 582 68 b 426 -81 582 -32 525 -81 b 289 -1 358 -81 307 -50 l 76 -17 b 424 -224 118 -143 251 -224 b 792 89 640 -224 792 -107 l 792 736 l 586 736 l 586 622 b 372 753 547 704 467 753 b 54 385 181 753 54 604 b 372 33 54 175 182 33 z m 231 857 l 633 857 l 633 993 l 231 993 z m 268 386 b 429 596 268 515 331 596 b 589 386 528 596 592 515 b 429 176 589 258 526 176 b 268 386 333 176 268 258 z "},"ǥ":{"ha":928,"x_min":0,"x_max":0,"o":"m 372 33 b 582 147 464 33 546 79 l 582 68 b 426 -81 582 -32 525 -81 b 289 -1 358 -81 307 -50 l 76 -17 b 424 -224 118 -143 251 -224 b 792 89 640 -224 792 -107 l 792 314 l 865 314 l 865 431 l 792 431 l 792 736 l 586 736 l 586 622 b 372 753 547 704 467 753 b 54 385 181 753 54 604 b 372 33 54 175 182 33 z m 268 386 b 429 596 268 515 331 596 b 588 431 515 596 576 533 l 388 431 l 388 314 l 582 314 b 429 176 563 228 507 176 b 268 386 333 176 268 258 z "},"h":{"ha":849,"x_min":0,"x_max":0,"o":"m 92 986 l 92 0 l 300 0 l 300 400 b 435 583 300 517 347 583 b 549 400 521 583 549 519 l 549 0 l 757 0 l 757 474 b 510 753 757 640 664 753 b 300 642 422 753 343 722 l 300 986 z "},"ħ":{"ha":890,"x_min":0,"x_max":0,"o":"m 149 986 l 149 915 l 64 915 l 64 799 l 149 799 l 149 0 l 357 0 l 357 400 b 492 583 357 517 404 583 b 606 400 578 583 606 519 l 606 0 l 814 0 l 814 474 b 567 753 814 640 721 753 b 357 642 479 753 400 722 l 357 799 l 510 799 l 510 915 l 357 915 l 357 986 z "},"ĥ":{"ha":849,"x_min":0,"x_max":0,"o":"m 92 986 l 92 0 l 300 0 l 300 400 b 435 583 300 517 347 583 b 549 400 521 583 549 519 l 549 0 l 757 0 l 757 474 b 510 753 757 640 664 753 b 300 642 422 753 343 722 l 300 986 z m -37 1096 l 111 1096 l 196 1214 l 281 1096 l 429 1096 l 308 1263 l 82 1263 z "},"i":{"ha":390,"x_min":0,"x_max":0,"o":"m 92 736 l 92 0 l 300 0 l 300 736 z m 88 832 l 303 832 l 303 986 l 88 986 z "},"ı":{"ha":390,"x_min":0,"x_max":0,"o":"m 92 736 l 92 0 l 300 0 l 300 736 z "},"í":{"ha":390,"x_min":0,"x_max":0,"o":"m 92 736 l 92 0 l 300 0 l 300 736 z m 128 846 l 256 846 l 382 1026 l 215 1026 z "},"î":{"ha":390,"x_min":0,"x_max":0,"o":"m 92 736 l 92 0 l 300 0 l 300 736 z m -37 846 l 111 846 l 196 964 l 281 846 l 429 846 l 308 1013 l 82 1013 z "},"ï":{"ha":390,"x_min":0,"x_max":0,"o":"m 92 736 l 92 0 l 300 0 l 300 736 z m -58 832 l 157 832 l 157 986 l -58 986 z m 233 832 l 449 832 l 449 986 l 233 986 z "},"ì":{"ha":390,"x_min":0,"x_max":0,"o":"m 92 736 l 92 0 l 300 0 l 300 736 z m 4 1026 l 131 846 l 263 846 l 175 1026 z "},"ĳ":{"ha":836,"x_min":0,"x_max":0,"o":"m 92 736 l 92 0 l 300 0 l 300 736 z m 88 832 l 303 832 l 303 986 l 88 986 z m 372 -208 l 499 -208 b 746 38 667 -208 746 -124 l 746 736 l 536 736 l 536 38 b 458 -53 536 -18 506 -53 l 372 -53 z m 533 832 l 749 832 l 749 986 l 533 986 z "},"ī":{"ha":390,"x_min":0,"x_max":0,"o":"m 92 736 l 92 0 l 300 0 l 300 736 z m -6 857 l 397 857 l 397 993 l -6 993 z "},"į":{"ha":390,"x_min":0,"x_max":0,"o":"m 92 736 l 92 0 l 192 0 l 149 -44 b 88 -181 104 -86 88 -129 b 213 -304 88 -247 144 -300 b 349 -264 257 -307 308 -296 l 349 -153 b 265 -185 321 -169 292 -185 b 219 -137 238 -185 219 -164 b 265 -47 219 -110 242 -75 l 300 0 l 300 736 z m 88 832 l 303 832 l 303 986 l 88 986 z "},"ĩ":{"ha":390,"x_min":0,"x_max":0,"o":"m 92 736 l 92 0 l 300 0 l 300 736 z m -47 840 l 74 840 b 118 922 74 896 88 922 b 179 883 143 922 156 906 b 286 839 206 856 239 839 b 439 1044 381 839 439 917 l 318 1044 b 275 963 318 989 306 963 b 208 1006 247 963 233 981 b 107 1044 181 1033 149 1044 b -47 840 11 1044 -47 968 z "},"j":{"ha":460,"x_min":0,"x_max":0,"o":"m 369 38 l 369 736 l 160 736 l 160 38 b 82 -53 160 -18 129 -53 l -4 -53 l -4 -208 l 122 -208 b 369 38 290 -208 369 -124 z m 157 832 l 372 832 l 372 986 l 157 986 z "},"ȷ":{"ha":460,"x_min":0,"x_max":0,"o":"m 369 38 l 369 736 l 160 736 l 160 38 b 82 -53 160 -18 129 -53 l -4 -53 l -4 -208 l 122 -208 b 369 38 290 -208 369 -124 z "},"ĵ":{"ha":460,"x_min":0,"x_max":0,"o":"m 369 38 l 369 736 l 160 736 l 160 38 b 82 -53 160 -18 129 -53 l -4 -53 l -4 -208 l 122 -208 b 369 38 290 -208 369 -124 z m 31 846 l 179 846 l 264 964 l 349 846 l 497 846 l 376 1013 l 150 1013 z "},"k":{"ha":899,"x_min":0,"x_max":0,"o":"m 92 986 l 92 0 l 300 0 l 300 207 l 401 317 l 608 0 l 835 0 l 533 435 l 822 736 l 574 736 l 300 438 l 300 986 z "},"ǩ":{"ha":899,"x_min":0,"x_max":0,"o":"m 92 986 l 92 0 l 300 0 l 300 207 l 401 317 l 608 0 l 835 0 l 533 435 l 822 736 l 574 736 l 300 438 l 300 986 z m -35 1264 l 85 1097 l 311 1097 l 432 1264 l 283 1264 l 199 1146 l 114 1264 z "},"ķ":{"ha":899,"x_min":0,"x_max":0,"o":"m 92 986 l 92 0 l 300 0 l 300 207 l 401 317 l 608 0 l 835 0 l 533 435 l 822 736 l 574 736 l 300 438 l 300 986 z m 290 -264 l 418 -264 l 544 -83 l 378 -83 z "},"l":{"ha":456,"x_min":0,"x_max":0,"o":"m 92 986 l 92 204 b 296 0 92 74 172 0 l 410 0 l 410 156 l 357 156 b 300 214 321 156 300 176 l 300 986 z "},"ĺ":{"ha":456,"x_min":0,"x_max":0,"o":"m 92 986 l 92 204 b 296 0 92 74 172 0 l 410 0 l 410 156 l 357 156 b 300 214 321 156 300 176 l 300 986 z m 128 1096 l 256 1096 l 382 1276 l 215 1276 z "},"ľ":{"ha":635,"x_min":0,"x_max":0,"o":"m 92 986 l 92 204 b 296 0 92 74 172 0 l 410 0 l 410 156 l 357 156 b 300 214 321 156 300 176 l 300 986 z m 365 781 l 443 781 l 381 561 l 493 561 l 588 781 l 588 986 l 365 986 z "},"ļ":{"ha":456,"x_min":0,"x_max":0,"o":"m 92 986 l 92 204 b 296 0 92 74 172 0 l 410 0 l 410 156 l 357 156 b 300 214 321 156 300 176 l 300 986 z m 104 -264 l 232 -264 l 358 -83 l 192 -83 z "},"ł":{"ha":579,"x_min":0,"x_max":0,"o":"m 188 986 l 188 563 l 92 529 l 132 421 l 188 440 l 188 204 b 392 0 188 74 268 0 l 506 0 l 506 156 l 453 156 b 396 214 417 156 396 176 l 396 514 l 533 563 l 494 671 l 396 636 l 396 986 z "},"m":{"ha":1250,"x_min":0,"x_max":0,"o":"m 92 736 l 92 0 l 300 0 l 300 404 b 428 588 300 524 343 588 b 532 404 499 588 532 526 l 532 0 l 717 0 l 717 404 b 846 588 717 524 760 588 b 950 404 915 588 950 526 l 950 0 l 1158 0 l 1158 474 b 914 753 1158 657 1063 753 b 699 601 813 753 736 701 b 489 753 665 697 592 753 b 283 619 394 753 321 704 l 279 736 z "},"n":{"ha":849,"x_min":0,"x_max":0,"o":"m 92 736 l 92 0 l 300 0 l 300 404 b 435 588 300 522 347 588 b 549 404 522 588 549 522 l 549 0 l 757 0 l 757 474 b 504 753 757 644 664 753 b 283 619 406 753 324 717 l 279 736 z "},"ń":{"ha":849,"x_min":0,"x_max":0,"o":"m 92 736 l 92 0 l 300 0 l 300 404 b 435 588 300 522 347 588 b 549 404 522 588 549 522 l 549 0 l 757 0 l 757 474 b 504 753 757 644 664 753 b 283 619 406 753 324 717 l 279 736 z m 357 846 l 485 846 l 611 1026 l 444 1026 z "},"ň":{"ha":849,"x_min":0,"x_max":0,"o":"m 92 736 l 92 0 l 300 0 l 300 404 b 435 588 300 522 347 588 b 549 404 522 588 549 522 l 549 0 l 757 0 l 757 474 b 504 753 757 644 664 753 b 283 619 406 753 324 717 l 279 736 z m 194 1014 l 314 847 l 540 847 l 661 1014 l 513 1014 l 428 896 l 343 1014 z "},"ņ":{"ha":849,"x_min":0,"x_max":0,"o":"m 92 736 l 92 0 l 300 0 l 300 404 b 435 588 300 522 347 588 b 549 404 522 588 549 522 l 549 0 l 757 0 l 757 474 b 504 753 757 644 664 753 b 283 619 406 753 324 717 l 279 736 z m 274 -264 l 401 -264 l 528 -83 l 361 -83 z "},"ñ":{"ha":849,"x_min":0,"x_max":0,"o":"m 92 736 l 92 0 l 300 0 l 300 404 b 435 588 300 522 347 588 b 549 404 522 588 549 522 l 549 0 l 757 0 l 757 474 b 504 753 757 644 664 753 b 283 619 406 753 324 717 l 279 736 z m 181 840 l 301 840 b 346 922 301 896 315 922 b 407 883 371 922 383 906 b 514 839 433 856 467 839 b 667 1044 608 839 667 917 l 546 1044 b 503 963 546 989 533 963 b 436 1006 475 963 461 981 b 335 1044 408 1033 376 1044 b 181 840 239 1044 181 968 z "},"ŋ":{"ha":849,"x_min":0,"x_max":0,"o":"m 92 736 l 92 0 l 300 0 l 300 404 b 435 588 300 522 347 588 b 549 404 522 588 549 522 l 549 -7 b 467 -86 549 -56 518 -86 l 383 -86 l 383 -226 l 522 -226 b 757 -6 667 -226 757 -140 l 757 474 b 504 753 757 644 664 753 b 283 619 406 753 324 717 l 279 736 z "},"o":{"ha":864,"x_min":0,"x_max":0,"o":"m 432 -17 b 810 368 660 -17 810 135 b 432 753 810 601 660 753 b 54 368 204 753 54 601 b 432 -17 54 135 204 -17 z m 268 368 b 432 593 268 511 328 593 b 594 368 536 593 594 511 b 432 143 594 225 536 143 b 268 368 328 143 268 225 z "},"ó":{"ha":864,"x_min":0,"x_max":0,"o":"m 432 -17 b 810 368 660 -17 810 135 b 432 753 810 601 660 753 b 54 368 204 753 54 601 b 432 -17 54 135 204 -17 z m 268 368 b 432 593 268 511 328 593 b 594 368 536 593 594 511 b 432 143 594 225 536 143 b 268 368 328 143 268 225 z m 364 846 l 492 846 l 618 1026 l 451 1026 z "},"ô":{"ha":864,"x_min":0,"x_max":0,"o":"m 432 -17 b 810 368 660 -17 810 135 b 432 753 810 601 660 753 b 54 368 204 753 54 601 b 432 -17 54 135 204 -17 z m 199 846 l 347 846 l 432 964 l 517 846 l 665 846 l 544 1013 l 318 1013 z m 268 368 b 432 593 268 511 328 593 b 594 368 536 593 594 511 b 432 143 594 225 536 143 b 268 368 328 143 268 225 z "},"ö":{"ha":864,"x_min":0,"x_max":0,"o":"m 432 -17 b 810 368 660 -17 810 135 b 432 753 810 601 660 753 b 54 368 204 753 54 601 b 432 -17 54 135 204 -17 z m 179 832 l 394 832 l 394 986 l 179 986 z m 268 368 b 432 593 268 511 328 593 b 594 368 536 593 594 511 b 432 143 594 225 536 143 b 268 368 328 143 268 225 z m 469 832 l 685 832 l 685 986 l 469 986 z "},"ò":{"ha":864,"x_min":0,"x_max":0,"o":"m 432 -17 b 810 368 660 -17 810 135 b 432 753 810 601 660 753 b 54 368 204 753 54 601 b 432 -17 54 135 204 -17 z m 240 1026 l 367 846 l 499 846 l 411 1026 z m 268 368 b 432 593 268 511 328 593 b 594 368 536 593 594 511 b 432 143 594 225 536 143 b 268 368 328 143 268 225 z "},"ő":{"ha":864,"x_min":0,"x_max":0,"o":"m 432 -17 b 810 368 660 -17 810 135 b 432 753 810 601 660 753 b 54 368 204 753 54 601 b 432 -17 54 135 204 -17 z m 268 368 b 432 593 268 511 328 593 b 594 368 536 593 594 511 b 432 143 594 225 536 143 b 268 368 328 143 268 225 z m 274 846 l 401 846 l 528 1026 l 361 1026 z m 481 846 l 608 846 l 735 1026 l 568 1026 z "},"ō":{"ha":864,"x_min":0,"x_max":0,"o":"m 432 -17 b 810 368 660 -17 810 135 b 432 753 810 601 660 753 b 54 368 204 753 54 601 b 432 -17 54 135 204 -17 z m 231 857 l 633 857 l 633 993 l 231 993 z m 268 368 b 432 593 268 511 328 593 b 594 368 536 593 594 511 b 432 143 594 225 536 143 b 268 368 328 143 268 225 z "},"ø":{"ha":842,"x_min":0,"x_max":0,"o":"m 432 -17 b 810 368 660 -17 810 135 b 715 638 810 479 776 571 l 808 753 l 665 753 l 628 707 b 432 753 572 736 507 753 b 54 368 204 753 54 601 b 143 104 54 261 86 171 l 44 -17 l 189 -17 l 229 33 b 432 -17 286 1 354 -17 z m 268 368 b 432 593 268 511 328 593 b 517 569 465 593 493 585 l 279 274 b 268 368 272 301 268 333 z m 340 172 l 582 471 b 594 368 590 442 594 407 b 432 143 594 225 536 143 b 340 172 396 143 365 153 z "},"õ":{"ha":864,"x_min":0,"x_max":0,"o":"m 432 -17 b 810 368 660 -17 810 135 b 432 753 810 601 660 753 b 54 368 204 753 54 601 b 432 -17 54 135 204 -17 z m 189 840 l 310 840 b 354 922 310 896 324 922 b 415 883 379 922 392 906 b 522 839 442 856 475 839 b 675 1044 617 839 675 917 l 554 1044 b 511 963 554 989 542 963 b 444 1006 483 963 469 981 b 343 1044 417 1033 385 1044 b 189 840 247 1044 189 968 z m 268 368 b 432 593 268 511 328 593 b 594 368 536 593 594 511 b 432 143 594 225 536 143 b 268 368 328 143 268 225 z "},"œ":{"ha":1397,"x_min":0,"x_max":0,"o":"m 432 -17 b 707 89 546 -17 640 21 b 982 -17 772 22 867 -17 b 1332 215 1150 -17 1288 72 l 1121 229 b 982 138 1097 174 1042 138 b 822 314 888 138 828 204 l 1342 314 l 1342 353 b 982 753 1343 611 1186 753 b 707 647 867 753 772 714 b 432 753 640 715 546 753 b 54 368 204 753 54 601 b 432 -17 54 135 204 -17 z m 268 368 b 432 593 268 511 328 593 b 594 368 536 593 594 511 b 432 143 594 225 536 143 b 268 368 328 143 268 225 z m 824 440 b 982 599 835 539 893 599 b 1131 440 1056 599 1119 551 z "},"p":{"ha":883,"x_min":0,"x_max":0,"o":"m 92 -208 l 300 -208 l 300 106 b 514 -17 343 26 418 -17 b 829 368 722 -17 829 151 b 514 753 829 585 722 753 b 294 626 413 753 335 708 l 290 736 l 92 736 z m 286 368 b 450 594 286 488 339 594 b 614 368 560 594 614 489 b 450 142 614 246 563 142 b 286 368 339 142 286 246 z "},"þ":{"ha":869,"x_min":0,"x_max":0,"o":"m 92 986 l 92 -208 l 303 -208 l 303 63 b 488 -17 343 13 406 -17 b 815 368 701 -17 815 151 b 488 753 815 585 701 753 b 303 674 399 753 338 724 l 303 986 z m 289 368 b 444 582 289 483 338 582 b 600 368 553 582 600 485 b 444 158 600 254 553 158 b 289 368 338 158 289 257 z "},"q":{"ha":883,"x_min":0,"x_max":0,"o":"m 792 -208 l 792 736 l 593 736 l 589 626 b 369 753 549 708 471 753 b 54 368 161 753 54 585 b 369 -17 54 151 161 -17 b 583 106 465 -17 540 26 l 583 -208 z m 269 368 b 433 594 269 489 324 594 b 597 368 544 594 597 488 b 433 142 597 246 544 142 b 269 368 321 142 269 246 z "},"r":{"ha":592,"x_min":0,"x_max":0,"o":"m 92 736 l 92 0 l 300 0 l 300 408 b 469 581 300 524 349 581 l 539 581 l 539 736 l 471 736 b 294 588 378 736 322 686 l 290 736 z "},"ŕ":{"ha":593,"x_min":0,"x_max":0,"o":"m 92 736 l 92 0 l 300 0 l 300 408 b 469 581 300 524 349 581 l 539 581 l 539 736 l 471 736 b 294 588 378 736 322 686 l 290 736 z m 254 846 l 382 846 l 508 1026 l 342 1026 z "},"ř":{"ha":593,"x_min":0,"x_max":0,"o":"m 92 736 l 92 0 l 300 0 l 300 408 b 469 581 300 524 349 581 l 539 581 l 539 736 l 471 736 b 294 588 378 736 322 686 l 290 736 z m 92 1014 l 211 847 l 438 847 l 558 1014 l 410 1014 l 325 896 l 240 1014 z "},"ŗ":{"ha":593,"x_min":0,"x_max":0,"o":"m 92 736 l 92 0 l 300 0 l 300 408 b 469 581 300 524 349 581 l 539 581 l 539 736 l 471 736 b 294 588 378 736 322 686 l 290 736 z m 44 -264 l 172 -264 l 299 -83 l 132 -83 z "},"s":{"ha":799,"x_min":0,"x_max":0,"o":"m 531 497 l 739 506 b 406 754 715 661 590 754 b 72 521 194 754 72 667 b 388 296 72 386 183 335 b 531 206 458 281 529 268 b 413 129 532 151 468 129 b 264 243 329 129 276 172 l 54 233 b 418 -17 65 76 203 -17 b 744 201 607 -17 744 54 b 422 431 744 340 639 397 b 286 521 351 443 289 467 b 397 608 283 575 333 608 b 531 497 460 608 519 567 z "},"ś":{"ha":801,"x_min":0,"x_max":0,"o":"m 531 497 l 739 506 b 406 754 715 661 590 754 b 72 521 194 754 72 667 b 388 296 72 386 183 335 b 531 206 458 281 529 268 b 413 129 532 151 468 129 b 264 243 329 129 276 172 l 54 233 b 418 -17 65 76 203 -17 b 744 201 607 -17 744 54 b 422 431 744 340 639 397 b 286 521 351 443 289 467 b 397 608 283 575 333 608 b 531 497 460 608 519 567 z m 338 846 l 465 846 l 592 1026 l 425 1026 z "},"ꞌ":{"ha":272,"x_min":0,"x_max":0,"o":"m 57 986 l 57 786 l 76 507 l 196 507 l 214 786 l 214 986 z "},"š":{"ha":801,"x_min":0,"x_max":0,"o":"m 531 497 l 739 506 b 406 754 715 661 590 754 b 72 521 194 754 72 667 b 388 296 72 386 183 335 b 531 206 458 281 529 268 b 413 129 532 151 468 129 b 264 243 329 129 276 172 l 54 233 b 418 -17 65 76 203 -17 b 744 201 607 -17 744 54 b 422 431 744 340 639 397 b 286 521 351 443 289 467 b 397 608 283 575 333 608 b 531 497 460 608 519 567 z m 175 1014 l 294 847 l 521 847 l 642 1014 l 493 1014 l 408 896 l 324 1014 z "},"ş":{"ha":801,"x_min":0,"x_max":0,"o":"m 531 497 l 739 506 b 406 754 715 661 590 754 b 72 521 194 754 72 667 b 388 296 72 386 183 335 b 531 206 458 281 529 268 b 413 129 532 151 468 129 b 264 243 329 129 276 172 l 54 233 b 351 -14 64 93 175 4 l 307 -61 l 353 -124 b 444 -164 399 -108 444 -124 b 392 -214 444 -193 424 -214 b 294 -146 344 -214 315 -171 l 213 -222 b 400 -326 271 -290 328 -326 b 554 -182 481 -326 554 -264 b 419 -44 554 -104 493 -44 l 446 -17 b 744 201 621 -10 744 61 b 422 431 744 340 639 397 b 286 521 351 443 289 467 b 397 608 283 575 333 608 b 531 497 460 608 519 567 z "},"ŝ":{"ha":801,"x_min":0,"x_max":0,"o":"m 531 497 l 739 506 b 406 754 715 661 590 754 b 72 521 194 754 72 667 b 388 296 72 386 183 335 b 531 206 458 281 529 268 b 413 129 532 151 468 129 b 264 243 329 129 276 172 l 54 233 b 418 -17 65 76 203 -17 b 744 201 607 -17 744 54 b 422 431 744 340 639 397 b 286 521 351 443 289 467 b 397 608 283 575 333 608 b 531 497 460 608 519 567 z m 172 846 l 321 846 l 406 964 l 490 846 l 639 846 l 518 1013 l 292 1013 z "},"ș":{"ha":801,"x_min":0,"x_max":0,"o":"m 531 497 l 739 506 b 406 754 715 661 590 754 b 72 521 194 754 72 667 b 388 296 72 386 183 335 b 531 206 458 281 529 268 b 413 129 532 151 468 129 b 264 243 329 129 276 172 l 54 233 b 418 -17 65 76 203 -17 b 744 201 607 -17 744 54 b 422 431 744 340 639 397 b 286 521 351 443 289 467 b 397 608 283 575 333 608 b 531 497 460 608 519 567 z m 256 -264 l 383 -264 l 510 -83 l 343 -83 z "},"ß":{"ha":914,"x_min":0,"x_max":0,"o":"m 476 175 b 653 300 572 175 653 215 b 468 431 653 392 575 432 l 401 429 l 401 600 l 457 599 b 594 724 543 596 594 651 b 463 828 594 782 538 828 b 300 643 365 828 300 763 l 300 0 l 92 0 l 92 643 b 463 1003 92 874 232 1003 b 806 733 665 1003 806 897 b 635 522 806 633 744 553 b 867 272 775 492 867 401 b 476 0 867 65 660 0 l 388 0 l 388 175 z "},"t":{"ha":621,"x_min":0,"x_max":0,"o":"m 176 904 l 176 736 l 57 736 l 57 582 l 176 582 l 176 240 b 422 0 176 81 260 0 l 579 0 l 579 156 l 467 156 b 386 240 414 156 386 186 l 386 582 l 578 582 l 578 736 l 386 736 l 386 904 z "},"ŧ":{"ha":621,"x_min":0,"x_max":0,"o":"m 176 904 l 176 736 l 57 736 l 57 582 l 176 582 l 176 440 l 57 440 l 57 324 l 176 324 l 176 240 b 422 0 176 81 260 0 l 579 0 l 579 156 l 467 156 b 386 240 414 156 386 186 l 386 324 l 578 324 l 578 440 l 386 440 l 386 582 l 578 582 l 578 736 l 386 736 l 386 904 z "},"ť":{"ha":664,"x_min":0,"x_max":0,"o":"m 176 904 l 176 736 l 57 736 l 57 582 l 176 582 l 176 240 b 422 0 176 81 260 0 l 579 0 l 579 156 l 467 156 b 386 240 414 156 386 186 l 386 582 l 578 582 l 578 736 l 386 736 l 386 904 z m 426 921 l 503 921 l 440 793 l 553 793 l 647 921 l 649 921 l 649 1126 l 426 1126 z "},"ţ":{"ha":621,"x_min":0,"x_max":0,"o":"m 176 904 l 176 736 l 57 736 l 57 582 l 176 582 l 176 240 b 322 13 176 117 226 42 l 254 -61 l 300 -124 b 392 -164 346 -108 392 -124 b 339 -214 392 -193 371 -214 b 242 -146 292 -214 263 -171 l 160 -222 b 347 -326 218 -290 275 -326 b 501 -182 428 -326 501 -264 b 367 -44 501 -104 440 -44 l 408 0 l 422 0 l 579 0 l 579 156 l 467 156 b 386 240 414 156 386 186 l 386 582 l 578 582 l 578 736 l 386 736 l 386 904 z "},"ț":{"ha":621,"x_min":0,"x_max":0,"o":"m 176 904 l 176 736 l 57 736 l 57 582 l 176 582 l 176 240 b 422 0 176 81 260 0 l 579 0 l 579 156 l 467 156 b 386 240 414 156 386 186 l 386 582 l 578 582 l 578 736 l 386 736 l 386 904 z m 204 -264 l 332 -264 l 458 -83 l 292 -83 z "},"u":{"ha":844,"x_min":0,"x_max":0,"o":"m 753 0 l 753 736 l 544 736 l 544 332 b 411 149 544 214 497 149 b 300 332 325 149 300 214 l 300 736 l 92 736 l 92 263 b 342 -17 92 92 185 -17 b 558 115 438 -17 518 19 l 563 0 z "},"ú":{"ha":844,"x_min":0,"x_max":0,"o":"m 753 0 l 753 736 l 544 736 l 544 332 b 411 149 544 214 497 149 b 300 332 325 149 300 214 l 300 736 l 92 736 l 92 263 b 342 -17 92 92 185 -17 b 558 115 438 -17 518 19 l 563 0 z m 351 846 l 479 846 l 606 1026 l 439 1026 z "},"ŭ":{"ha":844,"x_min":0,"x_max":0,"o":"m 753 0 l 753 736 l 544 736 l 544 332 b 411 149 544 214 497 149 b 300 332 325 149 300 214 l 300 736 l 92 736 l 92 263 b 342 -17 92 92 185 -17 b 558 115 438 -17 518 19 l 563 0 z m 200 1032 b 418 840 200 924 296 840 b 636 1032 540 840 636 924 l 508 1032 b 418 947 508 983 469 947 b 328 1032 367 947 328 983 z "},"û":{"ha":844,"x_min":0,"x_max":0,"o":"m 753 0 l 753 736 l 544 736 l 544 332 b 411 149 544 214 497 149 b 300 332 325 149 300 214 l 300 736 l 92 736 l 92 263 b 342 -17 92 92 185 -17 b 558 115 438 -17 518 19 l 563 0 z m 185 846 l 333 846 l 418 964 l 503 846 l 651 846 l 531 1013 l 304 1013 z "},"ü":{"ha":844,"x_min":0,"x_max":0,"o":"m 753 0 l 753 736 l 544 736 l 544 332 b 411 149 544 214 497 149 b 300 332 325 149 300 214 l 300 736 l 92 736 l 92 263 b 342 -17 92 92 185 -17 b 558 115 438 -17 518 19 l 563 0 z m 167 832 l 382 832 l 382 986 l 167 986 z m 457 832 l 672 832 l 672 986 l 457 986 z "},"ù":{"ha":844,"x_min":0,"x_max":0,"o":"m 753 0 l 753 736 l 544 736 l 544 332 b 411 149 544 214 497 149 b 300 332 325 149 300 214 l 300 736 l 92 736 l 92 263 b 342 -17 92 92 185 -17 b 558 115 438 -17 518 19 l 563 0 z m 229 1026 l 356 846 l 488 846 l 400 1026 z "},"ű":{"ha":844,"x_min":0,"x_max":0,"o":"m 753 0 l 753 736 l 544 736 l 544 332 b 411 149 544 214 497 149 b 300 332 325 149 300 214 l 300 736 l 92 736 l 92 263 b 342 -17 92 92 185 -17 b 558 115 438 -17 518 19 l 563 0 z m 261 846 l 389 846 l 515 1026 l 349 1026 z m 468 846 l 596 846 l 722 1026 l 556 1026 z "},"ū":{"ha":844,"x_min":0,"x_max":0,"o":"m 753 0 l 753 736 l 544 736 l 544 332 b 411 149 544 214 497 149 b 300 332 325 149 300 214 l 300 736 l 92 736 l 92 263 b 342 -17 92 92 185 -17 b 558 115 438 -17 518 19 l 563 0 z m 217 857 l 619 857 l 619 993 l 217 993 z "},"ų":{"ha":844,"x_min":0,"x_max":0,"o":"m 753 0 l 753 736 l 544 736 l 544 332 b 411 149 544 214 497 149 b 300 332 325 149 300 214 l 300 736 l 92 736 l 92 263 b 342 -17 92 92 185 -17 b 558 115 438 -17 518 19 l 563 0 l 646 0 l 603 -44 b 542 -181 558 -86 542 -129 b 667 -304 542 -247 599 -300 b 803 -264 711 -307 763 -296 l 803 -153 b 719 -185 775 -169 746 -185 b 674 -137 692 -185 674 -164 b 719 -47 674 -110 696 -75 l 754 0 z "},"ů":{"ha":844,"x_min":0,"x_max":0,"o":"m 753 0 l 753 736 l 544 736 l 544 332 b 411 149 544 214 497 149 b 300 332 325 149 300 214 l 300 736 l 92 736 l 92 263 b 342 -17 92 92 185 -17 b 558 115 438 -17 518 19 l 563 0 z m 276 949 b 418 808 276 869 340 808 b 560 949 496 808 560 869 b 418 1092 560 1026 496 1092 b 276 949 340 1092 276 1026 z m 369 950 b 418 997 369 975 390 997 b 467 950 444 997 467 975 b 418 901 467 925 444 901 b 369 950 390 901 369 925 z "},"ũ":{"ha":844,"x_min":0,"x_max":0,"o":"m 753 0 l 753 736 l 544 736 l 544 332 b 411 149 544 214 497 149 b 300 332 325 149 300 214 l 300 736 l 92 736 l 92 263 b 342 -17 92 92 185 -17 b 558 115 438 -17 518 19 l 563 0 z m 175 840 l 296 840 b 340 922 296 896 310 922 b 401 883 365 922 378 906 b 508 839 428 856 461 839 b 661 1044 603 839 661 917 l 540 1044 b 497 963 540 989 528 963 b 431 1006 469 963 456 981 b 329 1044 403 1033 371 1044 b 175 840 233 1044 175 968 z "},"v":{"ha":846,"x_min":0,"x_max":0,"o":"m 817 736 l 603 736 l 424 208 l 244 736 l 29 736 l 301 0 l 544 0 z "},"w":{"ha":1179,"x_min":0,"x_max":0,"o":"m 674 736 l 506 736 l 365 243 l 228 736 l 29 736 l 253 0 l 453 0 l 590 463 l 726 0 l 926 0 l 1151 736 l 953 736 l 815 243 z "},"ẃ":{"ha":1181,"x_min":0,"x_max":0,"o":"m 674 736 l 506 736 l 365 243 l 228 736 l 29 736 l 253 0 l 453 0 l 590 463 l 726 0 l 926 0 l 1151 736 l 953 736 l 815 243 z m 524 846 l 651 846 l 778 1026 l 611 1026 z "},"ŵ":{"ha":1181,"x_min":0,"x_max":0,"o":"m 674 736 l 506 736 l 365 243 l 228 736 l 29 736 l 253 0 l 453 0 l 590 463 l 726 0 l 926 0 l 1151 736 l 953 736 l 815 243 z m 358 846 l 507 846 l 592 964 l 676 846 l 825 846 l 704 1013 l 478 1013 z "},"ẅ":{"ha":1181,"x_min":0,"x_max":0,"o":"m 674 736 l 506 736 l 365 243 l 228 736 l 29 736 l 253 0 l 453 0 l 590 463 l 726 0 l 926 0 l 1151 736 l 953 736 l 815 243 z m 338 832 l 553 832 l 553 986 l 338 986 z m 629 832 l 844 832 l 844 986 l 629 986 z "},"ẁ":{"ha":1181,"x_min":0,"x_max":0,"o":"m 674 736 l 506 736 l 365 243 l 228 736 l 29 736 l 253 0 l 453 0 l 590 463 l 726 0 l 926 0 l 1151 736 l 953 736 l 815 243 z m 400 1026 l 526 846 l 658 846 l 571 1026 z "},"x":{"ha":904,"x_min":0,"x_max":0,"o":"m 603 738 l 453 508 l 301 738 l 74 738 l 332 375 l 64 0 l 293 0 l 453 240 l 611 0 l 840 0 l 574 374 l 832 738 z "},"y":{"ha":815,"x_min":0,"x_max":0,"o":"m 29 736 l 294 38 l 353 38 l 335 -7 b 253 -57 321 -43 297 -57 l 160 -57 l 160 -208 l 292 -208 b 497 -71 399 -208 463 -165 l 786 736 l 589 736 l 411 218 l 228 736 z "},"ý":{"ha":815,"x_min":0,"x_max":0,"o":"m 29 736 l 294 38 l 353 38 l 335 -7 b 253 -57 321 -43 297 -57 l 160 -57 l 160 -208 l 292 -208 b 497 -71 399 -208 463 -165 l 786 736 l 589 736 l 411 218 l 228 736 z m 342 846 l 469 846 l 596 1026 l 429 1026 z "},"ŷ":{"ha":815,"x_min":0,"x_max":0,"o":"m 29 736 l 294 38 l 353 38 l 335 -7 b 253 -57 321 -43 297 -57 l 160 -57 l 160 -208 l 292 -208 b 497 -71 399 -208 463 -165 l 786 736 l 589 736 l 411 218 l 228 736 z m 176 846 l 325 846 l 410 964 l 494 846 l 643 846 l 522 1013 l 296 1013 z "},"ÿ":{"ha":815,"x_min":0,"x_max":0,"o":"m 29 736 l 294 38 l 353 38 l 335 -7 b 253 -57 321 -43 297 -57 l 160 -57 l 160 -208 l 292 -208 b 497 -71 399 -208 463 -165 l 786 736 l 589 736 l 411 218 l 228 736 z m 157 832 l 372 832 l 372 986 l 157 986 z m 447 832 l 663 832 l 663 986 l 447 986 z "},"ỳ":{"ha":815,"x_min":0,"x_max":0,"o":"m 29 736 l 294 38 l 353 38 l 335 -7 b 253 -57 321 -43 297 -57 l 160 -57 l 160 -208 l 292 -208 b 497 -71 399 -208 463 -165 l 786 736 l 589 736 l 411 218 l 228 736 z m 218 1026 l 344 846 l 476 846 l 389 1026 z "},"ỹ":{"ha":815,"x_min":0,"x_max":0,"o":"m 29 736 l 294 38 l 353 38 l 335 -7 b 253 -57 321 -43 297 -57 l 160 -57 l 160 -208 l 292 -208 b 497 -71 399 -208 463 -165 l 786 736 l 589 736 l 411 218 l 228 736 z m 165 840 l 286 840 b 331 922 286 896 300 922 b 392 883 356 922 368 906 b 499 839 418 856 451 839 b 651 1044 593 839 651 917 l 531 1044 b 488 963 531 989 518 963 b 421 1006 460 963 446 981 b 319 1044 393 1033 361 1044 b 165 840 224 1044 165 968 z "},"z":{"ha":826,"x_min":0,"x_max":0,"o":"m 739 575 l 739 736 l 100 736 l 100 581 l 490 581 l 78 164 l 78 0 l 749 0 l 749 156 l 321 156 z "},"ź":{"ha":828,"x_min":0,"x_max":0,"o":"m 739 575 l 739 736 l 100 736 l 100 581 l 490 581 l 78 164 l 78 0 l 749 0 l 749 156 l 321 156 z m 350 846 l 478 846 l 604 1026 l 438 1026 z "},"ž":{"ha":828,"x_min":0,"x_max":0,"o":"m 739 575 l 739 736 l 100 736 l 100 581 l 490 581 l 78 164 l 78 0 l 749 0 l 749 156 l 321 156 z m 188 1014 l 307 847 l 533 847 l 654 1014 l 506 1014 l 421 896 l 336 1014 z "},"ż":{"ha":828,"x_min":0,"x_max":0,"o":"m 739 575 l 739 736 l 100 736 l 100 581 l 490 581 l 78 164 l 78 0 l 749 0 l 749 156 l 321 156 z m 310 832 l 525 832 l 525 986 l 310 986 z "},"ª":{"ha":860,"x_min":0,"x_max":0,"o":"m 67 508 l 275 499 b 407 617 292 576 336 617 b 536 458 494 617 535 565 l 333 417 b 54 194 156 382 54 331 b 318 -17 54 64 168 -17 b 572 113 453 -17 535 36 b 783 -1 592 -17 735 -3 l 819 0 l 819 142 l 793 142 b 747 201 767 142 747 153 l 747 433 b 408 753 747 643 632 753 b 67 508 215 753 94 665 z m 268 201 b 418 307 268 276 331 290 l 539 329 l 539 319 b 383 118 539 186 474 119 b 268 201 307 118 268 154 z "},"º":{"ha":864,"x_min":0,"x_max":0,"o":"m 432 -17 b 810 368 660 -17 810 135 b 432 753 810 601 660 753 b 54 368 204 753 54 601 b 432 -17 54 135 204 -17 z m 268 368 b 432 593 268 511 328 593 b 594 368 536 593 594 511 b 432 143 594 225 536 143 b 268 368 328 143 268 225 z "},"А":{"ha":1031,"x_min":0,"x_max":0,"o":"m 35 0 l 253 0 l 325 210 l 704 210 l 776 0 l 996 0 l 640 986 l 390 986 z m 385 383 l 515 764 l 646 383 z "},"Б":{"ha":946,"x_min":0,"x_max":0,"o":"m 103 0 l 497 0 b 876 313 733 0 876 118 b 497 626 876 508 733 626 l 314 626 l 314 808 l 832 808 l 832 986 l 103 986 z m 314 178 l 314 450 l 485 450 b 660 313 600 450 660 403 b 485 178 660 224 600 178 z "},"В":{"ha":976,"x_min":0,"x_max":0,"o":"m 103 0 l 517 0 b 906 279 772 0 906 97 b 665 510 906 415 821 494 b 864 713 792 525 864 596 b 461 986 864 901 731 986 l 103 986 z m 314 172 l 314 425 l 524 425 b 693 297 625 425 693 382 b 524 172 693 214 625 172 z m 314 578 l 314 814 l 481 814 b 651 694 588 814 651 776 b 481 578 651 617 585 578 z "},"Г":{"ha":869,"x_min":0,"x_max":0,"o":"m 103 986 l 103 0 l 314 0 l 314 808 l 832 808 l 832 986 z "},"Ѓ":{"ha":869,"x_min":0,"x_max":0,"o":"m 103 986 l 103 0 l 314 0 l 314 808 l 832 808 l 832 986 z m 399 1096 l 526 1096 l 653 1276 l 486 1276 z "},"Ґ":{"ha":813,"x_min":0,"x_max":0,"o":"m 103 986 l 103 0 l 314 0 l 314 808 l 775 808 l 775 1201 l 564 1201 l 564 986 z "},"Ғ":{"ha":943,"x_min":0,"x_max":0,"o":"m 176 986 l 176 544 l 75 544 l 75 367 l 176 367 l 176 0 l 388 0 l 388 367 l 689 367 l 689 544 l 388 544 l 388 808 l 906 808 l 906 986 z "},"Д":{"ha":1189,"x_min":0,"x_max":0,"o":"m 997 986 l 317 986 l 244 361 b 113 178 229 240 185 178 l 69 178 l 69 -208 l 282 -208 l 282 0 l 908 0 l 908 -208 l 1119 -208 l 1119 178 l 997 178 z m 403 178 b 458 347 432 218 449 274 l 511 808 l 786 808 l 786 178 z "},"Е":{"ha":864,"x_min":0,"x_max":0,"o":"m 103 986 l 103 0 l 800 0 l 800 178 l 314 178 l 314 407 l 772 407 l 772 582 l 314 582 l 314 808 l 789 808 l 789 986 z "},"Ѐ":{"ha":864,"x_min":0,"x_max":0,"o":"m 103 986 l 103 0 l 800 0 l 800 178 l 314 178 l 314 407 l 772 407 l 772 582 l 314 582 l 314 808 l 789 808 l 789 986 z m 256 1278 l 382 1097 l 514 1097 l 426 1278 z "},"Ё":{"ha":864,"x_min":0,"x_max":0,"o":"m 103 986 l 103 0 l 800 0 l 800 178 l 314 178 l 314 407 l 772 407 l 772 582 l 314 582 l 314 808 l 789 808 l 789 986 z m 194 1083 l 410 1083 l 410 1238 l 194 1238 z m 485 1083 l 700 1083 l 700 1238 l 485 1238 z "},"Ж":{"ha":1472,"x_min":0,"x_max":0,"o":"m 631 986 l 631 549 l 317 986 l 53 986 l 407 493 l 39 0 l 303 0 l 631 439 l 631 0 l 843 0 l 843 438 l 1169 0 l 1433 0 l 1065 493 l 1419 986 l 1156 986 l 843 551 l 843 986 z "},"З":{"ha":957,"x_min":0,"x_max":0,"o":"m 492 593 l 392 594 l 392 447 l 492 449 b 675 304 586 450 675 403 b 479 156 675 214 601 156 b 279 297 365 156 288 211 l 64 289 b 478 -22 72 101 239 -22 b 893 271 726 -22 893 96 b 653 533 893 404 807 499 b 860 751 786 564 860 639 b 478 1008 860 906 707 1008 b 86 740 261 1008 106 901 l 300 731 b 474 831 308 792 374 831 b 642 722 578 831 642 790 b 492 593 642 631 567 592 z "},"И":{"ha":1039,"x_min":0,"x_max":0,"o":"m 936 986 l 704 986 l 314 311 l 314 986 l 103 986 l 103 0 l 343 0 l 725 653 l 725 0 l 936 0 z "},"Й":{"ha":1039,"x_min":0,"x_max":0,"o":"m 936 986 l 704 986 l 314 311 l 314 986 l 103 986 l 103 0 l 343 0 l 725 653 l 725 0 l 936 0 z m 301 1282 b 519 1090 301 1174 397 1090 b 738 1282 642 1090 738 1174 l 610 1282 b 519 1197 610 1233 571 1197 b 429 1282 468 1197 429 1233 z "},"К":{"ha":976,"x_min":0,"x_max":0,"o":"m 103 986 l 103 0 l 314 0 l 314 481 l 693 0 l 938 0 l 544 493 l 924 986 l 682 986 l 314 506 l 314 986 z "},"Ќ":{"ha":976,"x_min":0,"x_max":0,"o":"m 103 986 l 103 0 l 314 0 l 314 481 l 693 0 l 938 0 l 544 493 l 924 986 l 682 986 l 314 506 l 314 986 z m 426 1096 l 554 1096 l 681 1276 l 514 1276 z "},"Л":{"ha":1085,"x_min":0,"x_max":0,"o":"m 982 986 l 300 986 l 236 278 b 147 178 229 215 201 178 l 68 178 l 68 0 l 210 0 b 440 240 349 0 426 94 l 492 808 l 772 808 l 772 0 l 982 0 z "},"М":{"ha":1271,"x_min":0,"x_max":0,"o":"m 103 986 l 103 0 l 314 0 l 314 644 l 544 3 l 725 3 l 956 644 l 956 0 l 1168 0 l 1168 986 l 885 986 l 636 268 l 385 986 z "},"Н":{"ha":996,"x_min":0,"x_max":0,"o":"m 103 0 l 314 0 l 314 407 l 682 407 l 682 0 l 893 0 l 893 986 l 682 986 l 682 585 l 314 585 l 314 986 l 103 986 z "},"О":{"ha":1072,"x_min":0,"x_max":0,"o":"m 536 -22 b 1017 492 836 -22 1017 175 b 536 1008 1017 811 836 1008 b 57 492 236 1008 57 811 b 536 -22 57 175 236 -22 z m 275 492 b 536 831 275 704 372 831 b 799 492 703 831 799 704 b 536 156 799 281 703 156 b 275 492 372 156 275 281 z "},"П":{"ha":996,"x_min":0,"x_max":0,"o":"m 893 986 l 103 986 l 103 0 l 314 0 l 314 808 l 682 808 l 682 0 l 893 0 z "},"Р":{"ha":932,"x_min":0,"x_max":0,"o":"m 497 986 l 103 986 l 103 0 l 314 0 l 314 340 l 497 340 b 876 664 733 340 876 464 b 497 986 876 864 733 986 z m 314 518 l 314 808 l 485 808 b 660 664 596 808 660 760 b 485 518 660 568 596 518 z "},"С":{"ha":1011,"x_min":0,"x_max":0,"o":"m 961 356 l 740 364 b 528 156 718 231 643 156 b 274 492 356 156 274 300 b 528 831 274 685 354 831 b 738 638 636 831 713 761 l 957 647 b 532 1008 914 875 758 1008 b 57 492 240 1008 57 785 b 532 -22 57 199 240 -22 b 961 356 768 -22 921 117 z "},"Т":{"ha":878,"x_min":0,"x_max":0,"o":"m 840 986 l 38 986 l 38 808 l 333 808 l 333 0 l 546 0 l 546 808 l 840 808 z "},"У":{"ha":867,"x_min":0,"x_max":0,"o":"m 35 986 l 300 288 l 375 288 l 350 221 b 267 172 339 186 313 172 l 154 172 l 154 0 l 322 0 b 528 138 429 0 493 43 l 832 986 l 614 986 l 436 468 l 253 986 z "},"Ў":{"ha":867,"x_min":0,"x_max":0,"o":"m 35 986 l 300 288 l 375 288 l 350 221 b 267 172 339 186 313 172 l 154 172 l 154 0 l 322 0 b 528 138 429 0 493 43 l 832 986 l 614 986 l 436 468 l 253 986 z m 215 1282 b 433 1090 215 1174 311 1090 b 651 1282 556 1090 651 1174 l 524 1282 b 433 1197 524 1233 485 1197 b 343 1282 382 1197 343 1233 z "},"Ф":{"ha":1203,"x_min":0,"x_max":0,"o":"m 57 493 b 501 107 57 283 231 135 l 501 0 l 700 0 l 700 107 b 1146 493 971 136 1146 283 b 700 879 1146 703 971 850 l 700 986 l 501 986 l 501 879 b 57 493 231 851 57 703 z m 274 493 b 501 700 274 600 360 676 l 501 286 b 274 493 360 310 274 386 z m 700 288 l 700 699 b 929 493 843 676 929 600 b 700 288 929 386 843 310 z "},"Х":{"ha":1000,"x_min":0,"x_max":0,"o":"m 715 986 l 501 656 l 285 986 l 42 986 l 376 496 l 39 0 l 282 0 l 500 338 l 717 0 l 960 0 l 622 496 l 957 986 z "},"Ч":{"ha":933,"x_min":0,"x_max":0,"o":"m 831 0 l 831 986 l 619 986 l 619 683 b 421 504 619 572 542 504 b 261 683 315 504 261 568 l 261 986 l 50 986 l 50 632 b 365 331 50 447 167 331 b 619 450 476 331 569 376 l 619 0 z "},"Ц":{"ha":1125,"x_min":0,"x_max":0,"o":"m 682 178 l 314 178 l 314 986 l 103 986 l 103 0 l 839 0 l 839 -208 l 1050 -208 l 1050 178 l 893 178 l 893 986 l 682 986 z "},"Ш":{"ha":1344,"x_min":0,"x_max":0,"o":"m 103 0 l 1242 0 l 1242 986 l 1031 986 l 1031 178 l 779 178 l 779 986 l 567 986 l 567 178 l 314 178 l 314 986 l 103 986 z "},"Щ":{"ha":1471,"x_min":0,"x_max":0,"o":"m 103 0 l 1185 0 l 1185 -208 l 1396 -208 l 1396 178 l 1242 178 l 1242 986 l 1031 986 l 1031 178 l 779 178 l 779 986 l 567 986 l 567 178 l 314 178 l 314 986 l 103 986 z "},"Џ":{"ha":996,"x_min":0,"x_max":0,"o":"m 893 0 l 893 986 l 682 986 l 682 178 l 314 178 l 314 986 l 103 986 l 103 0 l 393 0 l 393 -208 l 604 -208 l 604 0 z "},"Ь":{"ha":947,"x_min":0,"x_max":0,"o":"m 497 0 b 876 322 733 0 876 122 b 497 646 876 522 733 646 l 314 646 l 314 986 l 103 986 l 103 0 z m 314 178 l 314 468 l 485 468 b 660 322 596 468 660 418 b 485 178 660 226 596 178 z "},"Ы":{"ha":1288,"x_min":0,"x_max":0,"o":"m 497 0 b 876 322 733 0 876 122 b 497 646 876 522 733 646 l 314 646 l 314 986 l 103 986 l 103 0 z m 314 178 l 314 468 l 485 468 b 660 322 596 468 660 418 b 485 178 660 226 596 178 z m 975 0 l 1185 0 l 1185 986 l 975 986 z "},"Ъ":{"ha":1049,"x_min":0,"x_max":0,"o":"m 614 0 b 993 322 850 0 993 122 b 614 646 993 522 850 646 l 431 646 l 431 986 l 75 986 l 75 808 l 219 808 l 219 0 z m 431 178 l 431 468 l 601 468 b 776 322 713 468 776 418 b 601 178 776 226 713 178 z "},"Љ":{"ha":1615,"x_min":0,"x_max":0,"o":"m 982 986 l 300 986 l 236 278 b 147 178 229 215 201 178 l 68 178 l 68 0 l 210 0 b 440 240 349 0 426 94 l 492 808 l 771 808 l 771 0 l 1165 0 b 1544 322 1401 0 1544 122 b 1165 646 1544 522 1401 646 l 982 646 z m 982 178 l 982 468 l 1153 468 b 1328 322 1264 468 1328 418 b 1153 178 1328 226 1264 178 z "},"Њ":{"ha":1526,"x_min":0,"x_max":0,"o":"m 1076 0 b 1456 322 1313 0 1456 122 b 1076 646 1456 522 1313 646 l 893 646 l 893 986 l 682 986 l 682 646 l 314 646 l 314 986 l 103 986 l 103 0 l 314 0 l 314 468 l 682 468 l 682 0 z m 893 178 l 893 468 l 1064 468 b 1239 322 1175 468 1239 418 b 1064 178 1239 226 1175 178 z "},"Ѕ":{"ha":943,"x_min":0,"x_max":0,"o":"m 283 335 l 71 325 b 494 -17 85 117 254 -17 b 872 276 707 -17 872 89 b 511 576 872 433 732 528 b 306 714 406 603 308 631 b 458 833 301 786 367 833 b 646 664 563 833 635 768 l 857 675 b 464 1008 833 874 683 1008 b 89 717 239 1008 89 896 b 440 421 89 558 226 472 b 657 269 594 383 656 342 b 500 160 658 197 594 160 b 283 335 376 160 301 229 z "},"Є":{"ha":1060,"x_min":0,"x_max":0,"o":"m 1003 353 l 779 353 b 536 156 746 228 661 156 b 279 411 392 156 301 249 l 597 411 l 597 574 l 279 574 b 536 831 301 736 392 831 b 779 631 661 831 746 758 l 1003 631 b 536 1008 958 868 790 1008 b 57 492 236 1008 57 811 b 536 -22 57 175 236 -22 b 1003 353 790 -22 957 118 z "},"Э":{"ha":1060,"x_min":0,"x_max":0,"o":"m 281 353 l 57 353 b 524 -22 103 118 269 -22 b 1003 492 824 -22 1003 175 b 524 1008 1003 811 824 1008 b 57 631 269 1008 101 868 l 281 631 b 524 831 314 758 399 831 b 781 574 668 831 758 736 l 463 574 l 463 411 l 781 411 b 524 156 758 249 668 156 b 281 353 399 156 314 228 z "},"І":{"ha":417,"x_min":0,"x_max":0,"o":"m 103 986 l 103 0 l 314 0 l 314 986 z "},"Ї":{"ha":417,"x_min":0,"x_max":0,"o":"m 103 986 l 103 0 l 314 0 l 314 986 z m -44 1082 l 171 1082 l 171 1236 l -44 1236 z m 246 1082 l 461 1082 l 461 1236 l 246 1236 z "},"Ј":{"ha":871,"x_min":0,"x_max":0,"o":"m 281 361 l 68 350 b 422 -22 69 131 215 -22 b 789 354 642 -22 789 128 l 789 986 l 576 986 l 576 354 b 428 156 576 225 525 156 b 281 361 333 156 282 226 z "},"Ћ":{"ha":1113,"x_min":0,"x_max":0,"o":"m 774 986 l 38 986 l 38 808 l 282 808 l 282 0 l 493 0 l 493 303 b 692 482 493 414 571 482 b 851 303 797 482 851 418 l 851 0 l 1063 0 l 1063 354 b 747 656 1063 539 946 656 b 493 536 636 656 543 610 l 493 808 l 774 808 z "},"Ю":{"ha":1460,"x_min":0,"x_max":0,"o":"m 922 -22 b 1403 492 1222 -22 1403 175 b 922 1008 1403 811 1222 1008 b 449 582 651 1008 479 847 l 314 582 l 314 986 l 103 986 l 103 0 l 314 0 l 314 404 l 449 404 b 922 -22 478 139 651 -22 z m 661 492 b 922 831 661 704 758 831 b 1185 492 1089 831 1185 704 b 922 156 1185 281 1089 156 b 661 492 758 156 661 281 z "},"Я":{"ha":983,"x_min":0,"x_max":0,"o":"m 486 986 b 107 674 244 986 107 872 b 290 400 107 547 168 443 l 69 0 l 297 0 l 489 363 l 501 363 l 669 363 l 669 0 l 881 0 l 881 986 z m 322 672 b 499 808 322 761 392 808 l 669 808 l 669 538 l 499 538 b 322 672 392 538 322 583 z "},"Ђ":{"ha":1118,"x_min":0,"x_max":0,"o":"m 774 986 l 38 986 l 38 808 l 282 808 l 282 0 l 493 0 l 493 294 b 690 482 493 410 569 482 b 850 332 788 482 850 424 b 656 178 850 238 781 178 l 656 0 b 1063 338 906 0 1063 129 b 743 656 1063 529 936 656 b 493 535 632 656 542 608 l 493 808 l 774 808 z "},"Ѣ":{"ha":1039,"x_min":0,"x_max":0,"o":"m 589 0 b 968 322 825 0 968 122 b 589 646 968 522 825 646 l 406 646 l 406 736 l 540 736 l 540 860 l 406 860 l 406 986 l 194 986 l 194 860 l 61 860 l 61 736 l 194 736 l 194 0 z m 406 178 l 406 468 l 576 468 b 751 322 688 468 751 418 b 576 178 751 226 688 178 z "},"Ѫ":{"ha":1081,"x_min":0,"x_max":0,"o":"m 139 986 l 139 808 l 342 532 b 160 358 256 519 193 463 l 39 0 l 251 0 l 342 285 b 438 363 360 350 386 363 l 440 363 l 440 0 l 642 0 l 642 363 l 643 363 b 739 285 694 363 721 350 l 829 0 l 1042 0 l 919 358 b 740 532 888 463 826 518 l 943 808 l 943 986 z m 350 808 l 732 808 l 542 547 z "},"Ѳ":{"ha":1072,"x_min":0,"x_max":0,"o":"m 536 -22 b 1017 492 836 -22 1017 175 b 536 1008 1017 811 836 1008 b 57 492 236 1008 57 811 b 536 -22 57 175 236 -22 z m 279 425 b 342 444 299 435 321 440 b 518 414 383 450 451 439 b 772 369 646 371 717 360 b 786 372 776 369 782 371 b 536 156 756 235 668 156 b 279 425 390 156 297 254 z m 288 614 b 536 831 319 751 407 831 b 794 561 683 831 775 732 b 742 546 778 554 760 549 b 515 592 692 536 636 547 b 311 618 447 617 367 629 b 288 614 304 618 297 617 z "},"Ѵ":{"ha":1090,"x_min":0,"x_max":0,"o":"m 35 986 l 392 0 l 638 0 l 889 694 b 1035 808 921 778 960 808 l 1056 808 l 1056 986 l 988 986 b 703 775 853 986 749 908 l 515 239 l 253 986 z "},"Җ":{"ha":1524,"x_min":0,"x_max":0,"o":"m 631 986 l 631 549 l 317 986 l 53 986 l 407 493 l 39 0 l 303 0 l 631 439 l 631 0 l 843 0 l 843 438 l 1169 0 l 1281 0 l 1281 -208 l 1492 -208 l 1492 131 l 1336 131 l 1065 493 l 1419 986 l 1156 986 l 843 551 l 843 986 z "},"Қ":{"ha":1050,"x_min":0,"x_max":0,"o":"m 103 986 l 103 0 l 314 0 l 314 481 l 693 0 l 800 0 l 800 -208 l 1011 -208 l 1011 131 l 833 131 l 544 493 l 924 986 l 682 986 l 314 506 l 314 986 z "},"Ң":{"ha":1096,"x_min":0,"x_max":0,"o":"m 103 0 l 314 0 l 314 407 l 682 407 l 682 0 l 810 0 l 810 -208 l 1021 -208 l 1021 131 l 893 131 l 893 986 l 682 986 l 682 585 l 314 585 l 314 986 l 103 986 z "},"Ү":{"ha":965,"x_min":0,"x_max":0,"o":"m 35 986 l 376 383 l 376 0 l 589 0 l 589 383 l 931 986 l 699 986 l 483 585 l 267 986 z "},"Ұ":{"ha":965,"x_min":0,"x_max":0,"o":"m 35 986 l 347 435 l 163 435 l 163 258 l 376 258 l 376 0 l 589 0 l 589 258 l 801 258 l 801 435 l 618 435 l 931 986 l 699 986 l 483 585 l 267 986 z "},"Ҳ":{"ha":1071,"x_min":0,"x_max":0,"o":"m 715 986 l 501 656 l 285 986 l 42 986 l 376 496 l 39 0 l 282 0 l 500 338 l 717 0 l 821 0 l 821 -208 l 1032 -208 l 1032 131 l 871 131 l 622 496 l 957 986 z "},"Ҷ":{"ha":1029,"x_min":0,"x_max":0,"o":"m 50 632 b 365 331 50 447 167 331 b 619 450 476 331 569 376 l 619 0 l 743 0 l 743 -208 l 954 -208 l 954 131 l 831 131 l 831 986 l 619 986 l 619 683 b 421 504 619 572 542 504 b 261 683 315 504 261 568 l 261 986 l 50 986 z "},"Һ":{"ha":933,"x_min":0,"x_max":0,"o":"m 103 986 l 103 0 l 314 0 l 314 303 b 513 482 314 414 392 482 b 672 303 618 482 672 418 l 672 0 l 883 0 l 883 354 b 568 656 883 539 767 656 b 314 536 457 656 364 610 l 314 986 z "},"Ӏ":{"ha":417,"x_min":0,"x_max":0,"o":"m 103 986 l 103 0 l 314 0 l 314 986 z "},"Ә":{"ha":1049,"x_min":0,"x_max":0,"o":"m 774 560 l 57 560 l 58 483 b 515 -22 69 157 274 -22 b 992 493 776 -22 992 190 b 515 1008 992 807 785 1008 b 83 696 311 1008 144 888 l 307 683 b 518 831 347 779 426 831 b 774 560 658 831 764 719 z m 285 382 l 765 382 b 518 156 736 240 647 156 b 285 382 396 156 311 240 z "},"Ӣ":{"ha":1039,"x_min":0,"x_max":0,"o":"m 936 986 l 704 986 l 314 311 l 314 986 l 103 986 l 103 0 l 343 0 l 725 653 l 725 0 l 936 0 z m 317 1107 l 719 1107 l 719 1243 l 317 1243 z "},"Ө":{"ha":1072,"x_min":0,"x_max":0,"o":"m 536 -22 b 1017 492 836 -22 1017 175 b 536 1008 1017 811 836 1008 b 57 492 236 1008 57 811 b 536 -22 57 175 236 -22 z m 281 404 l 793 404 b 536 156 769 246 678 156 b 281 404 396 156 306 246 z m 282 582 b 536 831 306 739 397 831 b 792 582 678 831 768 739 z "},"Ӯ":{"ha":867,"x_min":0,"x_max":0,"o":"m 35 986 l 300 288 l 375 288 l 350 221 b 267 172 339 186 313 172 l 154 172 l 154 0 l 322 0 b 528 138 429 0 493 43 l 832 986 l 614 986 l 436 468 l 253 986 z m 233 1107 l 636 1107 l 636 1243 l 233 1243 z "},"а":{"ha":860,"x_min":0,"x_max":0,"o":"m 67 508 l 275 499 b 407 617 292 576 336 617 b 536 458 494 617 535 565 l 333 417 b 54 194 156 382 54 331 b 318 -17 54 64 168 -17 b 572 113 453 -17 535 36 b 783 -1 592 -17 735 -3 l 819 0 l 819 142 l 793 142 b 747 201 767 142 747 153 l 747 433 b 408 753 747 643 632 753 b 67 508 215 753 94 665 z m 268 201 b 418 307 268 276 331 290 l 539 329 l 539 319 b 383 118 539 186 474 119 b 268 201 307 118 268 154 z "},"б":{"ha":883,"x_min":0,"x_max":0,"o":"m 276 328 b 447 138 275 215 343 138 b 614 328 546 138 614 215 b 453 513 614 438 549 513 b 276 328 350 513 278 438 z m 57 435 b 311 911 57 699 131 832 b 425 1056 401 950 425 983 l 601 1057 b 438 793 601 931 557 849 b 240 569 325 740 256 700 b 464 672 290 635 368 672 b 828 328 685 672 828 533 b 444 -22 828 113 674 -22 b 154 104 333 -22 228 15 b 57 435 90 176 57 292 z "},"в":{"ha":860,"x_min":0,"x_max":0,"o":"m 92 0 l 471 0 b 782 208 675 0 782 75 b 574 381 782 313 708 374 b 751 532 686 388 751 443 b 431 736 751 667 639 736 l 92 736 z m 301 149 l 301 313 l 458 313 b 569 228 529 313 569 281 b 458 149 569 179 529 149 z m 301 436 l 301 588 l 426 588 b 539 513 496 588 539 560 b 426 436 539 465 496 436 z "},"г":{"ha":694,"x_min":0,"x_max":0,"o":"m 92 736 l 92 0 l 300 0 l 300 582 l 654 582 l 654 736 z "},"ѓ":{"ha":694,"x_min":0,"x_max":0,"o":"m 92 736 l 92 0 l 300 0 l 300 582 l 654 582 l 654 736 z m 306 846 l 433 846 l 560 1026 l 393 1026 z "},"ґ":{"ha":649,"x_min":0,"x_max":0,"o":"m 92 736 l 92 0 l 300 0 l 300 582 l 619 582 l 619 951 l 410 951 l 410 736 z "},"ғ":{"ha":760,"x_min":0,"x_max":0,"o":"m 143 736 l 143 425 l 64 425 l 64 271 l 143 271 l 143 0 l 351 0 l 351 271 l 547 271 l 547 425 l 351 425 l 351 582 l 706 582 l 706 736 z "},"д":{"ha":1029,"x_min":0,"x_max":0,"o":"m 860 736 l 272 736 l 206 286 b 103 154 192 194 161 154 l 50 154 l 50 -208 l 258 -208 l 258 0 l 771 0 l 771 -208 l 979 -208 l 979 154 l 860 154 z m 361 154 b 399 279 379 188 392 229 l 439 582 l 651 582 l 651 154 z "},"е":{"ha":847,"x_min":0,"x_max":0,"o":"m 54 368 b 432 -17 54 136 203 -17 b 782 215 600 -17 738 72 l 571 229 b 432 138 547 174 492 138 b 272 314 338 138 278 204 l 792 314 l 792 353 b 432 753 793 611 636 753 b 54 368 203 753 54 600 z m 274 440 b 432 599 285 539 343 599 b 581 440 506 599 569 551 z "},"ѐ":{"ha":847,"x_min":0,"x_max":0,"o":"m 54 368 b 432 -17 54 136 203 -17 b 782 215 600 -17 738 72 l 571 229 b 432 138 547 174 492 138 b 272 314 338 138 278 204 l 792 314 l 792 353 b 432 753 793 611 636 753 b 54 368 203 753 54 600 z m 240 1025 l 367 844 l 499 844 l 411 1025 z m 274 440 b 432 599 285 539 343 599 b 581 440 506 599 569 551 z "},"ё":{"ha":847,"x_min":0,"x_max":0,"o":"m 54 368 b 432 -17 54 136 203 -17 b 782 215 600 -17 738 72 l 571 229 b 432 138 547 174 492 138 b 272 314 338 138 278 204 l 792 314 l 792 353 b 432 753 793 611 636 753 b 54 368 203 753 54 600 z m 179 831 l 394 831 l 394 985 l 179 985 z m 274 440 b 432 599 285 539 343 599 b 581 440 506 599 569 551 z m 469 831 l 685 831 l 685 985 l 469 985 z "},"ж":{"ha":1378,"x_min":0,"x_max":0,"o":"m 586 736 l 586 401 l 335 736 l 78 736 l 365 368 l 64 0 l 321 0 l 586 336 l 586 0 l 794 0 l 794 335 l 1057 0 l 1314 0 l 1011 368 l 1300 736 l 1043 736 l 794 403 l 794 736 z "},"з":{"ha":782,"x_min":0,"x_max":0,"o":"m 368 450 l 306 451 l 306 326 l 368 328 b 496 225 446 329 496 289 b 371 138 496 171 447 138 b 240 235 294 138 244 175 l 28 229 b 374 -17 35 76 167 -17 b 708 200 579 -17 708 67 b 519 396 708 297 639 367 b 686 546 625 419 686 472 b 372 753 686 674 565 753 b 54 550 190 753 67 676 l 265 543 b 368 628 269 597 308 628 b 471 544 432 628 471 597 b 368 450 471 483 432 449 z "},"и":{"ha":828,"x_min":0,"x_max":0,"o":"m 736 736 l 542 736 l 300 304 l 300 736 l 92 736 l 92 0 l 292 0 l 528 419 l 528 0 l 736 0 z "},"й":{"ha":828,"x_min":0,"x_max":0,"o":"m 736 736 l 542 736 l 300 304 l 300 736 l 92 736 l 92 0 l 292 0 l 528 419 l 528 0 l 736 0 z m 196 1032 b 414 840 196 924 292 840 b 632 1032 536 840 632 924 l 504 1032 b 414 947 504 983 465 947 b 324 1032 363 947 324 983 z "},"ѝ":{"ha":828,"x_min":0,"x_max":0,"o":"m 736 736 l 542 736 l 300 304 l 300 736 l 92 736 l 92 0 l 292 0 l 528 419 l 528 0 l 736 0 z m 224 1026 l 350 846 l 482 846 l 394 1026 z "},"к":{"ha":904,"x_min":0,"x_max":0,"o":"m 92 736 l 92 0 l 301 0 l 301 354 l 593 0 l 842 0 l 529 368 l 825 736 l 579 736 l 301 382 l 301 736 z "},"ќ":{"ha":904,"x_min":0,"x_max":0,"o":"m 92 736 l 92 0 l 301 0 l 301 354 l 593 0 l 842 0 l 529 368 l 825 736 l 579 736 l 301 382 l 301 736 z m 372 846 l 500 846 l 626 1026 l 460 1026 z "},"л":{"ha":946,"x_min":0,"x_max":0,"o":"m 854 736 l 240 736 l 188 261 b 107 163 181 194 154 163 l 64 163 l 64 0 l 196 0 b 389 204 310 0 375 71 l 429 582 l 646 582 l 646 0 l 854 0 z "},"м":{"ha":1042,"x_min":0,"x_max":0,"o":"m 92 736 l 92 0 l 300 0 l 300 401 l 447 0 l 594 0 l 742 400 l 742 0 l 950 0 l 950 736 l 704 736 l 522 189 l 338 736 z "},"н":{"ha":835,"x_min":0,"x_max":0,"o":"m 92 738 l 92 0 l 300 0 l 300 289 l 536 289 l 536 0 l 744 0 l 744 736 l 536 736 l 536 444 l 300 444 l 300 738 z "},"о":{"ha":864,"x_min":0,"x_max":0,"o":"m 432 -17 b 810 368 660 -17 810 135 b 432 753 810 601 660 753 b 54 368 204 753 54 601 b 432 -17 54 135 204 -17 z m 268 368 b 432 593 268 511 328 593 b 594 368 536 593 594 511 b 432 143 594 225 536 143 b 268 368 328 143 268 225 z "},"п":{"ha":854,"x_min":0,"x_max":0,"o":"m 763 736 l 92 736 l 92 0 l 300 0 l 300 582 l 554 582 l 554 0 l 763 0 z "},"р":{"ha":883,"x_min":0,"x_max":0,"o":"m 92 -208 l 300 -208 l 300 106 b 514 -17 343 26 418 -17 b 829 368 722 -17 829 151 b 514 753 829 585 722 753 b 294 626 413 753 335 708 l 290 736 l 92 736 z m 286 368 b 450 594 286 488 339 594 b 614 368 560 594 614 489 b 450 142 614 246 563 142 b 286 368 339 142 286 246 z "},"с":{"ha":836,"x_min":0,"x_max":0,"o":"m 576 454 l 790 464 b 432 753 771 643 622 753 b 54 368 203 753 54 600 b 432 -17 54 136 203 -17 b 796 281 628 -17 776 97 l 581 289 b 432 143 568 193 510 143 b 268 368 328 143 268 225 b 432 593 268 511 328 593 b 576 454 506 593 564 543 z "},"т":{"ha":817,"x_min":0,"x_max":0,"o":"m 763 736 l 54 736 l 54 582 l 304 582 l 304 0 l 514 0 l 514 582 l 763 582 z "},"у":{"ha":815,"x_min":0,"x_max":0,"o":"m 29 736 l 294 38 l 353 38 l 335 -7 b 253 -57 321 -43 297 -57 l 160 -57 l 160 -208 l 292 -208 b 497 -71 399 -208 463 -165 l 786 736 l 589 736 l 411 218 l 228 736 z "},"ў":{"ha":815,"x_min":0,"x_max":0,"o":"m 29 736 l 294 38 l 353 38 l 335 -7 b 253 -57 321 -43 297 -57 l 160 -57 l 160 -208 l 292 -208 b 497 -71 399 -208 463 -165 l 786 736 l 589 736 l 411 218 l 228 736 z m 192 1032 b 410 840 192 924 288 840 b 628 1032 532 840 628 924 l 500 1032 b 410 947 500 983 461 947 b 319 1032 358 947 319 983 z "},"ф":{"ha":1010,"x_min":0,"x_max":0,"o":"m 54 372 b 411 35 54 188 189 61 l 411 -208 l 599 -208 l 599 35 b 956 372 821 63 956 188 b 599 710 956 557 821 682 l 599 986 l 411 986 l 411 710 b 54 372 189 683 54 557 z m 264 372 b 411 542 264 458 318 519 l 411 203 b 264 372 318 225 264 286 z m 599 203 l 599 542 b 746 372 692 518 746 458 b 599 203 746 286 692 226 z "},"х":{"ha":904,"x_min":0,"x_max":0,"o":"m 603 738 l 453 508 l 301 738 l 74 738 l 332 375 l 64 0 l 293 0 l 453 240 l 611 0 l 840 0 l 574 374 l 832 738 z "},"ч":{"ha":900,"x_min":0,"x_max":0,"o":"m 810 0 l 810 736 l 600 736 l 600 572 b 435 383 600 453 539 383 b 300 572 350 383 300 453 l 300 736 l 92 736 l 92 521 b 379 219 92 336 203 219 b 600 335 476 219 556 264 l 600 0 z "},"ц":{"ha":986,"x_min":0,"x_max":0,"o":"m 92 0 l 700 0 l 700 -208 l 910 -208 l 910 154 l 763 154 l 763 736 l 554 736 l 554 154 l 300 154 l 300 736 l 92 736 z "},"ш":{"ha":1194,"x_min":0,"x_max":0,"o":"m 92 0 l 1103 0 l 1103 736 l 894 736 l 894 154 l 697 154 l 697 736 l 499 736 l 499 154 l 300 154 l 300 736 l 92 736 z "},"щ":{"ha":1315,"x_min":0,"x_max":0,"o":"m 92 0 l 1043 0 l 1043 -208 l 1253 -208 l 1253 154 l 1103 154 l 1103 736 l 894 736 l 894 154 l 697 154 l 697 736 l 499 736 l 499 154 l 300 154 l 300 736 l 92 736 z "},"џ":{"ha":854,"x_min":0,"x_max":0,"o":"m 763 0 l 763 736 l 554 736 l 554 154 l 300 154 l 300 736 l 92 736 l 92 0 l 324 0 l 324 -208 l 532 -208 l 532 0 z "},"ь":{"ha":850,"x_min":0,"x_max":0,"o":"m 92 0 l 450 0 b 796 232 678 0 796 79 b 450 471 796 389 678 471 l 300 471 l 300 736 l 92 736 z m 300 143 l 300 324 l 432 324 b 582 232 533 324 582 294 b 432 143 582 172 533 143 z "},"ы":{"ha":1210,"x_min":0,"x_max":0,"o":"m 92 0 l 450 0 b 796 232 678 0 796 79 b 450 471 796 389 678 471 l 300 471 l 300 736 l 92 736 z m 300 143 l 300 324 l 432 324 b 582 232 533 324 582 294 b 432 143 582 172 533 143 z m 910 0 l 1118 0 l 1118 736 l 910 736 z "},"ъ":{"ha":938,"x_min":0,"x_max":0,"o":"m 179 0 l 538 0 b 883 232 765 0 883 79 b 538 471 883 389 765 471 l 388 471 l 388 736 l 64 736 l 64 582 l 179 582 z m 388 143 l 388 324 l 519 324 b 669 232 621 324 669 294 b 519 143 669 172 621 143 z "},"љ":{"ha":1419,"x_min":0,"x_max":0,"o":"m 646 0 l 1019 0 b 1365 232 1247 0 1365 79 b 1019 471 1365 389 1247 471 l 869 471 l 869 736 l 240 736 l 188 261 b 107 163 181 194 154 163 l 64 163 l 64 0 l 196 0 b 389 204 310 0 375 71 l 429 582 l 646 582 z m 869 143 l 869 324 l 1001 324 b 1151 232 1103 324 1151 294 b 1001 143 1151 172 1103 143 z "},"њ":{"ha":1293,"x_min":0,"x_max":0,"o":"m 536 0 l 894 0 b 1240 232 1122 0 1240 79 b 894 471 1240 389 1122 471 l 744 471 l 744 736 l 536 736 l 536 472 l 300 472 l 300 738 l 92 738 l 92 0 l 300 0 l 300 318 l 536 318 z m 744 143 l 744 324 l 876 324 b 1026 232 978 324 1026 294 b 876 143 1026 172 978 143 z "},"ѕ":{"ha":799,"x_min":0,"x_max":0,"o":"m 531 497 l 739 506 b 406 754 715 661 590 754 b 72 521 194 754 72 667 b 388 296 72 386 183 335 b 531 206 458 281 529 268 b 413 129 532 151 468 129 b 264 243 329 129 276 172 l 54 233 b 418 -17 65 76 203 -17 b 744 201 607 -17 744 54 b 422 431 744 340 639 397 b 286 521 351 443 289 467 b 397 608 283 575 333 608 b 531 497 460 608 519 567 z "},"є":{"ha":851,"x_min":0,"x_max":0,"o":"m 796 267 l 578 267 b 432 143 556 188 506 143 b 274 301 346 143 289 200 l 457 301 l 457 435 l 274 435 b 432 593 289 536 346 593 b 579 464 507 593 557 547 l 797 464 b 432 753 757 646 622 753 b 54 368 204 753 54 601 b 432 -17 54 135 204 -17 b 796 267 619 -17 756 86 z "},"э":{"ha":851,"x_min":0,"x_max":0,"o":"m 274 267 l 56 267 b 419 -17 96 86 232 -17 b 797 368 647 -17 797 135 b 419 753 797 601 647 753 b 54 464 229 753 94 646 l 272 464 b 419 593 294 547 344 593 b 578 435 506 593 563 536 l 394 435 l 394 301 l 578 301 b 419 143 563 200 506 143 b 274 267 346 143 296 188 z "},"і":{"ha":390,"x_min":0,"x_max":0,"o":"m 92 736 l 92 0 l 300 0 l 300 736 z m 88 832 l 303 832 l 303 986 l 88 986 z "},"ї":{"ha":390,"x_min":0,"x_max":0,"o":"m 92 736 l 92 0 l 300 0 l 300 736 z m -58 832 l 157 832 l 157 986 l -58 986 z m 233 832 l 449 832 l 449 986 l 233 986 z "},"ј":{"ha":460,"x_min":0,"x_max":0,"o":"m 369 38 l 369 736 l 160 736 l 160 38 b 82 -53 160 -18 129 -53 l -4 -53 l -4 -208 l 122 -208 b 369 38 290 -208 369 -124 z m 157 832 l 372 832 l 372 986 l 157 986 z "},"ћ":{"ha":890,"x_min":0,"x_max":0,"o":"m 149 986 l 149 915 l 64 915 l 64 799 l 149 799 l 149 0 l 357 0 l 357 400 b 492 583 357 517 404 583 b 606 400 578 583 606 519 l 606 0 l 814 0 l 814 474 b 567 753 814 640 721 753 b 357 642 479 753 400 722 l 357 799 l 510 799 l 510 915 l 357 915 l 357 986 z "},"ю":{"ha":1200,"x_min":0,"x_max":0,"o":"m 769 -17 b 1147 368 997 -17 1147 135 b 769 753 1147 601 997 753 b 397 446 568 753 428 635 l 300 446 l 300 736 l 92 736 l 92 0 l 300 0 l 300 290 l 397 290 b 769 -17 428 101 568 -17 z m 606 368 b 769 593 606 511 665 593 b 932 368 874 593 932 511 b 769 143 932 225 874 143 b 606 368 665 143 606 225 z "},"я":{"ha":868,"x_min":0,"x_max":0,"o":"m 776 736 l 450 736 b 119 503 233 736 119 656 b 267 297 119 414 171 343 l 92 0 l 306 0 l 456 267 l 569 267 l 569 0 l 776 0 z m 329 500 b 450 592 329 558 374 592 l 569 592 l 569 410 l 450 410 b 329 500 374 410 329 443 z "},"ђ":{"ha":906,"x_min":0,"x_max":0,"o":"m 149 986 l 149 915 l 64 915 l 64 799 l 149 799 l 149 0 l 357 0 l 357 400 b 492 583 357 517 404 583 b 606 400 578 583 606 519 l 606 38 b 526 -53 606 -18 575 -53 l 479 -53 l 479 -208 l 568 -208 b 814 38 736 -208 814 -124 l 814 474 b 567 753 814 640 721 753 b 357 642 479 753 400 722 l 357 799 l 510 799 l 510 915 l 357 915 l 357 986 z "},"ѣ":{"ha":965,"x_min":0,"x_max":0,"o":"m 207 0 l 565 0 b 913 246 788 0 913 88 b 565 499 913 408 788 499 l 415 499 l 415 731 l 558 731 l 558 854 l 415 854 l 415 986 l 207 986 l 207 854 l 64 854 l 64 731 l 207 731 z m 415 143 l 415 351 l 549 351 b 697 246 643 351 697 313 b 549 143 697 179 643 143 z "},"ѫ":{"ha":1050,"x_min":0,"x_max":0,"o":"m 132 736 l 132 588 l 333 390 b 169 271 257 381 194 339 l 64 0 l 271 0 l 343 228 b 429 290 358 275 381 290 l 429 0 l 622 0 l 622 290 b 707 228 669 289 693 275 l 781 0 l 986 0 l 881 271 b 718 389 857 339 794 381 l 919 588 l 919 736 z m 329 588 l 722 588 l 526 394 z "},"ѳ":{"ha":864,"x_min":0,"x_max":0,"o":"m 432 -17 b 810 368 660 -17 810 135 b 432 753 810 601 660 753 b 54 368 204 753 54 601 b 432 -17 54 135 204 -17 z m 271 315 b 292 321 278 318 285 319 b 426 296 328 326 371 321 b 578 254 501 265 544 254 b 432 143 554 182 504 143 b 271 315 342 143 285 206 z m 282 472 b 432 593 304 550 357 593 b 593 408 526 593 582 526 l 592 408 b 418 447 550 399 521 403 b 282 472 371 469 322 478 z "},"ѵ":{"ha":892,"x_min":0,"x_max":0,"o":"m 863 736 l 803 736 b 532 529 674 736 576 665 l 424 208 l 244 736 l 29 736 l 301 0 l 544 0 l 724 486 b 849 582 749 550 789 582 l 863 582 z "},"җ":{"ha":1401,"x_min":0,"x_max":0,"o":"m 586 736 l 586 401 l 335 736 l 78 736 l 365 368 l 64 0 l 321 0 l 586 336 l 586 0 l 794 0 l 794 335 l 1057 0 l 1129 0 l 1129 -208 l 1338 -208 l 1338 103 l 1229 103 l 1011 368 l 1300 736 l 1043 736 l 794 403 l 794 736 z "},"қ":{"ha":944,"x_min":0,"x_max":0,"o":"m 92 736 l 92 0 l 301 0 l 301 354 l 593 0 l 674 0 l 674 -208 l 882 -208 l 882 103 l 754 103 l 529 368 l 825 736 l 579 736 l 301 382 l 301 736 z "},"ң":{"ha":961,"x_min":0,"x_max":0,"o":"m 92 738 l 92 0 l 300 0 l 300 289 l 536 289 l 536 0 l 663 0 l 663 -208 l 871 -208 l 871 103 l 744 103 l 744 736 l 536 736 l 536 444 l 300 444 l 300 738 z "},"ү":{"ha":846,"x_min":0,"x_max":0,"o":"m 817 736 l 603 736 l 424 217 l 244 736 l 29 736 l 319 0 l 319 -208 l 528 -208 l 528 0 z "},"ұ":{"ha":846,"x_min":0,"x_max":0,"o":"m 817 736 l 603 736 l 424 217 l 244 736 l 29 736 l 289 78 l 157 78 l 157 -78 l 319 -78 l 319 -208 l 528 -208 l 528 -78 l 689 -78 l 689 78 l 558 78 z "},"ҳ":{"ha":963,"x_min":0,"x_max":0,"o":"m 603 738 l 453 508 l 301 738 l 74 738 l 332 375 l 64 0 l 293 0 l 453 240 l 611 0 l 690 0 l 690 -208 l 899 -208 l 899 103 l 767 103 l 574 374 l 832 738 z "},"ҷ":{"ha":1003,"x_min":0,"x_max":0,"o":"m 92 521 b 379 219 92 336 203 219 b 600 335 476 219 556 264 l 600 0 l 724 0 l 724 -208 l 932 -208 l 932 103 l 810 103 l 810 736 l 600 736 l 600 572 b 435 383 600 453 539 383 b 300 572 350 383 300 453 l 300 736 l 92 736 z "},"һ":{"ha":849,"x_min":0,"x_max":0,"o":"m 92 986 l 92 0 l 300 0 l 300 400 b 435 583 300 517 347 583 b 549 400 521 583 549 519 l 549 0 l 757 0 l 757 474 b 510 753 757 640 664 753 b 300 642 422 753 343 722 l 300 986 z "},"ӏ":{"ha":414,"x_min":0,"x_max":0,"o":"m 103 986 l 103 0 l 311 0 l 311 986 z "},"ә":{"ha":846,"x_min":0,"x_max":0,"o":"m 792 368 b 414 753 792 600 643 753 b 64 521 246 753 108 664 l 275 507 b 414 599 299 563 354 599 b 574 422 508 599 568 532 l 54 422 l 54 383 b 414 -17 53 125 210 -17 b 792 368 643 -17 792 136 z m 265 296 l 572 296 b 414 138 561 197 503 138 b 265 296 340 138 276 185 z "},"ӣ":{"ha":828,"x_min":0,"x_max":0,"o":"m 736 736 l 542 736 l 300 304 l 300 736 l 92 736 l 92 0 l 292 0 l 528 419 l 528 0 l 736 0 z m 213 857 l 615 857 l 615 993 l 213 993 z "},"ө":{"ha":864,"x_min":0,"x_max":0,"o":"m 432 -17 b 810 368 660 -17 810 135 b 432 753 810 601 660 753 b 54 368 204 753 54 601 b 432 -17 54 135 204 -17 z m 275 290 l 588 290 b 432 143 569 196 515 143 b 275 290 349 143 293 196 z m 275 446 b 432 593 293 540 349 593 b 588 446 515 593 569 540 z "},"ӯ":{"ha":815,"x_min":0,"x_max":0,"o":"m 29 736 l 294 38 l 353 38 l 335 -7 b 253 -57 321 -43 297 -57 l 160 -57 l 160 -208 l 292 -208 b 497 -71 399 -208 463 -165 l 786 736 l 589 736 l 411 218 l 228 736 z m 208 857 l 611 857 l 611 993 l 208 993 z "},"Λ":{"ha":1018,"x_min":0,"x_max":0,"o":"m 508 764 l 771 0 l 983 0 l 628 986 l 390 986 l 35 0 l 246 0 z "},"Ω":{"ha":1063,"x_min":0,"x_max":0,"o":"m 531 831 b 790 506 694 831 790 704 b 589 178 790 326 703 185 l 589 0 l 1004 0 l 1004 178 l 800 174 b 1006 546 922 233 1006 367 b 531 1008 1006 810 822 1008 b 57 546 240 1008 57 810 b 263 174 57 367 140 233 l 58 178 l 58 0 l 474 0 l 474 178 b 272 506 360 185 272 326 b 531 831 272 704 369 831 z "},"λ":{"ha":904,"x_min":0,"x_max":0,"o":"m 763 -1 l 869 0 l 869 154 l 819 154 b 729 244 768 154 754 183 l 510 789 b 278 986 456 921 399 986 l 146 986 l 146 832 l 218 832 b 317 740 274 832 290 803 l 336 692 l 35 0 l 249 0 l 438 440 l 536 197 b 763 -1 592 61 644 -1 z "},"π":{"ha":933,"x_min":0,"x_max":0,"o":"m 57 736 l 57 581 l 199 581 l 199 0 l 372 0 l 372 581 l 582 581 l 582 244 b 832 0 582 86 660 0 l 890 0 l 890 156 l 840 156 b 756 244 786 156 756 189 l 756 581 l 893 581 l 893 736 z "},"ℇ":{"ha":832,"x_min":0,"x_max":0,"o":"m 782 136 l 681 272 b 422 131 610 183 508 131 b 226 290 303 131 226 194 b 422 446 226 388 303 449 l 485 444 l 485 593 l 422 592 b 260 732 342 590 260 635 b 422 856 260 806 324 856 b 646 728 499 856 589 804 l 754 861 b 411 1008 669 954 540 1008 b 83 749 215 1008 83 901 b 261 528 83 640 149 561 b 50 276 125 494 50 404 b 411 -22 50 101 196 -22 b 782 136 561 -22 710 40 z "},"⓿":{"ha":1132,"x_min":0,"x_max":0,"o":"m 568 206 b 789 493 700 206 789 317 b 568 783 789 671 700 783 b 347 493 436 783 347 671 b 568 206 347 317 436 206 z m 54 497 b 567 1008 54 779 283 1008 b 1079 497 850 1008 1079 779 b 567 -17 1079 213 850 -17 b 54 497 283 -17 54 213 z m 456 493 b 568 683 456 615 496 683 b 625 664 589 683 608 676 l 465 408 b 456 493 458 433 456 461 z m 511 325 l 671 582 b 681 493 678 556 681 526 b 568 306 681 374 640 306 b 511 325 547 306 528 313 z "},"❶":{"ha":1132,"x_min":0,"x_max":0,"o":"m 567 -17 b 54 497 283 -17 54 213 b 567 1008 54 779 283 1008 b 1079 497 850 1008 1079 779 b 567 -17 1079 213 850 -17 z m 393 551 l 532 551 l 532 224 l 646 224 l 646 763 l 556 763 b 425 625 556 674 510 625 l 393 625 z "},"❷":{"ha":1132,"x_min":0,"x_max":0,"o":"m 567 -17 b 54 497 283 -17 54 213 b 567 1008 54 779 283 1008 b 1079 497 850 1008 1079 779 b 567 -17 1079 213 850 -17 z m 374 222 l 757 222 l 757 322 l 504 322 b 592 414 511 353 546 383 l 631 439 b 754 619 710 492 754 549 b 576 779 754 714 676 779 b 381 601 476 779 393 708 l 494 597 b 578 679 504 651 532 679 b 643 618 615 679 643 654 b 576 528 643 583 619 557 l 532 499 b 374 222 394 408 374 308 z "},"❸":{"ha":1132,"x_min":0,"x_max":0,"o":"m 567 -17 b 54 497 283 -17 54 213 b 567 1008 54 779 283 1008 b 1079 497 850 1008 1079 779 b 567 -17 1079 213 850 -17 z m 367 367 b 571 206 372 276 460 206 b 768 369 682 206 768 278 b 646 518 768 439 718 501 b 747 640 710 535 747 586 b 568 785 747 722 672 785 b 385 642 474 785 396 724 l 496 636 b 568 685 499 664 528 685 b 636 621 607 685 636 657 b 563 560 636 590 606 560 l 526 560 l 526 467 l 563 467 b 657 383 617 467 657 429 b 571 306 657 339 619 306 b 478 371 521 306 481 335 z "},"❹":{"ha":1132,"x_min":0,"x_max":0,"o":"m 567 -17 b 54 497 283 -17 54 213 b 567 1008 54 779 283 1008 b 1079 497 850 1008 1079 779 b 567 -17 1079 213 850 -17 z m 325 322 l 571 322 l 571 224 l 683 224 l 683 322 l 738 322 l 738 422 l 683 422 l 683 763 l 588 763 l 325 417 z m 458 422 l 571 574 l 571 422 z "},"❺":{"ha":1132,"x_min":0,"x_max":0,"o":"m 567 -17 b 54 497 283 -17 54 213 b 567 1008 54 779 283 1008 b 1079 497 850 1008 1079 779 b 567 -17 1079 213 850 -17 z m 369 361 b 564 201 378 267 463 201 b 764 399 676 201 764 282 b 589 589 764 507 686 589 b 501 558 554 589 524 579 l 515 664 l 733 664 l 733 764 l 422 764 l 376 446 l 482 446 b 567 497 506 486 536 497 b 653 399 615 497 653 453 b 567 301 653 342 615 301 b 481 365 524 301 486 328 z "},"❻":{"ha":1132,"x_min":0,"x_max":0,"o":"m 567 -17 b 54 497 283 -17 54 213 b 567 1008 54 779 283 1008 b 1079 497 850 1008 1079 779 b 567 -17 1079 213 850 -17 z m 371 461 b 565 206 371 319 440 206 b 763 401 679 206 763 283 b 588 594 763 517 688 594 b 479 543 540 594 504 574 b 582 688 490 626 522 688 b 650 638 617 688 640 671 l 760 646 b 585 782 742 729 668 782 b 371 461 442 782 371 636 z m 488 401 b 571 494 489 457 524 494 b 651 401 622 494 651 457 b 569 306 651 344 621 306 b 488 401 519 306 486 344 z "},"❼":{"ha":1132,"x_min":0,"x_max":0,"o":"m 567 -17 b 54 497 283 -17 54 213 b 567 1008 54 779 283 1008 b 1079 497 850 1008 1079 779 b 567 -17 1079 213 850 -17 z m 375 663 l 639 663 b 488 224 542 533 488 376 l 599 224 b 758 685 599 399 651 556 l 758 763 l 375 763 z "},"❽":{"ha":1132,"x_min":0,"x_max":0,"o":"m 567 -17 b 54 497 283 -17 54 213 b 567 1008 54 779 283 1008 b 1079 497 850 1008 1079 779 b 567 -17 1079 213 850 -17 z m 360 372 b 567 206 360 271 446 206 b 774 372 688 206 774 271 b 658 518 774 440 732 492 b 747 633 714 538 747 578 b 567 782 747 719 671 782 b 386 633 463 782 386 719 b 475 518 386 578 419 538 b 360 372 400 493 360 440 z m 471 386 b 567 474 471 436 510 474 b 663 386 624 474 663 436 b 567 306 663 339 624 306 b 471 386 510 306 471 339 z m 497 619 b 567 682 497 656 525 682 b 636 619 608 682 636 656 b 567 551 636 579 608 551 b 497 619 525 551 497 579 z "},"❾":{"ha":1132,"x_min":0,"x_max":0,"o":"m 567 -17 b 54 497 283 -17 54 213 b 567 1008 54 779 283 1008 b 1079 497 850 1008 1079 779 b 567 -17 1079 213 850 -17 z m 371 586 b 546 393 371 471 446 393 b 654 444 593 393 631 414 b 551 300 643 353 606 300 b 483 350 517 300 493 317 l 372 342 b 549 206 392 258 465 206 b 763 526 679 206 763 332 b 568 782 763 668 693 782 b 371 586 454 782 371 704 z m 482 586 b 564 682 482 643 513 682 b 646 586 613 682 647 643 b 563 493 644 531 608 493 b 482 586 511 493 482 531 z "},"⓪":{"ha":1174,"x_min":0,"x_max":0,"o":"m 588 -36 b 1119 497 881 -36 1119 201 b 588 1028 1119 790 881 1028 b 54 497 292 1028 54 790 b 588 -36 54 201 292 -36 z m 172 497 b 588 911 172 726 357 911 b 1003 497 818 911 1003 726 b 588 81 1003 265 818 81 b 172 497 357 81 172 265 z m 367 493 b 588 206 367 317 456 206 b 808 493 719 206 808 317 b 588 783 808 671 719 783 b 367 493 456 783 367 671 z m 475 493 b 588 683 475 615 515 683 b 644 664 608 683 628 676 l 485 408 b 475 493 478 433 475 461 z m 531 325 l 690 582 b 700 493 697 556 700 526 b 588 306 700 374 660 306 b 531 325 567 306 547 313 z "},"①":{"ha":1174,"x_min":0,"x_max":0,"o":"m 588 -36 b 1119 497 881 -36 1119 201 b 588 1028 1119 790 881 1028 b 54 497 292 1028 54 790 b 588 -36 54 201 292 -36 z m 172 497 b 588 911 172 726 357 911 b 1003 497 818 911 1003 726 b 588 81 1003 265 818 81 b 172 497 357 81 172 265 z m 414 551 l 553 551 l 553 224 l 667 224 l 667 763 l 576 763 b 446 625 576 674 531 625 l 414 625 z "},"②":{"ha":1174,"x_min":0,"x_max":0,"o":"m 588 -36 b 1119 497 881 -36 1119 201 b 588 1028 1119 790 881 1028 b 54 497 292 1028 54 790 b 588 -36 54 201 292 -36 z m 172 497 b 588 911 172 726 357 911 b 1003 497 818 911 1003 726 b 588 81 1003 265 818 81 b 172 497 357 81 172 265 z m 394 222 l 778 222 l 778 322 l 525 322 b 613 414 532 353 567 383 l 651 439 b 775 619 731 492 775 549 b 597 779 775 714 697 779 b 401 601 497 779 414 708 l 515 597 b 599 679 525 651 553 679 b 664 618 636 679 664 654 b 597 528 664 583 640 557 l 553 499 b 394 222 415 408 394 308 z "},"③":{"ha":1174,"x_min":0,"x_max":0,"o":"m 588 -36 b 1119 497 881 -36 1119 201 b 588 1028 1119 790 881 1028 b 54 497 292 1028 54 790 b 588 -36 54 201 292 -36 z m 172 497 b 588 911 172 726 357 911 b 1003 497 818 911 1003 726 b 588 81 1003 265 818 81 b 172 497 357 81 172 265 z m 386 367 b 590 206 392 276 479 206 b 788 369 701 206 788 278 b 665 518 788 439 738 501 b 767 640 729 535 767 586 b 588 785 767 722 692 785 b 404 642 493 785 415 724 l 515 636 b 588 685 518 664 547 685 b 656 621 626 685 656 657 b 582 560 656 590 625 560 l 546 560 l 546 467 l 582 467 b 676 383 636 467 676 429 b 590 306 676 339 639 306 b 497 371 540 306 500 335 z "},"④":{"ha":1174,"x_min":0,"x_max":0,"o":"m 588 -36 b 1119 497 881 -36 1119 201 b 588 1028 1119 790 881 1028 b 54 497 292 1028 54 790 b 588 -36 54 201 292 -36 z m 172 497 b 588 911 172 726 357 911 b 1003 497 818 911 1003 726 b 588 81 1003 265 818 81 b 172 497 357 81 172 265 z m 350 322 l 596 322 l 596 224 l 708 224 l 708 322 l 763 322 l 763 422 l 708 422 l 708 763 l 613 763 l 350 417 z m 483 422 l 596 574 l 596 422 z "},"⑤":{"ha":1174,"x_min":0,"x_max":0,"o":"m 588 -36 b 1119 497 881 -36 1119 201 b 588 1028 1119 790 881 1028 b 54 497 292 1028 54 790 b 588 -36 54 201 292 -36 z m 172 497 b 588 911 172 726 357 911 b 1003 497 818 911 1003 726 b 588 81 1003 265 818 81 b 172 497 357 81 172 265 z m 390 361 b 585 201 399 267 483 201 b 785 399 697 201 785 282 b 610 589 785 507 707 589 b 522 558 575 589 544 579 l 536 664 l 754 664 l 754 764 l 443 764 l 397 446 l 503 446 b 588 497 526 486 557 497 b 674 399 636 497 674 453 b 588 301 674 342 636 301 b 501 365 544 301 507 328 z "},"⑥":{"ha":1174,"x_min":0,"x_max":0,"o":"m 588 -36 b 1119 497 881 -36 1119 201 b 588 1028 1119 790 881 1028 b 54 497 292 1028 54 790 b 588 -36 54 201 292 -36 z m 172 497 b 588 911 172 726 357 911 b 1003 497 818 911 1003 726 b 588 81 1003 265 818 81 b 172 497 357 81 172 265 z m 390 461 b 585 206 390 319 460 206 b 782 401 699 206 782 283 b 607 594 782 517 707 594 b 499 543 560 594 524 574 b 601 688 510 626 542 688 b 669 638 636 688 660 671 l 779 646 b 604 782 761 729 688 782 b 390 461 461 782 390 636 z m 507 401 b 590 494 508 457 543 494 b 671 401 642 494 671 457 b 589 306 671 344 640 306 b 507 401 539 306 506 344 z "},"⑦":{"ha":1174,"x_min":0,"x_max":0,"o":"m 588 -36 b 1119 497 881 -36 1119 201 b 588 1028 1119 790 881 1028 b 54 497 292 1028 54 790 b 588 -36 54 201 292 -36 z m 172 497 b 588 911 172 726 357 911 b 1003 497 818 911 1003 726 b 588 81 1003 265 818 81 b 172 497 357 81 172 265 z m 396 663 l 660 663 b 508 224 563 533 508 376 l 619 224 b 779 685 619 399 672 556 l 779 763 l 396 763 z "},"⑧":{"ha":1174,"x_min":0,"x_max":0,"o":"m 588 -36 b 1119 497 881 -36 1119 201 b 588 1028 1119 790 881 1028 b 54 497 292 1028 54 790 b 588 -36 54 201 292 -36 z m 172 497 b 588 911 172 726 357 911 b 1003 497 818 911 1003 726 b 588 81 1003 265 818 81 b 172 497 357 81 172 265 z m 381 372 b 588 206 381 271 467 206 b 794 372 708 206 794 271 b 679 518 794 440 753 492 b 768 633 735 538 768 578 b 588 782 768 719 692 782 b 407 633 483 782 407 719 b 496 518 407 578 440 538 b 381 372 421 493 381 440 z m 492 386 b 588 474 492 436 531 474 b 683 386 644 474 683 436 b 588 306 683 339 644 306 b 492 386 531 306 492 339 z m 518 619 b 588 682 518 656 546 682 b 657 619 629 682 657 656 b 588 551 657 579 629 551 b 518 619 546 551 518 579 z "},"⑨":{"ha":1174,"x_min":0,"x_max":0,"o":"m 588 -36 b 1119 497 881 -36 1119 201 b 588 1028 1119 790 881 1028 b 54 497 292 1028 54 790 b 588 -36 54 201 292 -36 z m 172 497 b 588 911 172 726 357 911 b 1003 497 818 911 1003 726 b 588 81 1003 265 818 81 b 172 497 357 81 172 265 z m 390 586 b 565 393 390 471 465 393 b 674 444 613 393 650 414 b 571 300 663 353 625 300 b 503 350 536 300 513 317 l 392 342 b 568 206 411 258 485 206 b 782 526 699 206 782 332 b 588 782 782 668 713 782 b 390 586 474 782 390 704 z m 501 586 b 583 682 501 643 532 682 b 665 586 632 682 667 643 b 582 493 664 531 628 493 b 501 586 531 493 501 531 z "},"⁄":{"ha":833,"x_min":0,"x_max":0,"o":"m 817 986 l 672 986 l 17 0 l 161 0 z "},"½":{"ha":1342,"x_min":0,"x_max":0,"o":"m 1044 986 l 900 986 l 244 0 l 389 0 z m 57 776 l 196 776 l 196 449 l 310 449 l 310 988 l 219 988 b 89 850 219 899 174 850 l 57 850 z m 901 0 l 1285 0 l 1285 100 l 1032 100 b 1119 192 1039 131 1074 161 l 1158 217 b 1282 397 1238 269 1282 326 b 1104 557 1282 492 1204 557 b 908 379 1004 557 921 486 l 1022 375 b 1106 457 1032 429 1060 457 b 1171 396 1143 457 1171 432 b 1104 306 1171 361 1147 335 l 1060 276 b 901 0 922 186 901 86 z "},"⅓":{"ha":1324,"x_min":0,"x_max":0,"o":"m 1044 986 l 900 986 l 244 0 l 389 0 z m 57 776 l 196 776 l 196 449 l 310 449 l 310 988 l 219 988 b 89 850 219 899 174 850 l 57 850 z m 865 139 b 1069 -22 871 49 958 -22 b 1267 142 1181 -22 1267 50 b 1144 290 1267 211 1217 274 b 1246 413 1208 307 1246 358 b 1067 557 1246 494 1171 557 b 883 414 972 557 894 496 l 994 408 b 1067 457 997 436 1026 457 b 1135 393 1106 457 1135 429 b 1061 332 1135 363 1104 332 l 1025 332 l 1025 239 l 1061 239 b 1156 156 1115 239 1156 201 b 1069 78 1156 111 1118 78 b 976 143 1019 78 979 107 z "},"⅔":{"ha":1319,"x_min":0,"x_max":0,"o":"m 1040 986 l 896 986 l 240 0 l 385 0 z m 57 451 l 440 451 l 440 551 l 188 551 b 275 643 194 582 229 613 l 314 668 b 438 849 393 721 438 778 b 260 1008 438 943 360 1008 b 64 831 160 1008 76 938 l 178 826 b 261 908 188 881 215 908 b 326 847 299 908 326 883 b 260 757 326 813 303 786 l 215 728 b 57 451 78 638 57 538 z m 861 139 b 1065 -22 867 49 954 -22 b 1263 142 1176 -22 1263 50 b 1140 290 1263 211 1213 274 b 1242 413 1204 307 1242 358 b 1063 557 1242 494 1167 557 b 879 414 968 557 890 496 l 990 408 b 1063 457 993 436 1022 457 b 1131 393 1101 457 1131 429 b 1057 332 1131 363 1100 332 l 1021 332 l 1021 239 l 1057 239 b 1151 156 1111 239 1151 201 b 1065 78 1151 111 1114 78 b 972 143 1015 78 975 107 z "},"¼":{"ha":1317,"x_min":0,"x_max":0,"o":"m 1044 986 l 900 986 l 244 0 l 389 0 z m 57 776 l 196 776 l 196 449 l 310 449 l 310 988 l 219 988 b 89 850 219 899 174 850 l 57 850 z m 847 99 l 1093 99 l 1093 0 l 1206 0 l 1206 99 l 1260 99 l 1260 199 l 1206 199 l 1206 539 l 1110 539 l 847 193 z m 981 199 l 1093 350 l 1093 199 z "},"¾":{"ha":1346,"x_min":0,"x_max":0,"o":"m 1074 986 l 929 986 l 274 0 l 418 0 z m 57 590 b 261 429 63 500 150 429 b 458 593 372 429 458 501 b 336 742 458 663 408 725 b 438 864 400 758 438 810 b 258 1008 438 946 363 1008 b 75 865 164 1008 86 947 l 186 860 b 258 908 189 888 218 908 b 326 844 297 908 326 881 b 253 783 326 814 296 783 l 217 783 l 217 690 l 253 690 b 347 607 307 690 347 653 b 261 529 347 563 310 529 b 168 594 211 529 171 558 z m 876 99 l 1122 99 l 1122 0 l 1235 0 l 1235 99 l 1289 99 l 1289 199 l 1235 199 l 1235 539 l 1139 539 l 876 193 z m 1010 199 l 1122 350 l 1122 199 z "},"⅕":{"ha":1308,"x_min":0,"x_max":0,"o":"m 1044 986 l 900 986 l 244 0 l 389 0 z m 57 776 l 196 776 l 196 449 l 310 449 l 310 988 l 219 988 b 89 850 219 899 174 850 l 57 850 z m 857 138 b 1051 -22 865 43 950 -22 b 1251 175 1164 -22 1251 58 b 1076 365 1251 283 1174 365 b 989 335 1042 365 1011 356 l 1003 440 l 1221 440 l 1221 540 l 910 540 l 864 222 l 969 222 b 1054 274 993 263 1024 274 b 1140 175 1103 274 1140 229 b 1054 78 1140 118 1103 78 b 968 142 1011 78 974 104 z "},"⅛":{"ha":1321,"x_min":0,"x_max":0,"o":"m 1044 986 l 900 986 l 244 0 l 389 0 z m 57 776 l 196 776 l 196 449 l 310 449 l 310 988 l 219 988 b 89 850 219 899 174 850 l 57 850 z m 850 144 b 1057 -22 850 43 936 -22 b 1264 144 1178 -22 1264 43 b 1149 290 1264 213 1222 264 b 1238 406 1204 310 1238 350 b 1057 554 1238 492 1161 554 b 876 406 953 554 876 492 b 965 290 876 350 910 310 b 850 144 890 265 850 213 z m 961 158 b 1057 246 961 208 1000 246 b 1153 158 1114 246 1153 208 b 1057 78 1153 111 1114 78 b 961 158 1000 78 961 111 z m 988 392 b 1057 454 988 428 1015 454 b 1126 392 1099 454 1126 428 b 1057 324 1126 351 1099 324 b 988 392 1015 324 988 351 z "},"⅜":{"ha":1350,"x_min":0,"x_max":0,"o":"m 1074 986 l 929 986 l 274 0 l 418 0 z m 57 590 b 261 429 63 500 150 429 b 458 593 372 429 458 501 b 336 742 458 663 408 725 b 438 864 400 758 438 810 b 258 1008 438 946 363 1008 b 75 865 164 1008 86 947 l 186 860 b 258 908 189 888 218 908 b 326 844 297 908 326 881 b 253 783 326 814 296 783 l 217 783 l 217 690 l 253 690 b 347 607 307 690 347 653 b 261 529 347 563 310 529 b 168 594 211 529 171 558 z m 879 144 b 1086 -22 879 43 965 -22 b 1293 144 1207 -22 1293 43 b 1178 290 1293 213 1251 264 b 1267 406 1233 310 1267 350 b 1086 554 1267 492 1190 554 b 906 406 982 554 906 492 b 994 290 906 350 939 310 b 879 144 919 265 879 213 z m 990 158 b 1086 246 990 208 1029 246 b 1182 158 1143 246 1182 208 b 1086 78 1182 111 1143 78 b 990 158 1029 78 990 111 z m 1017 392 b 1086 454 1017 428 1044 454 b 1156 392 1128 454 1156 428 b 1086 324 1156 351 1128 324 b 1017 392 1044 324 1017 351 z "},"⅝":{"ha":1344,"x_min":0,"x_max":0,"o":"m 1068 986 l 924 986 l 268 0 l 413 0 z m 57 585 b 251 425 65 490 150 425 b 451 622 364 425 451 506 b 276 813 451 731 374 813 b 189 782 242 813 211 803 l 203 888 l 421 888 l 421 988 l 110 988 l 64 669 l 169 669 b 254 721 193 710 224 721 b 340 622 303 721 340 676 b 254 525 340 565 303 525 b 168 589 211 525 174 551 z m 874 144 b 1081 -22 874 43 960 -22 b 1288 144 1201 -22 1288 43 b 1172 290 1288 213 1246 264 b 1261 406 1228 310 1261 350 b 1081 554 1261 492 1185 554 b 900 406 976 554 900 492 b 989 290 900 350 933 310 b 874 144 914 265 874 213 z m 985 158 b 1081 246 985 208 1024 246 b 1176 158 1138 246 1176 208 b 1081 78 1176 111 1138 78 b 985 158 1024 78 985 111 z m 1011 392 b 1081 454 1011 428 1039 454 b 1150 392 1122 454 1150 428 b 1081 324 1150 351 1122 324 b 1011 392 1039 324 1011 351 z "},"⅞":{"ha":1667,"x_min":0,"x_max":0,"o":"m 1233 986 l 1089 986 l 433 0 l 578 0 z m 231 886 l 494 886 b 343 447 397 757 343 600 l 454 447 b 614 908 454 622 507 779 l 614 986 l 231 986 z m 1039 144 b 1246 -22 1039 43 1125 -22 b 1453 144 1367 -22 1453 43 b 1338 290 1453 213 1411 264 b 1426 406 1393 310 1426 350 b 1246 554 1426 492 1350 554 b 1065 406 1142 554 1065 492 b 1154 290 1065 350 1099 310 b 1039 144 1079 265 1039 213 z m 1150 158 b 1246 246 1150 208 1189 246 b 1342 158 1303 246 1342 208 b 1246 78 1342 111 1303 78 b 1150 158 1189 78 1150 111 z m 1176 392 b 1246 454 1176 428 1204 454 b 1315 392 1288 454 1315 428 b 1246 324 1315 351 1288 324 b 1176 392 1204 324 1176 351 z "},"₀":{"ha":833,"x_min":0,"x_max":0,"o":"m 417 -21 b 638 267 549 -21 638 90 b 417 557 638 444 549 557 b 196 267 285 557 196 444 b 417 -21 196 90 285 -21 z m 304 267 b 417 457 304 389 344 457 b 474 438 438 457 457 450 l 314 182 b 304 267 307 207 304 235 z m 360 99 l 519 356 b 529 267 526 329 529 300 b 417 79 529 147 489 79 b 360 99 396 79 376 86 z "},"₁":{"ha":833,"x_min":0,"x_max":0,"o":"m 281 401 l 249 401 l 249 328 l 388 328 l 388 0 l 501 0 l 501 539 l 411 539 b 281 401 411 450 365 401 z "},"₂":{"ha":833,"x_min":0,"x_max":0,"o":"m 224 379 l 338 375 b 421 457 347 429 375 457 b 486 396 458 457 486 432 b 419 306 486 361 463 335 l 375 276 b 217 0 238 186 217 86 l 600 0 l 600 100 l 347 100 b 435 192 354 131 389 161 l 474 217 b 597 397 553 269 597 326 b 419 557 597 492 519 557 b 224 379 319 557 236 486 z "},"₃":{"ha":833,"x_min":0,"x_max":0,"o":"m 413 332 l 376 332 l 376 239 l 413 239 b 507 156 467 239 507 201 b 421 78 507 111 469 78 b 328 143 371 78 331 107 l 217 139 b 421 -22 222 49 310 -22 b 618 142 532 -22 618 50 b 496 290 618 211 568 274 b 597 413 560 307 597 358 b 418 557 597 494 522 557 b 235 414 324 557 246 496 l 346 408 b 418 457 349 436 378 457 b 486 393 457 457 486 429 b 413 332 486 363 456 332 z "},"₄":{"ha":833,"x_min":0,"x_max":0,"o":"m 547 539 l 451 539 l 189 193 l 189 99 l 435 99 l 435 0 l 547 0 l 547 99 l 601 99 l 601 199 l 547 199 z m 322 199 l 435 350 l 435 199 z "},"₅":{"ha":833,"x_min":0,"x_max":0,"o":"m 586 540 l 275 540 l 229 222 l 335 222 b 419 274 358 263 389 274 b 506 175 468 274 506 229 b 419 78 506 118 468 78 b 333 142 376 78 339 104 l 222 138 b 417 -22 231 43 315 -22 b 617 175 529 -22 617 58 b 442 365 617 283 539 365 b 354 335 407 365 376 356 l 368 440 l 586 440 z "},"₆":{"ha":833,"x_min":0,"x_max":0,"o":"m 503 410 l 613 418 b 438 554 594 501 521 554 b 224 233 294 554 224 408 b 418 -22 224 92 293 -22 b 615 174 532 -22 615 56 b 440 367 615 289 540 367 b 332 315 393 367 357 346 b 435 460 343 399 375 460 b 503 410 469 460 493 443 z m 340 174 b 424 267 342 229 376 267 b 504 174 475 267 504 229 b 422 78 504 117 474 78 b 340 174 372 78 339 117 z "},"₇":{"ha":833,"x_min":0,"x_max":0,"o":"m 231 538 l 231 438 l 494 438 b 343 -1 397 308 343 151 l 454 -1 b 614 460 454 174 507 331 l 614 538 z "},"₈":{"ha":833,"x_min":0,"x_max":0,"o":"m 417 -22 b 624 144 538 -22 624 43 b 508 290 624 213 582 264 b 597 406 564 310 597 350 b 417 554 597 492 521 554 b 236 406 313 554 236 492 b 325 290 236 350 269 310 b 210 144 250 265 210 213 b 417 -22 210 43 296 -22 z m 321 158 b 417 246 321 208 360 246 b 513 158 474 246 513 208 b 417 78 513 111 474 78 b 321 158 360 78 321 111 z m 347 392 b 417 454 347 428 375 454 b 486 392 458 454 486 428 b 417 324 486 351 458 324 b 347 392 375 324 347 351 z "},"₉":{"ha":833,"x_min":0,"x_max":0,"o":"m 339 122 l 228 114 b 404 -22 247 31 321 -22 b 618 299 535 -22 618 104 b 424 554 618 440 549 554 b 226 358 310 554 226 476 b 401 165 226 243 301 165 b 510 217 449 165 486 186 b 407 72 499 125 461 72 b 339 122 372 72 349 89 z m 338 358 b 419 454 338 415 368 454 b 501 358 468 454 503 415 b 418 265 500 303 464 265 b 338 358 367 265 338 303 z "},"⁰":{"ha":833,"x_min":0,"x_max":0,"o":"m 417 431 b 638 718 549 431 638 542 b 417 1008 638 896 549 1008 b 196 718 285 1008 196 896 b 417 431 196 542 285 431 z m 304 718 b 417 908 304 840 344 908 b 474 889 438 908 457 901 l 314 633 b 304 718 307 658 304 686 z m 360 550 l 519 807 b 529 718 526 781 529 751 b 417 531 529 599 489 531 b 360 550 396 531 376 538 z "},"¹":{"ha":833,"x_min":0,"x_max":0,"o":"m 281 850 l 249 850 l 249 776 l 388 776 l 388 449 l 501 449 l 501 988 l 411 988 b 281 850 411 899 365 850 z "},"²":{"ha":833,"x_min":0,"x_max":0,"o":"m 224 831 l 338 826 b 421 908 347 881 375 908 b 486 847 458 908 486 883 b 419 757 486 813 463 786 l 375 728 b 217 451 238 638 217 538 l 600 451 l 600 551 l 347 551 b 435 643 354 582 389 613 l 474 668 b 597 849 553 721 597 778 b 419 1008 597 943 519 1008 b 224 831 319 1008 236 938 z "},"³":{"ha":833,"x_min":0,"x_max":0,"o":"m 413 783 l 376 783 l 376 690 l 413 690 b 507 607 467 690 507 653 b 421 529 507 563 469 529 b 328 594 371 529 331 558 l 217 590 b 421 429 222 500 310 429 b 618 593 532 429 618 501 b 496 742 618 663 568 725 b 597 864 560 758 597 810 b 418 1008 597 946 522 1008 b 235 865 324 1008 246 947 l 346 860 b 418 908 349 888 378 908 b 486 844 457 908 486 881 b 413 783 486 814 456 783 z "},"⁴":{"ha":833,"x_min":0,"x_max":0,"o":"m 547 988 l 451 988 l 189 642 l 189 547 l 435 547 l 435 449 l 547 449 l 547 547 l 601 547 l 601 647 l 547 647 z m 322 647 l 435 799 l 435 647 z "},"⁵":{"ha":833,"x_min":0,"x_max":0,"o":"m 586 988 l 275 988 l 229 669 l 335 669 b 419 721 358 710 389 721 b 506 622 468 721 506 676 b 419 525 506 565 468 525 b 333 589 376 525 339 551 l 222 585 b 417 425 231 490 315 425 b 617 622 529 425 617 506 b 442 813 617 731 539 813 b 354 782 407 813 376 803 l 368 888 l 586 888 z "},"⁶":{"ha":833,"x_min":0,"x_max":0,"o":"m 503 864 l 613 872 b 438 1008 594 956 521 1008 b 224 688 294 1008 224 863 b 418 432 224 546 293 432 b 615 628 532 432 615 510 b 440 821 615 743 540 821 b 332 769 393 821 357 800 b 435 914 343 853 375 914 b 503 864 469 914 493 897 z m 340 628 b 424 721 342 683 376 721 b 504 628 475 721 504 683 b 422 532 504 571 474 532 b 340 628 372 532 339 571 z "},"⁷":{"ha":833,"x_min":0,"x_max":0,"o":"m 231 986 l 231 886 l 494 886 b 343 447 397 757 343 600 l 454 447 b 614 908 454 622 507 779 l 614 986 z "},"⁸":{"ha":833,"x_min":0,"x_max":0,"o":"m 417 432 b 624 599 538 432 624 497 b 508 744 624 667 582 718 b 597 860 564 764 597 804 b 417 1008 597 946 521 1008 b 236 860 313 1008 236 946 b 325 744 236 804 269 764 b 210 599 250 719 210 667 b 417 432 210 497 296 432 z m 321 613 b 417 700 321 663 360 700 b 513 613 474 700 513 663 b 417 532 513 565 474 532 b 321 613 360 532 321 565 z m 347 846 b 417 908 347 882 375 908 b 486 846 458 908 486 882 b 417 778 486 806 458 778 b 347 846 375 778 347 806 z "},"⁹":{"ha":833,"x_min":0,"x_max":0,"o":"m 339 576 l 228 568 b 404 432 247 485 321 432 b 618 753 535 432 618 558 b 424 1008 618 894 549 1008 b 226 813 310 1008 226 931 b 401 619 226 697 301 619 b 510 671 449 619 486 640 b 407 526 499 579 461 526 b 339 576 372 526 349 543 z m 338 813 b 419 908 338 869 368 908 b 501 813 468 908 503 869 b 418 719 500 757 464 719 b 338 813 367 719 338 757 z "}," ":{"ha":317,"x_min":0,"x_max":0,"o":""},"。":{"ha":496,"x_min":0,"x_max":0,"o":"m 249 -168 b 442 25 356 -168 442 -81 b 249 221 442 132 356 221 b 54 25 142 221 54 132 b 249 -168 54 -81 142 -168 z m 169 25 b 249 106 169 68 206 106 b 326 25 293 106 326 68 b 249 -53 326 -18 293 -53 b 169 25 206 -53 169 -18 z "},".":{"ha":331,"x_min":0,"x_max":0,"o":"m 54 206 l 54 0 l 276 0 l 276 206 z "},",":{"ha":331,"x_min":0,"x_max":0,"o":"m 276 0 l 276 206 l 54 206 l 54 0 l 132 0 l 69 -219 l 182 -219 z "},":":{"ha":428,"x_min":0,"x_max":0,"o":"m 103 206 l 103 0 l 325 0 l 325 206 z m 103 447 l 325 447 l 325 653 l 103 653 z "},";":{"ha":429,"x_min":0,"x_max":0,"o":"m 103 653 l 103 447 l 325 447 l 325 653 z m 103 0 l 181 0 l 118 -219 l 231 -219 l 325 0 l 325 206 l 103 206 z "},"…":{"ha":967,"x_min":0,"x_max":0,"o":"m 54 206 l 54 0 l 276 0 l 276 206 z m 371 0 l 593 0 l 593 206 l 371 206 z m 690 0 l 913 0 l 913 206 l 690 206 z "},"!":{"ha":350,"x_min":0,"x_max":0,"o":"m 72 986 l 72 689 b 107 317 72 568 94 436 l 249 317 b 282 689 260 436 282 568 l 282 986 z m 64 0 l 286 0 l 286 206 l 64 206 z "},"¡":{"ha":350,"x_min":0,"x_max":0,"o":"m 72 72 l 72 -225 l 282 -225 l 282 72 b 249 444 282 193 260 325 l 107 444 b 72 72 94 325 72 193 z m 64 556 l 286 556 l 286 761 l 64 761 z "},"?":{"ha":826,"x_min":0,"x_max":0,"o":"m 303 317 l 513 317 b 613 490 513 399 539 443 b 772 725 728 561 772 626 b 415 1008 772 892 626 1008 b 54 696 215 1008 72 876 l 271 685 b 419 836 283 776 339 836 b 560 725 504 836 560 790 b 439 588 560 650 497 631 b 303 317 336 518 303 446 z m 294 0 l 517 0 l 517 206 l 294 206 z "},"¿":{"ha":826,"x_min":0,"x_max":0,"o":"m 524 467 l 314 467 b 214 293 314 385 288 340 b 54 58 99 222 54 157 b 411 -225 54 -108 200 -225 b 772 88 611 -225 754 -93 l 556 99 b 407 -53 543 7 488 -53 b 267 58 322 -53 267 -7 b 388 196 267 133 329 153 b 524 467 490 265 524 338 z m 310 578 l 532 578 l 532 783 l 310 783 z "},"·":{"ha":331,"x_min":0,"x_max":0,"o":"m 54 504 l 54 299 l 276 299 l 276 504 z "},"•":{"ha":468,"x_min":0,"x_max":0,"o":"m 236 210 b 417 386 339 210 417 286 b 236 564 417 490 339 564 b 54 386 132 564 54 490 b 236 210 54 286 132 210 z "},"*":{"ha":590,"x_min":0,"x_max":0,"o":"m 538 821 l 396 818 l 469 939 l 364 1000 l 296 876 l 228 1000 l 122 939 l 196 818 l 54 821 l 54 700 l 196 701 l 122 581 l 228 519 l 296 643 l 364 519 l 469 581 l 396 701 l 538 700 z "},"〃":{"ha":557,"x_min":0,"x_max":0,"o":"m 296 668 l 139 668 l 54 390 l 168 390 z m 261 390 l 375 390 l 503 668 l 347 668 z "},"#":{"ha":818,"x_min":0,"x_max":0,"o":"m 67 0 l 261 0 l 296 226 l 444 226 l 410 0 l 603 0 l 638 226 l 736 226 l 758 393 l 663 393 l 692 583 l 788 583 l 810 750 l 718 750 l 754 986 l 560 985 l 524 750 l 376 750 l 413 986 l 218 985 l 182 750 l 78 750 l 56 583 l 157 583 l 128 393 l 25 393 l 4 226 l 101 226 z m 321 393 l 350 583 l 499 583 l 469 393 z "},"/":{"ha":726,"x_min":0,"x_max":0,"o":"m 44 -153 l 251 -153 l 663 1042 l 454 1042 z "},"\\":{"ha":722,"x_min":0,"x_max":0,"o":"m 669 -153 l 260 1042 l 51 1042 l 463 -153 z "},"＆":{"ha":988,"x_min":0,"x_max":0,"o":"m 453 1008 b 739 732 626 1001 765 878 b 535 506 724 643 650 567 l 692 308 b 724 456 715 343 725 403 l 938 435 b 828 156 931 328 889 225 l 961 0 l 717 0 l 681 43 b 460 -17 622 4 543 -17 b 50 267 213 -17 50 86 b 242 531 50 378 106 450 b 256 540 247 535 253 536 b 154 763 186 617 154 689 b 453 1008 154 910 293 1014 z m 264 278 b 433 158 264 207 326 158 b 543 193 478 158 518 172 l 365 414 b 264 278 314 382 263 339 z m 368 746 b 422 625 368 714 385 675 b 529 747 492 660 529 704 b 457 831 529 793 501 828 b 368 746 406 833 368 794 z "},"＊":{"ha":590,"x_min":0,"x_max":0,"o":"m 538 821 l 396 818 l 469 939 l 364 1000 l 296 876 l 228 1000 l 122 939 l 196 818 l 54 821 l 54 700 l 196 701 l 122 581 l 228 519 l 296 643 l 364 519 l 469 581 l 396 701 l 538 700 z "},"＠":{"ha":1306,"x_min":0,"x_max":0,"o":"m 818 681 l 813 625 b 650 700 781 672 721 700 b 347 403 472 700 364 564 b 596 115 329 246 418 115 b 804 243 689 115 771 167 b 1249 440 842 44 1218 67 b 714 986 1278 747 1026 986 b 54 417 364 986 71 736 b 928 -87 29 -29 446 -264 l 894 58 b 226 417 504 -86 211 72 b 706 836 238 656 442 836 b 1101 440 947 836 1114 668 b 947 250 1094 272 997 203 b 922 385 922 264 918 322 l 946 681 z m 514 403 b 665 569 522 494 571 569 b 789 403 760 569 796 493 b 636 239 781 314 731 239 b 514 403 542 239 504 314 z "},"＼":{"ha":661,"x_min":0,"x_max":0,"o":"m 668 -153 l 258 1042 l 50 1042 l 461 -153 z "},"：":{"ha":331,"x_min":0,"x_max":0,"o":"m 54 206 l 54 0 l 276 0 l 276 206 z m 54 447 l 276 447 l 276 653 l 54 653 z "},"，":{"ha":331,"x_min":0,"x_max":0,"o":"m 276 0 l 276 206 l 54 206 l 54 0 l 132 0 l 69 -219 l 182 -219 z "},"！":{"ha":382,"x_min":0,"x_max":0,"o":"m 72 986 l 72 689 b 107 317 72 568 94 436 l 249 317 b 282 689 260 436 282 568 l 282 986 z m 64 0 l 286 0 l 286 206 l 64 206 z "},"＃":{"ha":818,"x_min":0,"x_max":0,"o":"m 57 0 l 251 0 l 286 226 l 435 226 l 400 0 l 593 0 l 628 226 l 726 226 l 749 393 l 653 393 l 682 583 l 778 583 l 800 750 l 708 750 l 744 986 l 550 985 l 514 750 l 367 750 l 403 986 l 208 985 l 172 750 l 68 750 l 46 583 l 147 583 l 118 393 l 15 393 l -6 226 l 92 226 z m 311 393 l 340 583 l 489 583 l 460 393 z "},"％":{"ha":1167,"x_min":0,"x_max":0,"o":"m 840 1008 l 121 -17 l 332 -17 l 1051 1008 z m 54 746 b 279 507 54 610 153 507 b 503 746 403 507 503 610 b 279 988 503 885 403 988 b 54 746 153 988 54 885 z m 197 746 b 279 874 197 825 228 874 b 360 746 329 874 360 825 b 279 621 360 668 329 621 b 197 746 228 621 197 668 z m 664 242 b 888 0 664 103 764 0 b 1113 242 1014 0 1113 103 b 888 481 1113 378 1014 481 b 664 242 764 481 664 378 z m 808 242 b 888 367 808 319 838 367 b 969 242 940 367 969 319 b 888 114 969 163 940 114 b 808 242 838 114 808 163 z "},"．":{"ha":331,"x_min":0,"x_max":0,"o":"m 54 193 l 54 -12 l 276 -12 l 276 193 z "},"？":{"ha":826,"x_min":0,"x_max":0,"o":"m 303 317 l 513 317 b 613 490 513 399 539 443 b 772 725 728 561 772 626 b 415 1008 772 892 626 1008 b 54 696 215 1008 72 876 l 271 685 b 419 836 283 776 339 836 b 560 725 504 836 560 790 b 439 588 560 650 497 631 b 303 317 336 518 303 446 z m 294 0 l 517 0 l 517 206 l 294 206 z "},"＂":{"ha":529,"x_min":0,"x_max":0,"o":"m 314 986 l 321 604 l 443 604 l 475 869 l 475 986 z m 54 871 l 88 604 l 210 604 l 215 986 l 54 986 z "},"＇":{"ha":269,"x_min":0,"x_max":0,"o":"m 54 986 l 54 869 l 74 604 l 197 604 l 215 869 l 215 986 z "},"；":{"ha":331,"x_min":0,"x_max":0,"o":"m 54 653 l 54 447 l 276 447 l 276 653 z m 54 0 l 132 0 l 69 -219 l 182 -219 l 276 0 l 276 206 l 54 206 z "},"／":{"ha":669,"x_min":0,"x_max":0,"o":"m 44 -153 l 251 -153 l 663 1042 l 454 1042 z "},"＿":{"ha":783,"x_min":0,"x_max":0,"o":"m 54 -51 l 54 -221 l 731 -221 l 731 -51 z "},"-":{"ha":585,"x_min":0,"x_max":0,"o":"m 54 490 l 54 319 l 531 319 l 531 490 z "},"­":{"ha":589,"x_min":0,"x_max":0,"o":"m 54 490 l 54 319 l 531 319 l 531 490 z "},"–":{"ha":831,"x_min":0,"x_max":0,"o":"m 54 490 l 54 321 l 778 321 l 778 490 z "},"—":{"ha":1269,"x_min":0,"x_max":0,"o":"m 54 490 l 54 321 l 1217 321 l 1217 490 z "},"_":{"ha":783,"x_min":0,"x_max":0,"o":"m 54 -51 l 54 -221 l 731 -221 l 731 -51 z "},"〜":{"ha":1206,"x_min":0,"x_max":0,"o":"m 1049 586 l 1151 450 b 825 299 1047 350 936 299 b 572 382 756 299 729 299 b 386 438 504 418 436 438 b 154 314 297 438 228 396 l 54 456 b 385 615 182 574 267 615 b 600 556 449 615 533 594 b 825 476 733 482 767 476 b 1049 586 904 476 954 501 z "},"－":{"ha":1001,"x_min":0,"x_max":0,"o":"m 54 572 l 54 403 l 947 403 l 947 572 z "},"(":{"ha":482,"x_min":0,"x_max":0,"o":"m 428 1042 l 242 1042 b 242 -153 -8 651 -8 238 l 428 -153 b 428 1042 204 246 204 643 z "},")":{"ha":482,"x_min":0,"x_max":0,"o":"m 240 1042 l 54 1042 b 54 -153 278 643 278 246 l 240 -153 b 240 1042 490 238 490 651 z "},"{":{"ha":599,"x_min":0,"x_max":0,"o":"m 54 522 l 54 358 b 179 204 138 360 179 318 l 179 89 b 481 -174 179 -64 303 -174 l 544 -174 l 544 0 b 378 121 429 -4 378 36 l 378 210 b 178 436 378 336 296 425 l 178 444 b 378 671 294 456 378 546 l 378 758 b 544 874 378 842 429 878 l 544 1053 l 481 1053 b 179 792 303 1053 179 944 l 179 676 b 54 522 179 563 138 519 z "},"}":{"ha":599,"x_min":0,"x_max":0,"o":"m 544 358 l 544 522 b 419 676 461 519 419 563 l 419 792 b 118 1053 419 944 296 1053 l 54 1053 l 54 874 b 221 758 169 878 221 842 l 221 671 b 421 444 221 546 304 456 l 421 436 b 221 210 303 425 221 336 l 221 121 b 54 0 221 36 169 -4 l 54 -174 l 118 -174 b 419 89 296 -174 419 -64 l 419 204 b 544 358 419 318 461 360 z "},"[":{"ha":531,"x_min":0,"x_max":0,"o":"m 53 1042 l 53 -153 l 475 -153 l 475 21 l 253 21 l 253 868 l 475 868 l 475 1042 z "},"]":{"ha":531,"x_min":0,"x_max":0,"o":"m 476 1042 l 54 1042 l 54 868 l 276 868 l 276 21 l 54 21 l 54 -153 l 476 -153 z "},"〈":{"ha":550,"x_min":0,"x_max":0,"o":"m 290 1140 l 54 492 l 290 -158 l 497 -158 l 261 492 l 497 1140 z "},"〉":{"ha":550,"x_min":0,"x_max":0,"o":"m 260 1140 l 53 1140 l 289 492 l 53 -158 l 260 -158 l 496 492 z "},"【":{"ha":500,"x_min":0,"x_max":0,"o":"m 446 1146 l 53 1146 l 53 -87 l 446 -87 b 446 1146 208 311 208 749 z "},"】":{"ha":500,"x_min":0,"x_max":0,"o":"m 447 1146 l 54 1146 b 54 -87 292 749 292 311 l 447 -87 z "},"｛":{"ha":599,"x_min":0,"x_max":0,"o":"m 54 522 l 54 358 b 179 204 138 360 179 318 l 179 89 b 481 -174 179 -64 303 -174 l 544 -174 l 544 0 b 378 121 429 -4 378 36 l 378 210 b 178 436 378 336 296 425 l 178 444 b 378 671 294 456 378 546 l 378 758 b 544 874 378 842 429 878 l 544 1053 l 481 1053 b 179 792 303 1053 179 944 l 179 676 b 54 522 179 563 138 519 z "},"｝":{"ha":599,"x_min":0,"x_max":0,"o":"m 544 358 l 544 522 b 419 676 461 519 419 563 l 419 792 b 118 1053 419 944 296 1053 l 54 1053 l 54 874 b 221 758 169 878 221 842 l 221 671 b 421 444 221 546 304 456 l 421 436 b 221 210 303 425 221 336 l 221 121 b 54 0 221 36 169 -4 l 54 -174 l 118 -174 b 419 89 296 -174 419 -64 l 419 204 b 544 358 419 318 461 360 z "},"「":{"ha":533,"x_min":0,"x_max":0,"o":"m 54 325 l 190 325 l 190 1014 l 479 1014 l 479 1147 l 54 1147 z "},"」":{"ha":533,"x_min":0,"x_max":0,"o":"m 479 679 l 343 679 l 343 -10 l 54 -10 l 54 -143 l 479 -143 z "},"《":{"ha":881,"x_min":0,"x_max":0,"o":"m 290 1140 l 54 492 l 290 -158 l 497 -158 l 261 492 l 497 1140 z m 385 492 l 621 -158 l 828 -158 l 592 492 l 828 1140 l 621 1140 z "},"》":{"ha":881,"x_min":0,"x_max":0,"o":"m 590 1140 l 383 1140 l 619 492 l 383 -158 l 590 -158 l 826 492 z m 53 -158 l 260 -158 l 496 492 l 260 1140 l 53 1140 l 289 492 z "},"〔":{"ha":544,"x_min":0,"x_max":0,"o":"m 399 1181 l 53 871 l 53 111 l 401 -203 l 490 -106 l 189 165 l 189 817 l 488 1083 z "},"〕":{"ha":544,"x_min":0,"x_max":0,"o":"m 146 1181 l 57 1083 l 356 817 l 356 165 l 54 -106 l 143 -203 l 492 111 l 492 871 z "},"『":{"ha":528,"x_min":0,"x_max":0,"o":"m 54 324 l 276 324 l 276 925 l 475 925 l 475 1147 l 54 1147 z m 115 385 l 115 1086 l 413 1086 l 413 986 l 214 986 l 214 385 z "},"』":{"ha":528,"x_min":0,"x_max":0,"o":"m 474 689 l 251 689 l 251 88 l 53 88 l 53 -135 l 474 -135 z m 115 -74 l 115 26 l 314 26 l 314 628 l 413 628 l 413 -74 z "},"〖":{"ha":524,"x_min":0,"x_max":0,"o":"m 469 1146 l 54 1146 l 54 -87 l 469 -87 b 469 1146 232 311 232 749 z m 133 -14 l 133 1072 l 340 1072 b 340 -14 168 713 169 349 z "},"〗":{"ha":524,"x_min":0,"x_max":0,"o":"m 469 1146 l 54 1146 b 54 -87 292 749 292 311 l 469 -87 z m 183 -14 b 183 1072 354 349 356 713 l 390 1072 l 390 -14 z "},"［":{"ha":531,"x_min":0,"x_max":0,"o":"m 53 1042 l 53 -153 l 475 -153 l 475 21 l 253 21 l 253 868 l 475 868 l 475 1042 z "},"］":{"ha":531,"x_min":0,"x_max":0,"o":"m 476 1042 l 54 1042 l 54 868 l 276 868 l 276 21 l 54 21 l 54 -153 l 476 -153 z "},"（":{"ha":482,"x_min":0,"x_max":0,"o":"m 428 1042 l 242 1042 b 242 -153 -8 651 -8 238 l 428 -153 b 428 1042 204 246 204 643 z "},"）":{"ha":482,"x_min":0,"x_max":0,"o":"m 240 1042 l 54 1042 b 54 -153 278 643 278 246 l 240 -153 b 240 1042 490 238 490 651 z "},"‚":{"ha":336,"x_min":0,"x_max":0,"o":"m 279 0 l 279 206 l 57 206 l 57 0 l 135 0 l 72 -219 l 185 -219 z "},"„":{"ha":635,"x_min":0,"x_max":0,"o":"m 578 0 l 578 206 l 356 206 l 356 0 l 433 0 l 371 -219 l 483 -219 z m 57 0 l 135 0 l 72 -219 l 185 -219 l 279 0 l 279 206 l 57 206 z "},"“":{"ha":635,"x_min":0,"x_max":0,"o":"m 57 782 l 57 576 l 279 576 l 279 782 l 201 782 l 264 1001 l 151 1001 z m 356 576 l 578 576 l 578 782 l 500 782 l 563 1001 l 450 1001 l 356 782 z "},"”":{"ha":635,"x_min":0,"x_max":0,"o":"m 578 779 l 578 985 l 356 985 l 356 779 l 433 779 l 371 560 l 483 560 z m 57 779 l 135 779 l 72 560 l 185 560 l 279 779 l 279 985 l 57 985 z "},"‘":{"ha":336,"x_min":0,"x_max":0,"o":"m 57 782 l 57 576 l 279 576 l 279 782 l 201 782 l 264 1001 l 151 1001 z "},"’":{"ha":336,"x_min":0,"x_max":0,"o":"m 279 781 l 279 986 l 57 986 l 57 781 l 135 781 l 72 561 l 185 561 z "},"«":{"ha":910,"x_min":0,"x_max":0,"o":"m 261 661 l 53 415 l 53 351 l 261 106 l 489 106 l 253 383 l 489 661 z m 419 351 l 628 106 l 856 106 l 619 383 l 856 661 l 628 661 l 419 415 z "},"»":{"ha":910,"x_min":0,"x_max":0,"o":"m 649 661 l 421 661 l 657 383 l 421 106 l 649 106 l 857 351 l 857 415 z m 56 106 l 283 106 l 492 351 l 492 415 l 283 661 l 56 661 l 292 383 z "},"‹":{"ha":543,"x_min":0,"x_max":0,"o":"m 261 661 l 53 415 l 53 351 l 261 106 l 489 106 l 253 383 l 489 661 z "},"›":{"ha":543,"x_min":0,"x_max":0,"o":"m 282 661 l 54 661 l 290 383 l 54 106 l 282 106 l 490 351 l 490 415 z "},"\"":{"ha":535,"x_min":0,"x_max":0,"o":"m 317 986 l 324 604 l 446 604 l 478 869 l 478 986 z m 57 871 l 90 604 l 213 604 l 218 986 l 57 986 z "},"'":{"ha":275,"x_min":0,"x_max":0,"o":"m 57 986 l 57 869 l 76 604 l 200 604 l 218 869 l 218 986 z "},"ƒ":{"ha":735,"x_min":0,"x_max":0,"o":"m 64 0 l 196 -1 b 422 196 325 -3 408 72 l 463 550 l 689 550 l 689 706 l 479 706 l 483 740 b 568 817 489 790 518 817 l 689 817 l 689 985 l 514 986 b 288 789 388 988 301 910 l 278 706 l 143 706 l 143 550 l 261 550 l 228 244 b 149 168 222 196 193 168 l 64 168 z "},"฿":{"ha":936,"x_min":0,"x_max":0,"o":"m 103 0 l 400 0 l 400 -126 l 513 -126 l 513 0 b 865 279 740 10 865 110 b 625 510 865 415 781 494 b 824 713 749 525 824 600 b 513 982 824 875 717 963 l 513 1118 l 400 1118 l 400 986 l 103 986 z m 314 172 l 314 425 l 400 425 l 400 172 z m 314 578 l 314 814 l 400 814 l 400 578 z m 513 174 l 513 424 b 664 297 614 417 664 374 b 513 174 664 222 611 181 z m 513 583 l 513 808 b 622 694 586 794 622 756 b 513 583 622 633 586 597 z "},"☹":{"ha":1174,"x_min":0,"x_max":0,"o":"m 588 -36 b 1119 497 881 -36 1119 201 b 588 1028 1119 790 881 1028 b 54 497 292 1028 54 790 b 588 -36 54 201 292 -36 z m 172 497 b 588 911 172 726 357 911 b 1003 497 818 911 1003 726 b 588 81 1003 265 818 81 b 172 497 357 81 172 265 z m 319 294 l 436 294 b 589 406 461 365 517 406 b 743 294 663 406 717 365 l 860 294 b 589 513 828 426 725 513 b 319 294 454 513 353 426 z m 379 640 b 456 564 379 597 413 564 b 529 640 494 564 529 597 b 456 714 529 681 494 714 b 379 640 413 714 379 681 z m 650 640 b 726 564 650 597 685 564 b 800 640 767 564 800 597 b 726 714 800 681 767 714 b 650 640 685 714 650 681 z "},"☺":{"ha":1174,"x_min":0,"x_max":0,"o":"m 588 -36 b 1119 497 881 -36 1119 201 b 588 1028 1119 790 881 1028 b 54 497 292 1028 54 790 b 588 -36 54 201 292 -36 z m 172 497 b 588 911 172 726 357 911 b 1003 497 818 911 1003 726 b 588 81 1003 265 818 81 b 172 497 357 81 172 265 z m 290 492 b 589 232 313 342 436 232 b 889 492 742 232 867 342 l 779 492 b 589 338 760 403 682 338 b 399 492 497 338 419 403 z m 379 640 b 456 564 379 597 413 564 b 529 640 494 564 529 597 b 456 714 529 681 494 714 b 379 640 413 714 379 681 z m 650 640 b 726 564 650 597 685 564 b 800 640 767 564 800 597 b 726 714 800 681 767 714 b 650 640 685 714 650 681 z "},"@":{"ha":1333,"x_min":0,"x_max":0,"o":"m 832 681 l 828 626 b 664 700 794 672 736 700 b 363 403 488 700 378 564 b 611 115 344 246 433 115 b 819 244 704 115 788 167 b 1275 440 854 44 1244 67 b 728 986 1304 747 1065 986 b 57 417 369 986 74 736 b 943 -87 32 -29 456 -269 l 910 58 b 242 417 519 -86 225 72 b 721 836 253 656 457 836 b 1117 440 963 836 1128 668 b 963 250 1110 272 1011 203 b 938 385 936 264 932 322 l 961 681 z m 533 403 b 681 569 542 493 590 569 b 797 403 769 569 804 493 b 651 239 789 317 740 239 b 533 403 560 239 526 315 z "},"&":{"ha":983,"x_min":0,"x_max":0,"o":"m 453 1008 b 739 732 626 1001 765 878 b 535 506 724 643 650 567 l 692 308 b 724 456 715 343 725 403 l 938 435 b 828 156 931 328 889 225 l 961 0 l 717 0 l 681 43 b 460 -17 622 4 543 -17 b 50 267 213 -17 50 86 b 242 531 50 378 106 450 b 256 540 247 535 253 536 b 154 763 186 617 154 689 b 453 1008 154 910 293 1014 z m 264 278 b 433 158 264 207 326 158 b 543 193 478 158 518 172 l 365 414 b 264 278 314 382 263 339 z m 368 746 b 422 625 368 714 385 675 b 529 747 492 660 529 704 b 457 831 529 793 501 828 b 368 746 406 833 368 794 z "},"¶":{"ha":908,"x_min":0,"x_max":0,"o":"m 806 986 l 386 986 b 49 706 179 986 49 878 b 344 429 49 546 161 442 l 344 0 l 526 0 l 526 881 l 624 881 l 624 0 l 806 0 z "},"§":{"ha":835,"x_min":0,"x_max":0,"o":"m 556 685 l 764 693 b 425 943 740 854 596 943 b 92 714 222 943 92 863 b 203 563 92 650 126 601 b 92 406 128 526 94 471 b 364 179 86 286 169 218 b 547 74 453 158 547 132 b 429 -3 547 28 501 -3 b 281 111 349 -3 293 39 l 71 100 b 435 -151 85 -54 224 -151 b 761 68 625 -151 761 -76 b 653 235 761 140 733 193 b 761 386 726 267 761 317 b 442 625 761 526 650 590 b 306 718 339 650 308 672 b 417 797 304 764 351 797 b 556 685 494 797 544 753 z m 306 404 b 414 478 306 447 351 478 b 547 393 471 478 547 453 b 429 318 547 347 500 318 b 306 404 343 325 306 358 z "},"©":{"ha":1138,"x_min":0,"x_max":0,"o":"m 575 775 b 833 557 718 775 821 689 l 686 550 b 575 657 676 618 635 657 b 447 497 494 657 447 600 b 575 336 447 394 494 336 b 689 449 639 336 681 374 l 836 443 b 575 217 825 306 722 217 b 301 497 410 217 301 326 b 575 775 301 668 410 775 z m 57 497 b 569 -17 57 213 286 -17 b 1082 497 853 -17 1082 213 b 569 1008 1082 779 853 1008 b 57 497 286 1008 57 779 z m 175 497 b 569 892 175 713 353 892 b 964 497 786 892 964 713 b 569 100 964 279 786 100 b 175 497 353 100 175 279 z "},"®":{"ha":814,"x_min":0,"x_max":0,"o":"m 403 839 l 272 839 l 272 479 l 360 479 l 360 607 l 400 607 l 468 479 l 564 479 l 482 621 b 553 722 528 638 553 676 b 403 839 553 793 494 839 z m 57 658 b 407 306 57 463 213 306 b 757 658 601 306 757 463 b 407 1008 757 851 601 1008 b 57 658 213 1008 57 851 z m 151 658 b 407 914 151 797 268 914 b 663 658 547 914 663 797 b 407 401 663 518 547 401 b 151 658 268 401 151 518 z m 358 679 l 358 763 l 403 763 b 464 721 440 763 464 750 b 403 679 464 693 440 679 z "},"℗":{"ha":814,"x_min":0,"x_max":0,"o":"m 421 839 l 293 839 l 293 479 l 379 479 l 379 607 l 424 607 b 574 722 518 607 574 651 b 421 839 574 794 514 839 z m 57 658 b 407 306 57 463 213 306 b 757 658 601 306 757 463 b 407 1008 757 851 601 1008 b 57 658 213 1008 57 851 z m 151 658 b 407 914 151 797 268 914 b 663 658 547 914 663 797 b 407 401 663 518 547 401 b 151 658 268 401 151 518 z m 378 679 l 378 763 l 422 763 b 483 721 460 763 483 750 b 422 679 483 693 460 679 z "},"™":{"ha":1228,"x_min":0,"x_max":0,"o":"m 103 986 l 103 885 l 240 885 l 240 499 l 358 499 l 358 885 l 494 885 l 494 986 z m 557 499 l 676 499 l 676 783 l 783 499 l 899 499 l 1007 786 l 1007 499 l 1125 499 l 1125 986 l 971 986 l 842 635 l 713 986 l 557 986 z "},"°":{"ha":576,"x_min":0,"x_max":0,"o":"m 288 503 b 522 736 415 503 522 608 b 288 969 522 865 415 969 b 54 736 160 969 54 865 b 288 503 54 608 160 503 z m 196 736 b 288 831 196 788 238 831 b 381 736 339 831 381 788 b 288 643 381 685 339 643 b 196 736 238 643 196 685 z "},"′":{"ha":363,"x_min":0,"x_max":0,"o":"m 308 1026 l 142 1026 l 54 846 l 182 846 z "},"″":{"ha":569,"x_min":0,"x_max":0,"o":"m 308 1026 l 142 1026 l 54 846 l 182 846 z m 263 846 l 390 846 l 517 1026 l 350 1026 z "},"|":{"ha":410,"x_min":0,"x_max":0,"o":"m 103 986 l 103 -208 l 307 -208 l 307 986 z "},"¦":{"ha":410,"x_min":0,"x_max":0,"o":"m 103 986 l 103 493 l 307 493 l 307 986 z m 103 -208 l 307 -208 l 307 285 l 103 285 z "},"†":{"ha":803,"x_min":0,"x_max":0,"o":"m 306 986 l 306 736 l 103 736 l 103 582 l 306 582 l 306 0 l 499 0 l 499 582 l 700 582 l 700 736 l 499 736 l 499 986 z "},"‡":{"ha":810,"x_min":0,"x_max":0,"o":"m 306 986 l 306 736 l 103 736 l 103 582 l 306 582 l 306 181 l 108 181 l 108 26 l 306 26 l 306 -208 l 499 -208 l 499 26 l 707 26 l 707 181 l 499 181 l 499 582 l 700 582 l 700 736 l 499 736 l 499 986 z "},"№":{"ha":1539,"x_min":0,"x_max":0,"o":"m 103 986 l 103 0 l 314 0 l 314 653 l 696 0 l 936 0 l 936 986 l 725 986 l 725 311 l 335 986 z m 1000 461 b 1218 219 1000 317 1086 219 b 1436 461 1350 219 1436 317 b 1218 701 1436 606 1350 701 b 1000 461 1086 701 1000 606 z m 1028 0 l 1408 0 l 1408 133 l 1028 133 z m 1135 461 b 1218 589 1135 542 1165 589 b 1303 461 1271 589 1303 542 b 1218 333 1303 381 1271 333 b 1135 461 1165 333 1135 381 z "},"␌":{"ha":833,"x_min":0,"x_max":0,"o":"m 454 557 l 454 99 l 542 99 l 542 279 l 731 279 l 731 360 l 542 360 l 542 476 l 743 476 l 743 557 z m 104 417 l 192 417 l 192 597 l 381 597 l 381 678 l 192 678 l 192 794 l 393 794 l 393 875 l 104 875 z "},"⏎":{"ha":1250,"x_min":0,"x_max":0,"o":"m 476 333 l 1049 333 l 1049 840 l 878 840 l 878 506 l 476 506 l 476 643 l 253 419 l 476 194 z m 57 419 l 604 968 l 604 650 l 731 650 l 731 986 l 1194 986 l 1194 189 l 604 189 l 604 -131 z "},"␋":{"ha":833,"x_min":0,"x_max":0,"o":"m 761 557 l 426 557 l 426 476 l 553 476 l 553 99 l 635 99 l 635 476 l 761 476 z m 67 875 l 207 417 l 293 417 l 433 875 l 347 875 l 250 544 l 153 875 z "},"¢":{"ha":835,"x_min":0,"x_max":0,"o":"m 576 454 l 790 464 b 507 747 774 618 660 722 l 518 874 l 407 874 l 396 751 b 54 368 188 736 54 588 b 331 -6 54 172 160 33 l 319 -126 l 431 -126 l 440 -17 b 796 281 632 -14 776 100 l 581 289 b 454 144 569 203 521 153 l 493 581 b 576 454 536 560 568 517 z m 268 368 b 382 586 268 486 308 563 l 346 168 b 268 368 296 203 268 271 z "},"¤":{"ha":800,"x_min":0,"x_max":0,"o":"m 400 121 b 564 172 461 121 517 140 l 665 69 l 743 149 l 642 250 b 692 413 674 296 692 353 b 642 576 692 472 674 529 l 743 678 l 665 757 l 563 654 b 400 704 517 686 461 704 b 238 654 340 704 283 686 l 135 757 l 57 678 l 158 576 b 108 413 126 529 108 472 b 158 250 108 353 126 296 l 57 149 l 135 69 l 236 171 b 400 121 283 139 339 121 z m 257 413 b 400 554 257 490 321 554 b 542 413 475 554 542 490 b 400 271 542 335 475 271 b 257 413 321 271 257 335 z "},"$":{"ha":943,"x_min":0,"x_max":0,"o":"m 283 335 l 71 325 b 425 -12 83 138 222 11 l 425 -126 l 539 -126 l 539 -15 b 872 276 729 -1 872 103 b 539 569 872 426 743 519 l 539 818 b 646 664 599 793 638 739 l 857 675 b 539 1003 836 850 717 975 l 539 1118 l 425 1118 l 425 1007 b 89 717 222 994 89 885 b 425 425 89 563 219 476 l 425 169 b 283 335 346 192 297 253 z m 306 714 b 425 831 301 776 351 821 l 425 600 b 306 714 358 624 307 654 z m 539 163 l 539 392 b 657 269 621 361 656 324 b 539 163 658 208 611 171 z "},"€":{"ha":1025,"x_min":0,"x_max":0,"o":"m 975 335 l 771 346 b 590 156 751 232 683 156 b 392 322 493 156 425 221 l 557 322 l 572 435 l 369 435 b 367 492 368 453 367 472 b 368 535 367 507 367 521 l 585 535 l 600 647 l 388 647 b 590 831 419 758 489 831 b 769 656 679 831 746 761 l 971 667 b 594 1008 928 875 789 1008 b 185 647 388 1008 235 860 l 71 647 l 71 535 l 168 535 b 167 492 167 521 167 506 b 169 435 167 472 168 453 l 71 435 l 71 322 l 188 322 b 594 -22 242 118 393 -22 b 975 335 796 -22 935 117 z "},"₴":{"ha":992,"x_min":0,"x_max":0,"o":"m 71 325 l 118 325 b 107 274 111 310 107 290 b 482 -17 107 99 257 -17 b 881 243 685 -17 835 82 l 650 256 b 478 160 618 196 556 160 b 321 274 385 160 321 206 b 342 325 322 292 329 310 l 921 325 l 921 439 l 71 439 z m 71 531 l 921 531 l 921 644 l 860 644 b 876 714 869 664 876 690 b 490 1008 876 894 726 1008 b 129 736 313 1008 176 904 l 344 718 b 503 833 376 792 433 833 b 661 710 599 833 664 782 b 629 644 660 683 650 663 l 71 644 z "},"₽":{"ha":1014,"x_min":0,"x_max":0,"o":"m 578 986 l 183 986 l 183 254 l 57 254 l 57 142 l 183 142 l 183 0 l 394 0 l 394 142 l 518 142 l 518 254 l 394 254 l 394 340 l 578 340 b 957 664 814 340 957 464 b 578 986 957 864 814 986 z m 394 518 l 394 808 l 565 808 b 740 664 676 808 740 760 b 565 518 740 568 676 518 z "},"₹":{"ha":985,"x_min":0,"x_max":0,"o":"m 481 0 l 736 0 l 357 340 l 432 340 b 806 600 639 340 778 439 l 914 600 l 914 714 l 808 714 b 736 874 800 776 775 831 l 914 874 l 914 986 l 103 986 l 103 808 l 419 808 b 588 714 513 808 568 778 l 103 714 l 103 600 l 586 600 b 419 507 567 538 511 507 l 103 507 l 103 340 z "},"₪":{"ha":1210,"x_min":0,"x_max":0,"o":"m 617 986 l 103 986 l 103 0 l 278 0 l 278 869 l 569 869 b 654 785 622 869 654 836 l 654 215 l 824 215 l 824 778 b 617 986 824 906 744 986 z m 385 0 l 899 0 b 1107 208 1026 0 1107 81 l 1107 986 l 931 986 l 931 201 b 847 117 931 150 899 117 l 549 117 l 549 771 l 385 771 z "},"£":{"ha":897,"x_min":0,"x_max":0,"o":"m 492 1008 b 164 735 300 1008 164 896 b 196 571 164 690 176 633 l 204 544 l 71 544 l 71 431 l 229 431 b 231 386 231 415 231 400 b 72 158 231 290 178 210 l 72 0 l 831 4 l 831 182 l 283 182 b 435 431 385 226 436 326 l 632 431 l 632 544 l 418 544 b 372 708 397 611 372 653 b 494 831 372 781 429 831 b 615 731 554 831 603 794 l 847 740 b 492 1008 819 896 700 1008 z "},"¥":{"ha":965,"x_min":0,"x_max":0,"o":"m 35 986 l 310 501 l 181 501 l 181 381 l 376 381 l 376 301 l 181 301 l 181 181 l 376 181 l 376 0 l 589 0 l 589 181 l 786 181 l 786 301 l 589 301 l 589 381 l 786 381 l 786 501 l 656 501 l 931 986 l 699 986 l 483 585 l 267 986 z "},"+":{"ha":768,"x_min":0,"x_max":0,"o":"m 54 482 l 54 313 l 300 313 l 300 68 l 469 68 l 469 313 l 715 313 l 715 482 l 469 482 l 469 729 l 300 729 l 300 482 z "},"−":{"ha":768,"x_min":0,"x_max":0,"o":"m 54 482 l 54 313 l 715 313 l 715 482 z "},"×":{"ha":694,"x_min":0,"x_max":0,"o":"m 174 693 l 54 574 l 228 399 l 56 226 l 175 107 l 347 279 l 521 106 l 642 225 l 468 400 l 642 574 l 522 694 l 347 519 z "},"÷":{"ha":768,"x_min":0,"x_max":0,"o":"m 54 544 l 54 375 l 715 375 l 715 544 z m 285 176 b 394 69 285 115 332 69 b 504 176 457 69 504 115 b 394 283 504 239 457 283 b 285 176 332 283 285 239 z m 285 754 b 394 647 285 693 332 647 b 504 754 457 647 504 693 b 394 861 504 817 457 861 b 285 754 332 861 285 817 z "},"=":{"ha":867,"x_min":0,"x_max":0,"o":"m 103 651 l 103 482 l 764 482 l 764 651 z m 103 164 l 764 164 l 764 333 l 103 333 z "},"≠":{"ha":768,"x_min":0,"x_max":0,"o":"m 408 747 l 379 651 l 54 651 l 54 482 l 328 482 l 283 333 l 54 333 l 54 164 l 233 164 l 192 28 l 365 28 l 407 164 l 715 164 l 715 333 l 457 333 l 501 482 l 715 482 l 715 651 l 553 651 l 582 747 z "},">":{"ha":751,"x_min":0,"x_max":0,"o":"m 57 781 l 57 599 l 511 407 l 57 214 l 57 32 l 694 301 l 694 510 z "},"<":{"ha":746,"x_min":0,"x_max":0,"o":"m 692 781 l 54 510 l 54 301 l 692 32 l 692 214 l 238 407 l 692 599 z "},"≥":{"ha":768,"x_min":0,"x_max":0,"o":"m 54 169 l 54 0 l 715 0 l 715 169 z m 54 247 l 715 418 l 715 639 l 54 808 l 54 635 l 496 528 l 54 422 z "},"≤":{"ha":768,"x_min":0,"x_max":0,"o":"m 714 169 l 53 169 l 53 0 l 714 0 z m 53 418 l 714 247 l 714 422 l 272 528 l 714 635 l 714 808 l 53 639 z "},"±":{"ha":804,"x_min":0,"x_max":0,"o":"m 54 186 l 54 28 l 750 28 l 750 186 z m 54 419 l 306 419 l 306 264 l 499 264 l 499 419 l 750 419 l 750 578 l 499 578 l 499 736 l 306 736 l 306 578 l 54 578 z "},"≈":{"ha":722,"x_min":0,"x_max":0,"o":"m 54 431 l 203 431 b 260 542 203 499 219 542 b 338 490 290 542 310 519 b 475 424 374 451 413 424 b 669 667 596 424 669 519 l 521 667 b 464 557 521 599 504 557 b 383 613 431 557 411 581 b 247 674 347 650 307 674 b 54 431 126 674 54 579 z m 54 128 l 203 128 b 260 238 203 197 219 238 b 333 190 289 238 307 219 b 475 121 371 150 410 121 b 669 364 596 121 669 217 l 521 364 b 464 253 521 296 504 253 b 374 321 425 253 408 286 b 247 371 339 354 300 371 b 54 128 126 371 54 275 z "},"~":{"ha":722,"x_min":0,"x_max":0,"o":"m 54 340 l 203 340 b 260 454 203 411 219 454 b 343 393 296 454 313 425 b 475 333 379 356 419 333 b 669 585 596 333 669 432 l 521 585 b 464 471 521 514 504 471 b 388 524 431 471 414 493 b 247 592 350 564 310 592 b 54 340 126 592 54 493 z "},"¬":{"ha":650,"x_min":0,"x_max":0,"o":"m 54 449 l 54 315 l 464 315 l 464 92 l 597 92 l 597 449 z "},"^":{"ha":582,"x_min":0,"x_max":0,"o":"m 378 532 l 528 532 l 389 935 l 193 935 l 54 532 l 206 532 l 292 789 z "},"∞":{"ha":1200,"x_min":0,"x_max":0,"o":"m 528 376 b 374 272 493 310 432 272 b 268 376 313 272 268 318 b 374 481 268 435 313 481 b 528 376 432 481 493 443 z m 54 376 b 317 118 54 231 168 118 b 600 268 432 118 538 171 b 886 118 663 169 769 118 b 1146 376 1033 118 1146 231 b 886 635 1146 522 1033 635 b 600 483 769 635 664 581 b 317 635 536 579 433 635 b 54 376 168 635 54 522 z m 672 376 b 829 481 708 443 771 481 b 932 376 889 479 932 435 b 829 272 932 318 889 272 b 672 376 769 271 707 310 z "},"∫":{"ha":628,"x_min":0,"x_max":0,"o":"m 18 -207 l 140 -208 b 367 -11 267 -210 353 -132 l 451 740 b 538 817 457 790 486 821 l 589 814 l 610 985 l 485 986 b 257 789 358 988 271 910 l 175 38 b 96 -40 169 -12 140 -42 l 35 -37 z "},"∆":{"ha":922,"x_min":0,"x_max":0,"o":"m 35 146 l 35 0 l 888 0 l 888 147 l 558 986 l 365 986 z m 189 146 l 463 833 l 733 146 z "},"∏":{"ha":992,"x_min":0,"x_max":0,"o":"m 953 986 l 38 986 l 38 813 l 192 813 l 192 -208 l 397 -208 l 397 813 l 600 813 l 600 -208 l 806 -208 l 806 813 l 953 813 z "},"∑":{"ha":774,"x_min":0,"x_max":0,"o":"m 39 986 l 39 808 l 251 493 l 39 178 l 39 0 l 735 0 l 735 178 l 247 178 l 458 493 l 247 808 l 735 808 l 735 986 z "},"√":{"ha":964,"x_min":0,"x_max":0,"o":"m 935 986 l 493 986 l 313 47 l 226 467 l 29 467 l 169 -208 l 458 -208 l 656 817 l 935 817 z "},"∂":{"ha":860,"x_min":0,"x_max":0,"o":"m 436 658 b 56 346 225 676 74 553 b 394 -17 38 146 181 -7 b 657 75 504 -22 579 6 b 310 1053 867 269 929 994 l 253 903 b 642 519 485 879 638 728 b 436 658 606 597 528 650 z m 269 336 b 435 500 278 440 346 507 b 582 361 511 493 572 443 b 400 140 575 225 499 132 b 269 336 313 150 260 222 z "},"µ":{"ha":871,"x_min":0,"x_max":0,"o":"m 786 0 l 786 736 l 578 736 l 578 332 b 438 149 578 215 526 149 b 319 332 358 149 319 208 l 319 736 l 111 736 l 111 -208 l 319 -208 l 319 85 b 440 13 339 40 385 13 b 585 115 503 13 561 51 l 585 0 z "},"%":{"ha":1167,"x_min":0,"x_max":0,"o":"m 840 1008 l 121 -17 l 332 -17 l 1051 1008 z m 54 746 b 279 507 54 610 153 507 b 503 746 403 507 503 610 b 279 988 503 885 403 988 b 54 746 153 988 54 885 z m 197 746 b 279 874 197 825 228 874 b 360 746 329 874 360 825 b 279 621 360 668 329 621 b 197 746 228 621 197 668 z m 664 242 b 888 0 664 103 764 0 b 1113 242 1014 0 1113 103 b 888 481 1113 378 1014 481 b 664 242 764 481 664 378 z m 808 242 b 888 367 808 319 838 367 b 969 242 940 367 969 319 b 888 114 969 163 940 114 b 808 242 838 114 808 163 z "},"‰":{"ha":1632,"x_min":0,"x_max":0,"o":"m 1361 0 b 1579 242 1485 0 1579 103 b 1361 481 1579 378 1485 481 b 1142 242 1235 481 1142 378 b 1361 0 1142 103 1235 0 z m 54 746 b 279 507 54 610 153 507 b 503 746 403 507 503 610 b 279 988 503 885 403 988 b 54 746 153 988 54 885 z m 121 -17 l 332 -17 l 1051 1008 l 840 1008 z m 197 746 b 279 874 197 825 228 874 b 360 746 329 874 360 825 b 279 621 360 668 329 621 b 197 746 228 621 197 668 z m 664 242 b 888 0 664 103 764 0 b 1113 242 1014 0 1113 103 b 888 481 1113 378 1014 481 b 664 242 764 481 664 378 z m 808 242 b 888 367 808 319 838 367 b 969 242 940 367 969 319 b 888 114 969 163 940 114 b 808 242 838 114 808 163 z m 1278 242 b 1361 368 1278 319 1310 368 b 1444 242 1411 368 1444 319 b 1361 113 1444 163 1411 113 b 1278 242 1310 113 1278 163 z "},"↑":{"ha":976,"x_min":0,"x_max":0,"o":"m 489 986 l 57 556 l 57 343 l 388 674 l 388 0 l 590 0 l 590 671 l 921 342 l 921 554 z "},"↗":{"ha":882,"x_min":0,"x_max":0,"o":"m 825 988 l 215 988 l 65 838 l 533 838 l 57 361 l 200 218 l 674 692 l 675 226 l 825 376 z "},"→":{"ha":1099,"x_min":0,"x_max":0,"o":"m 1043 490 l 613 922 l 400 922 l 731 592 l 57 592 l 57 389 l 728 389 l 399 58 l 611 58 z "},"↘":{"ha":883,"x_min":0,"x_max":0,"o":"m 826 1 l 826 613 l 676 763 l 676 294 l 200 771 l 57 628 l 532 153 l 65 153 l 215 1 z "},"↓":{"ha":976,"x_min":0,"x_max":0,"o":"m 489 0 l 921 432 l 921 644 l 590 315 l 590 986 l 388 986 l 388 313 l 57 643 l 57 431 z "},"↙":{"ha":883,"x_min":0,"x_max":0,"o":"m 57 1 l 668 1 l 818 153 l 351 153 l 826 628 l 683 771 l 207 294 l 207 763 l 57 613 z "},"←":{"ha":1099,"x_min":0,"x_max":0,"o":"m 56 490 l 488 58 l 700 58 l 371 389 l 1042 389 l 1042 592 l 368 592 l 699 922 l 486 922 z "},"↖":{"ha":882,"x_min":0,"x_max":0,"o":"m 57 988 l 57 376 l 207 226 l 208 692 l 682 218 l 825 361 l 349 838 l 817 838 l 667 988 z "},"↔":{"ha":1500,"x_min":0,"x_max":0,"o":"m 1443 490 l 1013 922 l 800 922 l 1131 592 l 369 592 l 700 922 l 488 922 l 57 490 l 489 58 l 701 58 l 372 389 l 1128 389 l 799 58 l 1011 58 z "},"↕":{"ha":976,"x_min":0,"x_max":0,"o":"m 488 -271 l 919 160 l 919 372 l 589 42 l 589 804 l 919 474 l 919 686 l 488 1117 l 56 685 l 56 472 l 386 801 l 386 44 l 56 374 l 56 161 z "},"↝":{"ha":894,"x_min":0,"x_max":0,"o":"m 57 404 l 204 404 b 304 474 224 468 271 494 b 347 379 336 456 338 424 b 432 263 360 329 383 290 b 725 389 532 204 650 265 l 838 324 l 808 676 l 490 526 l 597 464 b 483 393 556 397 517 374 b 442 479 451 411 447 444 b 358 603 431 524 419 568 b 57 404 250 665 86 575 z "},"⇤":{"ha":921,"x_min":0,"x_max":0,"o":"m 221 489 l 519 239 l 519 413 l 865 413 l 865 564 l 518 564 l 518 738 z m 57 218 l 178 218 l 178 760 l 57 760 z "},"⇥":{"ha":921,"x_min":0,"x_max":0,"o":"m 700 489 l 403 738 l 403 564 l 56 564 l 56 413 l 401 413 l 401 239 z m 743 218 l 864 218 l 864 760 l 743 760 z "},"↩":{"ha":913,"x_min":0,"x_max":0,"o":"m 532 319 b 856 632 713 319 856 457 b 532 943 856 807 713 943 l 122 943 l 122 793 l 532 793 b 704 632 628 793 704 722 b 532 472 704 542 628 472 l 322 472 l 481 629 l 289 629 l 57 396 l 290 161 l 482 161 l 324 319 z "},"↪":{"ha":913,"x_min":0,"x_max":0,"o":"m 381 319 l 589 319 l 431 161 l 622 161 l 856 396 l 624 629 l 432 629 l 590 472 l 381 472 b 208 632 285 472 208 542 b 381 793 208 722 285 793 l 790 793 l 790 943 l 381 943 b 57 632 200 943 57 807 b 381 319 57 457 200 319 z "},"↰":{"ha":914,"x_min":0,"x_max":0,"o":"m 57 618 l 375 354 l 375 542 l 703 542 l 703 0 l 857 0 l 857 694 l 374 694 l 374 882 z "},"↱":{"ha":914,"x_min":0,"x_max":0,"o":"m 857 618 l 540 882 l 540 694 l 57 694 l 57 0 l 211 0 l 211 542 l 539 542 l 539 354 z "},"↳":{"ha":914,"x_min":0,"x_max":0,"o":"m 857 368 l 539 632 l 539 444 l 211 444 l 211 986 l 57 986 l 57 292 l 540 292 l 540 104 z "},"↴":{"ha":914,"x_min":0,"x_max":0,"o":"m 608 0 l 858 299 l 685 299 l 685 986 l 57 986 l 57 833 l 533 833 l 533 300 l 360 300 z "},"↵":{"ha":914,"x_min":0,"x_max":0,"o":"m 57 368 l 374 104 l 374 292 l 857 292 l 857 986 l 703 986 l 703 444 l 375 444 l 375 632 z "},"⇧":{"ha":1242,"x_min":0,"x_max":0,"o":"m 496 563 l 496 151 l 747 151 l 747 563 l 883 563 l 622 824 l 360 563 z m 35 435 l 622 1019 l 1207 435 l 900 435 l 900 0 l 344 0 l 344 435 z "},"●":{"ha":1160,"x_min":0,"x_max":0,"o":"m 581 -17 b 1104 494 876 -17 1104 199 b 581 1008 1104 793 876 1008 b 57 494 285 1008 57 793 b 581 -17 57 199 285 -17 z "},"○":{"ha":1160,"x_min":0,"x_max":0,"o":"m 581 -17 b 1104 494 876 -17 1104 199 b 581 1008 1104 793 876 1008 b 57 494 285 1008 57 793 b 581 -17 57 199 285 -17 z m 226 494 b 581 844 226 697 379 844 b 935 494 781 844 935 697 b 581 147 935 294 781 147 b 226 494 379 147 226 294 z "},"◌":{"ha":1160,"x_min":0,"x_max":0,"o":"m 865 243 l 951 158 b 1017 238 975 182 997 208 l 915 304 b 865 243 900 282 885 264 z m 57 508 b 68 407 57 474 61 439 l 188 432 b 178 510 181 457 178 482 z m 67 610 l 186 589 b 207 664 190 613 197 639 l 96 708 b 67 610 82 678 72 644 z m 100 308 b 151 219 114 278 132 247 l 250 290 b 211 357 235 311 222 333 z m 144 799 l 246 732 b 294 793 261 754 276 772 l 210 878 b 144 799 186 854 164 828 z m 219 143 b 300 81 244 119 271 99 l 364 182 b 301 231 342 196 321 213 z m 290 942 l 357 842 b 426 879 376 856 401 868 l 381 990 b 290 942 349 976 318 961 z m 392 35 b 492 7 424 22 457 14 l 513 125 b 436 147 485 131 460 138 z m 479 1019 l 503 903 b 581 910 528 907 554 910 l 581 1029 b 479 1019 546 1029 513 1025 z m 581 7 b 682 17 615 7 649 11 l 658 133 b 581 126 632 129 607 126 z m 649 911 b 725 889 676 906 701 899 l 769 1001 b 669 1029 738 1014 704 1022 z m 735 157 l 781 46 b 871 94 813 60 843 75 l 804 194 b 735 157 783 181 760 168 z m 797 854 b 858 806 819 840 840 824 l 942 893 b 861 956 917 917 890 938 z m 911 746 b 950 679 926 725 939 703 l 1061 728 b 1010 817 1047 758 1029 789 z m 954 372 l 1065 328 b 1094 426 1079 358 1089 392 l 975 447 b 954 372 971 424 964 397 z m 974 604 b 983 526 981 579 983 554 l 1104 528 b 1093 629 1104 563 1100 597 z "},"◊":{"ha":822,"x_min":0,"x_max":0,"o":"m 292 894 l 57 447 l 292 0 l 532 0 l 767 447 l 532 894 z m 256 447 l 413 743 l 568 447 l 413 151 z "},"▲":{"ha":1207,"x_min":0,"x_max":0,"o":"m 603 986 l 1172 0 l 35 0 z "},"▶":{"ha":1124,"x_min":0,"x_max":0,"o":"m 1089 494 l 103 989 l 103 -1 z "},"▼":{"ha":1207,"x_min":0,"x_max":0,"o":"m 603 0 l 35 986 l 1172 986 z "},"◀":{"ha":1124,"x_min":0,"x_max":0,"o":"m 35 494 l 1021 -1 l 1021 989 z "},"△":{"ha":1207,"x_min":0,"x_max":0,"o":"m 306 171 l 901 171 l 601 703 z m 35 0 l 603 986 l 1172 0 z "},"▷":{"ha":1124,"x_min":0,"x_max":0,"o":"m 1089 494 l 103 989 l 103 -1 z m 247 235 l 247 753 l 764 494 z "},"▽":{"ha":1207,"x_min":0,"x_max":0,"o":"m 306 815 l 601 283 l 901 815 z m 35 986 l 1172 986 l 603 0 z "},"◁":{"ha":1124,"x_min":0,"x_max":0,"o":"m 35 494 l 1021 -1 l 1021 989 z m 360 494 l 876 753 l 876 235 z "},"̈":{"ha":0,"x_min":0,"x_max":0,"o":"m 54 986 l 54 832 l 269 832 l 269 986 z m 344 832 l 560 832 l 560 986 l 344 986 z "},"̇":{"ha":0,"x_min":0,"x_max":0,"o":"m 54 986 l 54 832 l 269 832 l 269 986 z "},"̀":{"ha":0,"x_min":0,"x_max":0,"o":"m 54 1026 l 181 846 l 313 846 l 225 1026 z "},"́":{"ha":0,"x_min":0,"x_max":0,"o":"m 308 1026 l 142 1026 l 54 846 l 182 846 z "},"̋":{"ha":0,"x_min":0,"x_max":0,"o":"m 308 1026 l 142 1026 l 54 846 l 182 846 z m 261 846 l 389 846 l 515 1026 l 349 1026 z "},"̂":{"ha":0,"x_min":0,"x_max":0,"o":"m 372 846 l 521 846 l 400 1013 l 174 1013 l 54 846 l 203 846 l 288 964 z "},"̌":{"ha":0,"x_min":0,"x_max":0,"o":"m 372 1014 l 288 896 l 203 1014 l 54 1014 l 174 847 l 400 847 l 521 1014 z "},"̆":{"ha":0,"x_min":0,"x_max":0,"o":"m 182 1032 l 54 1032 b 272 840 54 924 150 840 b 490 1032 394 840 490 924 l 363 1032 b 272 947 363 983 324 947 b 182 1032 221 947 182 983 z "},"̊":{"ha":0,"x_min":0,"x_max":0,"o":"m 196 808 b 338 949 274 808 338 869 b 196 1092 338 1026 274 1092 b 54 949 118 1092 54 1026 b 196 808 54 869 118 808 z m 147 950 b 196 997 147 975 168 997 b 244 950 222 997 244 975 b 196 901 244 925 222 901 b 147 950 168 901 147 925 z "},"̃":{"ha":0,"x_min":0,"x_max":0,"o":"m 219 922 b 281 883 244 922 257 906 b 388 839 307 856 340 839 b 540 1044 482 839 540 917 l 419 1044 b 376 963 419 989 407 963 b 310 1006 349 963 335 981 b 208 1044 282 1033 250 1044 b 54 840 113 1044 54 968 l 175 840 b 219 922 175 896 189 922 z "},"̄":{"ha":0,"x_min":0,"x_max":0,"o":"m 54 993 l 54 857 l 457 857 l 457 993 z "},"̒":{"ha":0,"x_min":0,"x_max":0,"o":"m 54 1019 l 54 814 l 276 814 l 276 1019 l 199 1019 l 261 1239 l 149 1239 z "},"̦":{"ha":0,"x_min":0,"x_max":0,"o":"m 308 -83 l 142 -83 l 54 -264 l 182 -264 z "},"̧":{"ha":0,"x_min":0,"x_max":0,"o":"m 149 -61 l 194 -124 b 286 -164 240 -108 286 -124 b 233 -214 286 -193 265 -214 b 136 -146 186 -214 157 -171 l 54 -222 b 242 -326 113 -290 169 -326 b 396 -182 322 -326 396 -264 b 261 -44 396 -104 335 -44 l 315 14 l 218 14 z "},"̨":{"ha":0,"x_min":0,"x_max":0,"o":"m 232 -47 l 267 0 l 158 0 l 115 -44 b 54 -181 71 -86 54 -129 b 179 -304 54 -247 111 -300 b 315 -264 224 -307 275 -296 l 315 -153 b 232 -185 288 -169 258 -185 b 186 -137 204 -185 186 -164 b 232 -47 186 -110 208 -75 z "},"̵":{"ha":0,"x_min":0,"x_max":0,"o":"m 276 454 l 276 338 l 854 338 l 854 454 z "},"¨":{"ha":614,"x_min":0,"x_max":0,"o":"m 54 986 l 54 832 l 269 832 l 269 986 z m 344 832 l 560 832 l 560 986 l 344 986 z "},"˙":{"ha":324,"x_min":0,"x_max":0,"o":"m 54 986 l 54 832 l 269 832 l 269 986 z "},"`":{"ha":367,"x_min":0,"x_max":0,"o":"m 54 1026 l 181 846 l 313 846 l 225 1026 z "},"´":{"ha":363,"x_min":0,"x_max":0,"o":"m 308 1026 l 142 1026 l 54 846 l 182 846 z "},"˝":{"ha":568,"x_min":0,"x_max":0,"o":"m 308 1026 l 142 1026 l 54 846 l 182 846 z m 261 846 l 389 846 l 515 1026 l 349 1026 z "},"ˆ":{"ha":575,"x_min":0,"x_max":0,"o":"m 372 846 l 521 846 l 400 1013 l 174 1013 l 54 846 l 203 846 l 288 964 z "},"ˇ":{"ha":575,"x_min":0,"x_max":0,"o":"m 372 1014 l 288 896 l 203 1014 l 54 1014 l 174 847 l 400 847 l 521 1014 z "},"˘":{"ha":544,"x_min":0,"x_max":0,"o":"m 182 1032 l 54 1032 b 272 840 54 924 150 840 b 490 1032 394 840 490 924 l 363 1032 b 272 947 363 983 324 947 b 182 1032 221 947 182 983 z "},"˚":{"ha":392,"x_min":0,"x_max":0,"o":"m 196 808 b 338 949 274 808 338 869 b 196 1092 338 1026 274 1092 b 54 949 118 1092 54 1026 b 196 808 54 869 118 808 z m 147 950 b 196 997 147 975 168 997 b 244 950 222 997 244 975 b 196 901 244 925 222 901 b 147 950 168 901 147 925 z "},"˜":{"ha":594,"x_min":0,"x_max":0,"o":"m 219 922 b 281 883 244 922 257 906 b 388 839 307 856 340 839 b 540 1044 482 839 540 917 l 419 1044 b 376 963 419 989 407 963 b 310 1006 349 963 335 981 b 208 1044 282 1033 250 1044 b 54 840 113 1044 54 968 l 175 840 b 219 922 175 896 189 922 z "},"¯":{"ha":511,"x_min":0,"x_max":0,"o":"m 54 993 l 54 857 l 457 857 l 457 993 z "},"¸":{"ha":450,"x_min":0,"x_max":0,"o":"m 149 -61 l 194 -124 b 286 -164 240 -108 286 -124 b 233 -214 286 -193 265 -214 b 136 -146 186 -214 157 -171 l 54 -222 b 242 -326 113 -290 169 -326 b 396 -182 322 -326 396 -264 b 261 -44 396 -104 335 -44 l 315 14 l 218 14 z "},"˛":{"ha":368,"x_min":0,"x_max":0,"o":"m 232 -47 l 267 0 l 158 0 l 115 -44 b 54 -181 71 -86 54 -129 b 179 -304 54 -247 111 -300 b 315 -264 224 -307 275 -296 l 315 -153 b 232 -185 288 -169 258 -185 b 186 -137 204 -185 186 -164 b 232 -47 186 -110 208 -75 z "},"ʼ":{"ha":336,"x_min":0,"x_max":0,"o":"m 279 781 l 279 986 l 57 986 l 57 781 l 135 781 l 72 561 l 185 561 z "},"ʹ":{"ha":363,"x_min":0,"x_max":0,"o":"m 308 1026 l 142 1026 l 54 846 l 182 846 z "},"ˈ":{"ha":269,"x_min":0,"x_max":0,"o":"m 54 986 l 54 869 l 74 660 l 197 660 l 215 869 l 215 986 z "}}}
